<svg width="335" height="197" viewBox="0 0 335 197" fill="none" xmlns="http://www.w3.org/2000/svg">
<rect y="24" width="335" height="173" rx="21" fill="#1C1C45"/>
<path d="M311.625 136.419C319.887 128.11 326.179 118.73 319.92 117.262C313.662 115.795 303.136 132.157 301.307 147.039L299.444 151.957C300.965 141.129 297.26 127.943 291.826 127.4C286.392 126.857 289.695 135.441 293.983 142.73C297.247 148.298 298.104 152.694 298.319 154.959L289.655 178.175C292.02 161.022 286.144 140.218 277.554 139.36C268.964 138.503 274.204 152.091 280.978 163.676C286.117 172.446 287.498 179.388 287.853 183.013L286.124 187.636L288.395 188.902L298.707 161.284C301.542 159.229 304.683 157.632 308.014 156.553C316.054 153.833 324.095 149.511 319.686 146.389C315.84 143.669 306.801 148.895 300.577 156.272L304.141 146.724C305.776 143.957 308.061 140.003 311.625 136.419Z" fill="#F5F7FA"/>
<path d="M51.2305 28.0744C52.3026 18.0239 51.465 8.34857 46.4733 10.7406C41.4815 13.1326 43.2303 29.7896 50.0245 40.7782L51.4382 45.0664C46.6274 36.9724 37.0325 30.118 33.0927 32.6775C29.1529 35.237 35.9806 39.217 42.8216 41.81C48.0144 43.8201 50.9558 46.2792 52.3227 47.6862L59.023 67.9481C51.3712 55.1504 36.2419 44.3495 29.9771 48.4032C23.7123 52.4569 34.5601 58.7619 45.3878 62.8893C53.5422 66.0184 58.2324 69.9246 60.3966 72.1693L61.7367 76.1895C62.4737 76.0689 63.2107 75.9416 63.9411 75.8075L55.9811 51.6863C56.7744 48.777 58.0227 46.0113 59.6797 43.4918C63.6061 37.3342 66.7016 30.0912 62.0382 30.3726C58.018 30.6205 54.7415 39.0026 54.5338 47.311L51.7733 39.016C51.1136 35.4083 50.9312 31.7296 51.2305 28.0744Z" fill="#989EBB"/>
<path d="M255.892 164.004C255.999 164.574 256.12 165.197 256.261 165.853C257.748 172.768 261.4 184.092 269.614 186.316C269.614 186.316 265.145 162.999 281.085 156.922C297.025 150.845 295.263 145.069 294.352 134.777C293.441 124.486 289.916 122.516 300.979 112.874C312.041 103.232 309.924 88.8733 309.924 88.8733C309.924 88.8733 299.458 105.269 288.275 105.624C277.092 105.979 275.135 115.547 275.611 122.643C276.087 129.739 266.593 130.543 261.46 134.663C256.328 138.784 255.349 160.393 255.349 160.393C255.349 160.393 255.47 161.833 255.892 164.004Z" fill="#FFC43C"/>
<path d="M255.892 164.004C255.999 164.574 256.12 165.197 256.26 165.853C257.284 162.798 258.72 159.897 260.528 157.23C264.106 151.937 269.138 147.582 273.668 145.873C280.877 143.159 284.388 136.084 285.058 122.938C285.454 115.313 293.434 110.803 293.514 110.763C293.612 110.694 293.68 110.59 293.707 110.474C293.734 110.357 293.716 110.234 293.658 110.129C293.601 110.024 293.506 109.944 293.393 109.904C293.28 109.864 293.156 109.867 293.045 109.912C292.697 110.107 284.516 114.716 284.087 122.891C283.417 135.621 280.1 142.409 273.299 144.968C268.522 146.771 263.436 151.153 259.698 156.687C258.158 158.975 256.881 161.43 255.892 164.004Z" fill="#E6E8EE"/>
<path d="M79.4255 186.189H90.6284C84.5981 185.19 69.5693 178.751 68.2359 165.833C66.5407 149.471 60.7114 149.672 50.8954 147.963C41.0795 146.255 38.3725 149.042 32.1345 136.345C25.8965 123.648 12 122.04 12 122.04C12 122.04 24.677 135.869 22.2515 146.382C19.826 156.895 28.2282 161.089 34.9822 162.409C41.7361 163.729 40.0744 172.775 42.6339 178.584C43.7998 181.264 48.5771 183.984 53.4282 186.189H79.4255Z" fill="#FFC43C"/>
<path d="M55.1631 170.088C55.6523 174.986 58.4731 180.808 62.701 185.673L63.1633 186.189H64.4364C64.0746 185.807 63.7262 185.425 63.4045 185.056C59.3843 180.413 56.5568 174.637 56.0945 169.994C55.3574 162.624 49.6421 157.558 37.5614 153.652C30.5528 151.387 28.3417 142.831 28.3216 142.744C28.3124 142.679 28.2895 142.616 28.2546 142.56C28.2197 142.505 28.1734 142.457 28.1188 142.42C28.0642 142.384 28.0025 142.359 27.9377 142.348C27.8729 142.336 27.8064 142.339 27.7427 142.355C27.6789 142.371 27.6192 142.4 27.5675 142.441C27.5157 142.481 27.4731 142.532 27.4424 142.591C27.4117 142.649 27.3936 142.713 27.3892 142.778C27.3848 142.844 27.3943 142.91 27.417 142.972C27.5041 143.34 29.7689 152.118 37.2799 154.543C48.9519 158.315 54.4663 163.113 55.1631 170.088Z" fill="#E6E8EE"/>
<path d="M85.4691 155.803C85.2346 156.6 84.9598 157.465 84.6583 158.382C81.4757 168.018 74.9428 184.253 62.8755 186.162C62.8755 186.162 72.4235 152.942 50.6206 141.826C28.8177 130.71 32.2148 122.757 35.0959 108.23C37.9771 93.7041 43.3038 91.426 29.012 75.9684C14.7202 60.5107 19.9398 40.3494 19.9398 40.3494C19.9398 40.3494 32.3555 65.3483 48.242 67.5996C64.1285 69.8509 65.4618 83.7742 63.6528 93.8314C61.8437 103.889 75.3046 106.482 81.9983 113.149C88.6919 119.815 86.7555 150.798 86.7555 150.798C86.7555 150.798 86.3736 152.794 85.4691 155.803Z" fill="#FFC43C"/>
<path d="M85.4695 155.803C85.2349 156.6 84.9602 157.465 84.6587 158.382C83.6699 153.868 82.067 149.51 79.8948 145.431C75.6133 137.343 69.0938 130.342 62.9228 127.226C53.0532 122.241 49.1201 111.614 50.1922 92.7594C50.8019 81.811 40.1082 74.1592 39.9943 74.0788C39.9199 74.026 39.8567 73.9591 39.8082 73.8819C39.7597 73.8046 39.7269 73.7186 39.7117 73.6287C39.6809 73.4471 39.7235 73.2608 39.8301 73.1106C39.9367 72.9605 40.0986 72.8588 40.2802 72.828C40.4618 72.7972 40.6482 72.8398 40.7983 72.9465C41.207 73.2681 52.2023 81.1075 51.5323 92.8197C50.5205 111.045 54.2124 121.276 63.5326 125.98C70.0721 129.283 76.6518 136.312 81.1343 144.787C82.9862 148.286 84.4403 151.981 85.4695 155.803Z" fill="#E6E8EE"/>
<path d="M94.1188 178.376C94.1188 180.902 94.1992 183.536 94.2528 186.189H118.615C118.662 183.281 118.702 180.494 118.729 177.874C118.803 170.785 118.81 164.949 118.803 161.324C118.803 158.751 118.803 157.304 118.803 157.304L93.958 157.042C93.958 157.042 93.958 159.187 93.958 162.698C93.9848 166.584 94.025 172.172 94.1188 178.376Z" fill="#0B69B6"/>
<path d="M63.4184 172.775C63.4184 176.748 63.4921 181.298 63.5658 186.175H87.9349C87.9952 183.314 88.0421 180.48 88.0823 177.773C88.1627 171.971 88.2096 166.745 88.2297 162.986C88.2498 159.227 88.2297 157.016 88.2297 157.016L63.3782 157.277C63.3782 157.277 63.3782 159.91 63.3782 164.346C63.3849 166.704 63.3916 169.545 63.4184 172.775Z" fill="#0B69B6"/>
<path d="M104.223 26.3189C104.223 26.3189 108.136 22.5533 108.123 18.8279C108.11 15.1025 105.584 16.2013 104.223 12.7373C102.863 9.2732 98.8631 7.14919 96.6185 7.57131C94.3739 7.99343 89.7306 -0.636599 83.3921 0.870977C77.0535 2.37855 77.6097 10.5329 74.8759 11.7456C72.1422 12.9584 72.906 17.7759 74.3466 18.8547C75.7872 19.9334 76.3969 24.3758 77.2077 24.2752C78.0184 24.1747 104.223 26.3189 104.223 26.3189Z" fill="#1C1C45"/>
<path d="M77.8774 26.2318C77.8774 26.2318 75.4117 22.9486 73.5825 25.6623C71.7533 28.3759 74.3396 36.3828 78.8221 34.433L77.8774 26.2318Z" fill="#FFC3BD"/>
<path d="M103.238 26.2318C103.238 26.2318 105.704 22.9486 107.533 25.6623C109.362 28.3759 106.776 36.3828 102.293 34.433L103.238 26.2318Z" fill="#FFC3BD"/>
<path d="M96.6182 41.2271V49.2005C96.6182 49.2005 94.2396 53.2609 91.0235 53.5356C87.8073 53.8103 84.9932 50.038 84.9932 50.038V41.7966L96.6182 41.2271Z" fill="#FFC3BD"/>
<path d="M96.6183 41.2271V44.7648C94.4608 47.1568 90.6282 47.7532 84.9597 46.9223V41.7899L96.6183 41.2271Z" fill="#F97853"/>
<path d="M105.02 20.7642C104.894 24.1332 104.55 27.4904 103.989 30.8147C103.841 31.5852 103.674 32.3089 103.486 32.9655C101.811 38.835 97.6165 48.9056 85.8641 44.7112C80.678 42.8619 78.2726 37.0862 77.2006 31.2033C76.5952 27.6092 76.3327 23.9657 76.4166 20.322C76.4464 18.8761 76.8519 17.4629 77.5931 16.2212C78.3344 14.9795 79.386 13.952 80.6445 13.2397C87.5727 9.3066 94.8894 10.774 99.707 12.6233C101.335 13.2504 102.725 14.3743 103.679 15.8355C104.632 17.2967 105.102 19.0211 105.02 20.7642Z" fill="#FFC3BD"/>
<path d="M77.208 31.2234C77.208 31.2234 78.3471 38.0175 79.4191 40.4899C80.4912 42.9623 83.4393 43.4314 84.5449 45.5286C86.1195 48.5102 88.5249 50.8888 92.4714 49.4349C95.7612 48.2355 95.6071 46.5537 97.4497 45.2539C100.606 43.0293 102.14 40.5636 102.294 38.5535C102.448 36.5434 103.989 30.8414 103.989 30.8414L102.294 30.7208C101.577 32.1618 100.78 33.5621 99.9087 34.9152C98.4883 31.7929 91.6271 34.0643 91.6271 34.0643L90.2871 34.4864L88.947 34.0643C88.947 34.0643 82.0255 31.88 80.652 35.1967C79.7804 33.9034 79.1599 32.4578 78.8228 30.9352L77.208 31.2234ZM90.3139 35.5384C98.1868 34.1983 96.7797 38.8014 96.7261 38.9622C96.2417 39.4375 95.6992 39.8495 95.1113 40.1884C92.056 41.8367 91.7276 41.5888 90.5283 41.6424C88.8995 41.6416 87.3007 41.2043 85.8983 40.376C85.1069 39.8965 84.368 39.335 83.6939 38.7009C83.6939 38.7009 82.4611 34.4797 90.3139 35.5384Z" fill="#1C1C45"/>
<path d="M85.5827 27.2702C85.5827 28.1211 85.1472 28.8113 84.6045 28.8113C84.0617 28.8113 83.6262 28.1412 83.6262 27.2702C83.6262 26.3992 84.0617 25.7291 84.6045 25.7291C85.1472 25.7291 85.5827 26.4193 85.5827 27.2702Z" fill="#18315B"/>
<path d="M97.2282 27.2702C97.2282 28.1211 96.7927 28.8113 96.25 28.8113C95.7072 28.8113 95.2717 28.1412 95.2717 27.2702C95.2717 26.3992 95.7072 25.7291 96.25 25.7291C96.7927 25.7291 97.2282 26.4193 97.2282 27.2702Z" fill="#18315B"/>
<path d="M100.102 22.1982C100.102 22.1982 96.0822 20.5968 92.9397 21.9435L93.2546 23.6789C93.2546 23.6789 97.8242 23.2903 100.129 24.2284C100.358 23.5693 100.349 22.8509 100.102 22.1982Z" fill="#1C1C45"/>
<path d="M80.8595 22.2048C80.8595 22.2048 84.94 20.5967 88.0758 21.9502L87.7609 23.6989C87.7609 23.6989 83.1577 23.3103 80.8327 24.2484C80.6068 23.5843 80.6163 22.8627 80.8595 22.2048Z" fill="#1C1C45"/>
<path d="M90.6895 33.7293C91.1492 33.7092 91.6023 33.6118 92.0296 33.4412C92.1214 33.4012 92.1943 33.3273 92.233 33.235C92.2717 33.1426 92.2732 33.0388 92.2373 32.9453C92.1987 32.8524 92.125 32.7784 92.0321 32.7395C91.9393 32.7006 91.8348 32.6999 91.7415 32.7376C91.2661 32.9588 90.7295 33.0108 90.2205 32.885C90.1634 32.8453 90.1171 32.7921 90.0855 32.7302C90.0539 32.6682 90.0382 32.5994 90.0396 32.5299C90.0142 30.5931 90.0903 28.6563 90.2674 26.7274C90.2649 26.6332 90.2276 26.5432 90.1627 26.4748C90.0978 26.4064 90.0099 26.3644 89.9159 26.3569C89.822 26.3494 89.7285 26.377 89.6536 26.4342C89.5787 26.4915 89.5277 26.5745 89.5103 26.6671C89.3321 28.643 89.256 30.6267 89.2825 32.6103C89.2925 32.7974 89.3477 32.9792 89.4434 33.1402C89.5391 33.3013 89.6724 33.4367 89.8319 33.535C90.0949 33.6762 90.3913 33.7434 90.6895 33.7293Z" fill="#1C1C45"/>
<path d="M85.8647 36.2955C86.1529 37.7428 87.1043 40.4095 90.3272 40.4095C93.55 40.4095 94.4546 37.9773 94.7695 36.2955H85.8647Z" fill="white"/>
<path d="M105.021 20.7642C104.895 24.1332 104.55 27.4904 103.989 30.8147L102.294 30.6941C102.294 30.6941 102.702 28.0742 102.897 26.3724C103.091 24.6705 103.406 21.4811 101.952 21.0858C100.498 20.6905 101.349 17.0656 99.3322 15.4843C97.3154 13.903 92.8329 12.5161 89.8579 14.3453C86.883 16.1744 83.4926 15.1627 82.1257 15.4843C80.7589 15.8059 78.8828 17.6887 79.392 19.4576C79.9012 21.2265 78.3802 22.2986 78.0117 24.1478C77.6432 25.9971 78.8225 30.9018 78.8225 30.9018L77.201 31.2234C76.5943 27.6227 76.3318 23.9724 76.417 20.322C76.4468 18.8761 76.8523 17.4629 77.5935 16.2212C78.3348 14.9795 79.3864 13.952 80.6449 13.2397C87.5731 9.3066 94.8899 10.774 99.7074 12.6233C101.336 13.2504 102.725 14.3743 103.679 15.8355C104.633 17.2967 105.102 19.0211 105.021 20.7642Z" fill="#1C1C45"/>
<path d="M123.936 169.271C116.396 171.185 108.704 172.447 100.947 173.043L99.9086 173.117C98.85 173.184 97.798 173.244 96.7461 173.291C91.5303 173.513 86.3059 173.424 81.1008 173.023C80.0422 172.942 78.9969 172.849 77.9449 172.741C77.6099 172.741 77.2749 172.674 76.9332 172.634C70.6338 171.954 64.3895 170.834 58.246 169.284C58.1857 163.542 58.246 145.391 58.6078 125.732C58.648 123.36 58.6949 120.977 58.7485 118.583C59.2979 92.6388 60.3633 66.3199 62.2796 63.6398C64.1155 61.1137 69.6499 57.9043 74.9499 55.0097L75.8946 54.4938L79.3453 52.6311C81.6904 51.3514 83.7139 50.219 84.9602 49.3413V50.0582C84.9602 50.0582 87.8145 53.8305 90.9905 53.5558C93.9186 53.3012 96.1498 49.9242 96.525 49.3145C98.7043 50.7072 100.954 51.9865 103.266 53.147L105.738 54.4871L106.676 54.9829C112.532 58.0919 118.844 61.5895 120.747 64.1892C120.937 64.483 121.075 64.807 121.155 65.1473C122.274 68.9464 122.971 81.5431 123.393 96.7997V96.9672C123.393 97.5837 123.427 98.2068 123.44 98.8299C123.44 98.9103 123.44 98.9907 123.44 99.0779C123.581 104.438 123.688 110.06 123.769 115.721V117.062C123.769 117.289 123.769 117.51 123.769 117.732C123.769 118.844 123.769 119.963 123.809 121.082C123.809 121.899 123.809 122.717 123.809 123.541C124.11 143.95 124.023 163.254 123.936 169.271Z" fill="#575E8D"/>
<path d="M123.467 98.783C121.624 95.7679 119.648 92.6991 117.785 89.9788C117.001 88.833 116.237 87.761 115.514 86.776L115.473 86.7224C115.246 86.4142 115.024 86.1127 114.803 85.8246C114.771 85.7738 114.744 85.7199 114.723 85.6638C114.689 85.5499 114.697 85.4279 114.744 85.3188C114.79 85.2097 114.874 85.1205 114.98 85.0664C115.085 85.0124 115.207 84.997 115.322 85.0229C115.438 85.0487 115.541 85.1143 115.614 85.2081C117.859 88.1764 120.72 92.4445 123.427 96.7729V96.9404C123.44 97.51 123.453 98.18 123.467 98.783Z" fill="#E6E8EE"/>
<path d="M120.847 63.7268C120.847 63.7268 132.405 84.8932 139.447 95.6271C139.447 95.6271 143.467 91.9419 148.66 87.0239C154.309 81.6636 162.061 72.7656 162.061 72.7656L166.336 77.831C166.336 77.831 148.982 109.068 141.196 112.994C133.41 116.921 119.085 89.1345 119.085 89.1345L120.847 63.7268Z" fill="#575E8D"/>
<path d="M71.928 147.16C71.8593 147.157 71.7919 147.141 71.7295 147.112C71.667 147.084 71.6109 147.043 71.5642 146.992C71.5175 146.942 71.4813 146.883 71.4574 146.818C71.4336 146.754 71.4228 146.686 71.4255 146.617C72.0285 129.524 63.164 123.983 63.0769 123.93C63.0179 123.894 62.9665 123.848 62.9255 123.793C62.8845 123.738 62.8547 123.675 62.8379 123.609C62.8211 123.542 62.8176 123.473 62.8275 123.405C62.8375 123.337 62.8607 123.272 62.8959 123.213C62.9311 123.154 62.9776 123.102 63.0327 123.061C63.0878 123.02 63.1504 122.99 63.2169 122.974C63.2835 122.957 63.3527 122.953 63.4207 122.963C63.4886 122.973 63.5539 122.996 63.6129 123.032C63.7067 123.092 66.0518 124.512 68.3031 128.164C70.3735 131.514 72.7722 137.404 72.4439 146.657C72.4404 146.792 72.3845 146.919 72.2882 147.013C72.1918 147.107 72.0625 147.16 71.928 147.16Z" fill="#E6E8EE"/>
<path d="M109.745 131.052C109.613 131.052 109.486 131.003 109.389 130.913C109.292 130.824 109.233 130.701 109.222 130.569C108.941 126.971 110.127 124.345 111.628 121.021C112.07 120.05 112.526 119.011 112.968 117.912C115.883 110.85 114.415 102.77 114.402 102.689C114.385 102.557 114.419 102.423 114.497 102.316C114.575 102.208 114.692 102.134 114.823 102.109C114.954 102.084 115.089 102.11 115.201 102.182C115.314 102.254 115.394 102.366 115.427 102.495C115.494 102.837 116.968 110.964 113.933 118.314C113.464 119.453 113.008 120.472 112.593 121.45C111.092 124.76 110.013 127.159 110.274 130.489C110.28 130.558 110.272 130.627 110.25 130.692C110.229 130.758 110.195 130.818 110.15 130.871C110.105 130.923 110.051 130.966 109.989 130.997C109.928 131.028 109.861 131.047 109.792 131.052H109.745Z" fill="#E6E8EE"/>
<path d="M79.3447 52.6177C79.5658 54.3062 79.8942 56.4905 80.2493 58.9696C80.3632 59.7067 80.4704 60.4705 80.5776 61.2544C80.9461 63.814 81.3213 66.6147 81.6362 69.4221C81.7233 70.1793 81.8105 70.9364 81.8842 71.6936C82.1656 74.4809 82.38 77.2548 82.4537 79.8278C82.4537 80.6117 82.4537 81.3689 82.4537 82.1126C82.4663 83.8923 82.3476 85.6704 82.0986 87.4327C81.9445 88.4109 81.8105 89.3624 81.6898 90.3004C81.596 91.0709 81.5022 91.8348 81.4285 92.5852C81.1203 95.4932 80.9662 98.1934 80.926 100.746C80.926 101.523 80.926 102.281 80.926 103.024C80.926 105.919 81.1136 108.619 81.3481 111.192C81.4218 111.956 81.5022 112.713 81.5826 113.463C81.8976 116.271 82.2527 118.944 82.6346 121.584L82.9361 123.849C83.0902 125.055 83.2376 126.268 83.3649 127.481C83.4922 128.693 83.586 130.281 83.6262 131.956C83.6262 132.687 83.6262 133.451 83.6262 134.241C83.6262 136.74 83.5726 139.508 83.4587 142.402C83.4587 143.159 83.3917 143.93 83.3582 144.7C83.2242 147.381 83.0567 150.161 82.8691 152.895C82.8088 153.665 82.7552 154.429 82.6949 155.186C82.4872 158.034 82.2527 160.801 82.0249 163.381C81.9512 164.158 81.8775 164.922 81.8105 165.666C81.5357 168.5 81.2744 171.026 81.0399 173.036C86.2471 173.44 91.4739 173.53 96.6919 173.304C96.8125 171.16 97.1475 167.709 97.4758 163.649C97.5361 162.905 97.5897 162.135 97.65 161.351C97.8444 158.771 98.0253 155.99 98.1392 153.217C98.1749 152.453 98.2017 151.689 98.2196 150.925C98.3 148.144 98.3067 145.377 98.2196 142.784C98.1794 142 98.1392 141.23 98.0722 140.479C98.0052 139.729 97.9382 138.965 97.8511 138.248C97.6121 136.281 97.5001 134.3 97.516 132.318C97.516 131.554 97.5361 130.791 97.5763 130.027C97.6969 127.38 97.9851 124.72 98.3201 121.899C98.4072 121.155 98.501 120.392 98.5948 119.614C98.8963 117.108 99.2112 114.448 99.4591 111.534C99.5261 110.792 99.5864 110.028 99.64 109.242C99.8143 106.743 99.9282 104.063 99.9483 101.135C99.9483 100.378 99.9483 99.6139 99.9483 98.8232C99.9483 96.2905 99.8143 93.5836 99.6065 90.6689C99.6065 90.4076 99.573 90.1463 99.5529 89.885C99.5127 89.3757 99.4792 88.8598 99.4591 88.3439C99.3342 85.6357 99.3499 82.9229 99.506 80.2164C99.5462 79.4526 99.5998 78.682 99.6601 77.9182C99.8679 75.1844 100.176 72.4775 100.531 69.8778C100.638 69.1072 100.746 68.3434 100.86 67.5863C101.282 64.7453 101.744 62.0719 102.2 59.6799L102.602 57.4151C102.883 55.8004 103.138 54.3598 103.319 53.1403C101.007 51.9797 98.7573 50.7005 96.578 49.3077C96.2028 49.9175 93.9716 53.3279 91.0435 53.5491C87.8341 53.8238 85.0132 50.0515 85.0132 50.0515V49.3345C83.1801 50.5235 81.2882 51.6193 79.3447 52.6177Z" fill="white"/>
<path d="M80.2498 58.9629C80.3637 59.6999 80.4709 60.4637 80.5781 61.2477C84.0671 61.2385 87.5417 60.7996 90.9234 59.9411C94.6172 59.0788 98.4492 58.9876 102.18 59.6731L102.582 57.4084C98.5482 56.6709 94.4054 56.7758 90.4142 57.7166C87.0938 58.568 83.6774 58.9869 80.2498 58.9629Z" fill="#E3E3E3"/>
<path d="M81.637 69.4153C81.7241 70.1724 81.8112 70.9296 81.8849 71.6867C84.9348 71.5411 87.9627 71.0922 90.9236 70.3467C94.0761 69.6136 97.333 69.4412 100.545 69.8374C100.653 69.0669 100.76 68.303 100.874 67.5459C97.3803 67.125 93.8403 67.32 90.4144 68.1221C87.5394 68.8466 84.5988 69.2799 81.637 69.4153Z" fill="#E3E3E3"/>
<path d="M82.4541 79.821C82.4541 80.605 82.4541 81.3621 82.4541 82.1058C85.2988 81.9301 88.122 81.4996 90.8898 80.8194C93.7057 80.1668 96.6062 79.9589 99.4864 80.203C99.5266 79.4391 99.5802 78.6686 99.6405 77.9047C96.5378 77.6448 93.4135 77.8708 90.3806 78.5748C87.7797 79.2201 85.1275 79.6371 82.4541 79.821Z" fill="#E3E3E3"/>
<path d="M81.4622 92.5783C84.6541 92.4657 87.8253 92.0165 90.923 91.2383C93.7756 90.5732 96.716 90.3674 99.6335 90.6285C99.6335 90.3672 99.6 90.1059 99.5799 89.8446C99.5397 89.3354 99.5062 88.8194 99.4861 88.3035C96.4499 88.067 93.3955 88.2929 90.4272 88.9735C87.5734 89.685 84.6552 90.107 81.7168 90.2332C81.6297 91.0641 81.5359 91.8279 81.4622 92.5783Z" fill="#E3E3E3"/>
<path d="M80.953 103.017C84.317 102.958 87.6628 102.509 90.9231 101.677C93.8855 100.986 96.9419 100.789 99.9685 101.094C99.9685 100.337 99.9685 99.5735 99.9685 98.7828C96.7705 98.4964 93.5472 98.7226 90.4206 99.4529C87.3278 100.233 84.1556 100.656 80.9664 100.713C80.9463 101.53 80.9463 102.274 80.953 103.017Z" fill="#E3E3E3"/>
<path d="M81.3755 111.185C81.4492 111.949 81.5296 112.706 81.61 113.457C84.7521 113.329 87.8729 112.88 90.9235 112.117C93.725 111.46 96.6123 111.247 99.4798 111.487C99.5468 110.745 99.6071 109.981 99.6607 109.195C96.5625 108.935 93.4426 109.161 90.4142 109.865C87.4557 110.62 84.4262 111.062 81.3755 111.185Z" fill="#E3E3E3"/>
<path d="M82.6619 121.578L82.9634 123.842C85.6465 123.643 88.3088 123.224 90.9234 122.589C93.3533 122.025 95.8479 121.788 98.3407 121.886C98.4278 121.142 98.5216 120.378 98.6154 119.601C95.8529 119.477 93.0865 119.734 90.3941 120.365C87.8539 120.978 85.2679 121.384 82.6619 121.578Z" fill="#E3E3E3"/>
<path d="M83.6536 131.95C83.6536 132.68 83.6536 133.444 83.6536 134.235C86.0912 134.004 88.5094 133.601 90.8899 133.028C93.0583 132.529 95.278 132.286 97.5032 132.305C97.5032 131.541 97.5233 130.777 97.5635 130.013C95.1508 129.993 92.7443 130.258 90.3941 130.804C88.1748 131.333 85.9231 131.716 83.6536 131.95Z" fill="#E3E3E3"/>
<path d="M83.4192 144.694C85.9478 144.473 88.4563 144.063 90.9236 143.468C93.3218 142.92 95.7825 142.694 98.2403 142.797C98.2001 142.014 98.1599 141.243 98.0929 140.493C95.5052 140.414 92.918 140.666 90.3942 141.243C88.1324 141.788 85.8353 142.176 83.5197 142.402C83.4862 143.153 83.4527 143.923 83.4192 144.694Z" fill="#E3E3E3"/>
<path d="M82.7559 155.18C85.509 154.987 88.2412 154.563 90.9236 153.913C93.3054 153.36 95.7495 153.121 98.1934 153.203C98.2292 152.439 98.256 151.676 98.2738 150.912C95.6249 150.823 92.9758 151.082 90.3942 151.682C87.9351 152.281 85.4326 152.684 82.91 152.888C82.8698 153.659 82.8162 154.423 82.7559 155.18Z" fill="#E3E3E3"/>
<path d="M81.864 165.659C84.9195 165.525 87.954 165.087 90.9229 164.352C93.0887 163.851 95.3065 163.611 97.5294 163.635C97.5897 162.892 97.6433 162.121 97.7036 161.337C95.2438 161.301 92.7888 161.567 90.3935 162.128C87.6591 162.797 84.869 163.215 82.0583 163.374C82.0047 164.151 81.931 164.915 81.864 165.659Z" fill="#E3E3E3"/>
<path d="M99.9084 173.116L100.947 173.043C103.004 160.949 101.818 143.206 101.376 137.765C100.92 132.124 101.798 124.861 103.788 117.852C105.329 112.411 104.384 99.7611 103.62 89.6503C103.413 86.8027 103.205 84.1159 103.084 81.9114C102.696 74.7689 105.282 61.5558 106.709 54.9359L105.771 54.4401C104.344 60.993 101.664 74.5076 102.073 81.965C102.193 84.1829 102.394 86.8764 102.609 89.7307C103.366 99.7812 104.304 112.304 102.81 117.577C100.8 124.693 99.9018 132.084 100.364 137.846C100.806 143.293 101.999 161.163 99.9084 173.116Z" fill="#E6E8EE"/>
<path d="M78.8426 123.923C80.0487 131.36 79.6667 136.184 79.2312 141.772C79.0838 143.581 78.9364 145.451 78.8359 147.508C78.5143 153.98 77.4154 167.006 76.933 172.634L77.9448 172.741C78.4272 167.113 79.526 154.054 79.8477 147.561C79.9549 145.511 80.1023 143.655 80.243 141.853C80.6852 136.204 81.0738 131.32 79.841 123.762C79.5796 122.14 79.3049 120.492 79.0235 118.857C77.6834 110.757 76.2429 102.381 76.9129 98.3676C77.0737 97.3826 77.2814 96.2704 77.5025 95.0978C78.4138 90.2535 79.5126 84.2232 79.191 79.017C78.8694 73.8109 76.7119 59.7938 75.8945 54.5005L74.9497 55.0164C75.8006 60.5509 77.8309 74.0454 78.1793 79.084C78.5277 84.1227 77.402 90.1396 76.5042 94.9236C76.2831 96.1096 76.0754 97.2285 75.9079 98.2202C75.2378 102.401 76.5779 110.482 78.0252 119.045C78.3334 120.66 78.5813 122.301 78.8426 123.923Z" fill="#E6E8EE"/>
<path d="M58.8623 72.2495C58.8623 72.2495 48.517 106.736 45.9575 119.031C43.398 131.326 43.197 156.875 43.197 156.875C43.197 156.875 38.6742 166.255 38.567 170.443C38.4531 174.899 40.7915 178.436 40.5235 181.351C40.2555 184.266 43.8067 182.691 42.8016 176.781C41.7966 170.872 44.6442 165.532 45.8704 165.706C47.0965 165.88 44.8586 172.152 45.9441 174.416C47.0295 176.681 48.4433 172.286 49.8504 169.619C51.3044 166.852 51.1905 160.815 50.5204 156.506C49.8504 152.198 57.6697 126.02 57.7099 118.435L67.613 85.0003C67.613 85.0003 64.37 71.0502 58.8623 72.2495Z" fill="#FFC3BD"/>
<path d="M68.9058 84.1628C68.5507 86.3806 67.3246 90.1931 65.7433 94.9704C65.6093 95.3724 65.4686 95.7811 65.3346 96.2033V96.2636L64.095 99.989C62.3395 105.316 60.3964 111.38 58.7682 117.671C58.2054 119.815 57.6828 121.979 57.2204 124.137C56.6241 126.891 56.1216 129.638 55.7531 132.325C54.413 142.013 51.9071 154.275 51.9071 154.275C48.1817 155.803 42.3725 153.793 42.3725 153.793C42.3725 153.793 42.2184 136.124 43.0425 129.256C43.9318 122.038 45.2473 114.878 46.9823 107.815C51.4247 88.7257 59.2439 70.0452 61.3881 65.0936L61.7901 64.1757H63.6327C67.2709 66.494 69.8506 78.1928 68.9058 84.1628Z" fill="#575E8D"/>
<path d="M42.071 150.282L42.3592 154.349C42.3592 154.349 47.8735 156.138 52.0076 154.878L53.0998 151.247C49.1198 151.461 45.4413 151.36 42.071 150.282Z" fill="#009CF8"/>
<path d="M65.7436 94.9706C65.7525 95.0283 65.7525 95.0871 65.7436 95.1448L65.3684 96.2035V96.2638C64.9597 97.4162 64.5443 98.6692 64.1288 99.9891C61.9667 106.894 60.1773 113.911 58.7686 121.008L58.8088 117.658C58.2459 119.802 57.7233 121.966 57.261 124.124C57.6311 121.267 58.1567 118.433 58.8356 115.634C60.4316 108.597 62.4088 101.652 64.7587 94.8299C64.8006 94.7197 64.8795 94.6275 64.9819 94.569C65.0842 94.5105 65.2037 94.4893 65.3199 94.509C65.4362 94.5288 65.542 94.5883 65.6192 94.6774C65.6965 94.7664 65.7404 94.8795 65.7436 94.9974V94.9706Z" fill="#E6E8EE"/>
<path d="M250.766 186.189H275.196C275.115 184.493 275.035 182.838 274.954 181.338C274.532 172.969 274.17 167.267 274.17 167.267L254.297 168.151L252.649 168.225L249.728 168.359C249.728 168.359 250.009 173.451 250.451 180.915C250.532 182.604 250.652 184.339 250.766 186.189Z" fill="#0B69B6"/>
<path d="M243.598 186.189C243.725 184.092 243.839 182.102 243.946 180.272C244.368 173.163 244.616 168.366 244.616 168.366L241.44 168.218L239.799 168.145L220.173 167.274C220.173 167.274 219.952 170.671 219.657 176.065C219.503 178.939 219.322 182.39 219.141 186.189H243.598Z" fill="#0B69B6"/>
<path d="M277.716 171.086C272.812 172.439 267.825 173.473 262.787 174.182C261.059 174.423 259.328 174.624 257.595 174.785C255.263 174.999 252.934 175.144 250.606 175.22C246.747 175.337 242.885 175.252 239.035 174.966C231.471 174.401 223.981 173.102 216.669 171.086C216.602 164.131 216.703 139.199 217.225 115.152C217.225 114.073 217.272 112.994 217.299 111.916V111.246C217.299 110.998 217.299 110.75 217.299 110.502L217.359 108.224C217.399 106.683 217.44 105.148 217.48 103.634C217.48 102.723 217.533 101.825 217.56 100.954V100.404C217.56 99.8148 217.594 99.2252 217.614 98.6423V98.0995C217.614 97.5635 217.614 97.0275 217.667 96.4982C217.721 95.9688 217.667 95.607 217.714 95.1581C218.291 78.9366 219.135 66.1456 220.341 64.3365C222.391 61.2812 229.38 57.2208 234.994 53.9175C237.005 52.7383 239.383 51.5188 240.75 50.6143C242.76 52.2156 244.194 53.6696 247.149 53.5691C250.459 53.4552 251.276 51.4652 252.509 49.7633C253.28 50.2591 255.236 51.8672 256.248 52.4434L259.049 54.0649C260.563 54.936 262.184 55.8539 263.786 56.7987C266.158 58.199 268.476 59.6329 270.433 61.0132C272.046 62.0509 273.479 63.3455 274.674 64.8458C275.773 66.494 276.483 77.161 276.939 91.2049C276.939 91.7007 276.972 92.1965 276.992 92.6991V92.88C276.992 93.3892 277.026 93.9185 277.039 94.4411C277.079 96.0224 277.126 97.6372 277.166 99.2788C277.166 99.6205 277.166 99.9488 277.166 100.317C277.166 100.686 277.166 100.847 277.166 101.101C277.166 101.771 277.2 102.441 277.213 103.111C277.213 103.252 277.213 103.386 277.213 103.527C277.254 105.322 277.287 107.152 277.321 108.994C277.321 109.537 277.321 110.073 277.321 110.616C277.91 135.903 277.816 163.615 277.716 171.086Z" fill="#0756A4"/>
<path d="M277.494 110.622L269.615 118.616L262.244 111.172L254.874 118.616L247.504 111.138L240.133 118.616L232.716 111.091L225.346 118.616L217.305 110.488L217.365 108.21C217.406 106.669 217.446 105.135 217.486 103.62L225.319 95.6738L232.743 103.198L240.16 95.6738L247.53 103.151L254.901 95.6738L262.271 103.118L269.641 95.6738L277.333 103.54C277.374 105.336 277.407 107.165 277.441 109.008C277.474 109.57 277.488 110.08 277.494 110.622Z" fill="#0B69B6"/>
<path d="M239.309 67.4923C239.186 67.4873 239.069 67.4378 238.979 67.3529C238.89 67.268 238.834 67.1536 238.823 67.0308C238.811 66.908 238.845 66.7852 238.917 66.6852C238.989 66.5853 239.095 66.5149 239.216 66.4872C252.08 64.0416 255.966 55.7667 256 55.6863C256.023 55.619 256.059 55.5572 256.107 55.5048C256.155 55.4525 256.214 55.4108 256.279 55.3824C256.344 55.354 256.414 55.3395 256.485 55.3399C256.556 55.3402 256.626 55.3555 256.691 55.3846C256.756 55.4137 256.814 55.456 256.861 55.5089C256.909 55.5617 256.945 55.6239 256.967 55.6914C256.989 55.759 256.996 55.8304 256.989 55.901C256.982 55.9717 256.96 56.04 256.925 56.1017C256.764 56.4635 252.784 64.9461 239.41 67.4923H239.309Z" fill="#264CBE"/>
<path d="M223.61 89.771C223.599 89.8287 223.576 89.8836 223.543 89.9318L222.946 90.8833C222.946 90.8833 222.946 90.8833 222.946 90.9369C222.276 91.9821 221.606 93.1145 220.936 94.287C219.857 96.1765 218.738 98.2268 217.646 100.317C217.646 99.7277 217.68 99.1381 217.7 98.5551V98.0124C219.462 94.736 221.224 91.6739 222.698 89.3489C222.734 89.2919 222.78 89.2425 222.835 89.2038C222.89 89.1651 222.952 89.1377 223.018 89.1233C223.083 89.109 223.151 89.1079 223.217 89.1202C223.283 89.1324 223.346 89.1578 223.402 89.1948C223.496 89.2537 223.568 89.3425 223.605 89.447C223.643 89.5515 223.644 89.6656 223.61 89.771Z" fill="#264CBE"/>
<path d="M288.442 70.9499C288.442 70.9499 304.898 65.6633 309.763 54.8691C311.177 51.74 299.572 20.0273 299.572 20.0273L293.977 20.3021C293.977 20.3021 295.572 31.3174 296.536 37.5554C297.334 42.6812 298.62 48.8053 299.049 50.8288L299.196 51.4988L298.366 51.6529C290.68 53.2141 280.864 58.226 280.864 58.226L288.442 70.9499Z" fill="#FFC3BD"/>
<path d="M302.401 53.5376C302.438 53.5638 302.482 53.5914 302.532 53.6184C302.581 53.6455 302.634 53.6715 302.688 53.6948C302.742 53.718 302.795 53.7381 302.844 53.7537C302.893 53.7693 302.936 53.7801 302.972 53.7853C303.008 53.7906 303.035 53.7902 303.052 53.7842C303.069 53.7782 303.075 53.7668 303.07 53.7506C303.065 53.7344 303.048 53.7138 303.022 53.6901C302.996 53.6665 302.96 53.6402 302.917 53.6131C301.853 52.9166 300.729 52.2131 299.553 51.5078L299.611 51.6633L298.995 51.4078C300.186 52.1213 301.324 52.8329 302.401 53.5376Z" fill="#EB996E"/>
<path d="M263.263 56.4299C263.263 56.4299 258.291 68.1086 270.955 74.6079C279.725 79.1105 299.699 67.3648 299.699 67.3648L292.577 52.2422C292.577 52.2422 274.311 59.7801 263.263 56.4299Z" fill="#0756A4"/>
<path d="M296.704 2.15066C296.208 2.49908 296.315 4.64319 296.53 6.65999L296.315 6.69349C295.726 4.01335 294.56 -0.583075 293.555 0.287969C292.885 0.864198 293.776 4.81739 294.372 7.18261L294.004 7.29652C293.246 4.48908 291.618 -0.918094 290.54 0.133859C289.816 0.803893 291.21 5.60134 291.973 8.02686L291.658 8.15416C290.921 5.79564 289.347 1.33992 288.268 2.38517C287.29 3.32992 290.064 10.0705 290.064 10.0705L290.794 12.7506C290.794 12.7506 289.923 13.1258 288.563 11.5847C287.203 10.0437 285.575 9.77564 286.707 12.0069C287.98 14.5195 289.869 16.3286 290.727 18.1109C291.585 19.8932 294.185 20.456 294.185 20.456L299.444 20.188C299.444 20.188 300.469 11.3033 298.506 7.06871C298.165 4.54938 297.568 1.54093 296.704 2.15066Z" fill="#FFC3BD"/>
<path d="M231.65 22.6403C231.65 31.5987 237.165 37.7697 246.116 37.7697C255.068 37.7697 261.319 31.1364 261.319 22.178C261.343 19.8538 260.943 17.5448 260.14 15.3638L259.999 15.002C259.905 14.7674 259.805 14.5396 259.698 14.3319C259.544 13.9902 259.369 13.6619 259.189 13.3202C256.85 9.12576 252.676 6.45903 247.054 6.45903C236.32 6.43893 231.65 13.6887 231.65 22.6403Z" fill="#1C1C45"/>
<path d="M233.667 26.4863C233.667 26.4863 231.175 23.1361 229.325 25.91C227.476 28.684 230.089 36.7579 234.619 34.7813L233.667 26.4863Z" fill="#FFC3BD"/>
<path d="M259.303 26.4863C259.303 26.4863 261.796 23.1361 263.645 25.91C265.494 28.684 262.875 36.7579 258.345 34.7813L259.303 26.4863Z" fill="#FFC3BD"/>
<path d="M252.609 41.6625V49.7029C252.609 49.7029 250.204 53.8035 246.954 54.0849C243.705 54.3663 240.823 50.5471 240.823 50.5471V42.232L252.609 41.6625Z" fill="#FFC3BD"/>
<path d="M252.609 41.6625V45.2472C250.425 47.666 246.579 48.269 240.823 47.4248V42.232L252.609 41.6625Z" fill="#FFC3BD"/>
<path d="M261.106 20.9719C260.978 24.3924 260.629 27.8011 260.061 31.1765C259.906 31.9538 259.739 32.6908 259.551 33.3474C257.856 39.2839 253.615 49.4685 241.742 45.2271C236.502 43.3578 234.07 37.5151 232.985 31.5719C232.369 27.9316 232.105 24.2406 232.194 20.5498C232.218 19.0846 232.625 17.6511 233.374 16.3913C234.122 15.1315 235.187 14.0891 236.462 13.367C243.471 9.39374 250.868 10.8745 255.732 12.7439C257.379 13.3761 258.785 14.5115 259.75 15.9887C260.715 17.4658 261.189 19.2096 261.106 20.9719Z" fill="#FFC3BD"/>
<path d="M241.392 27.5518C241.392 28.4094 240.95 29.1063 240.4 29.1063C239.851 29.1063 239.416 28.4362 239.416 27.5518C239.416 26.6673 239.858 25.9906 240.4 25.9906C240.943 25.9906 241.392 26.6874 241.392 27.5518Z" fill="#18315B"/>
<path d="M253.065 27.5183C253.065 28.376 252.622 29.0728 252.073 29.0728C251.524 29.0728 251.081 28.4028 251.081 27.5183C251.081 26.6339 251.524 25.9639 252.073 25.9639C252.622 25.9639 253.065 26.6607 253.065 27.5183Z" fill="#18315B"/>
<path d="M255.303 22.1645C255.303 22.1645 252.174 20.9316 249.769 21.9702L250.01 23.3102C250.01 23.3102 253.541 23.0087 255.323 23.7323C255.494 23.2225 255.487 22.6698 255.303 22.1645Z" fill="#1C1C45"/>
<path d="M237.132 22.1645C237.132 22.1645 240.254 20.9316 242.659 21.9702L242.425 23.3102C242.425 23.3102 238.894 23.0087 237.111 23.7323C236.937 23.2231 236.944 22.6691 237.132 22.1645Z" fill="#1C1C45"/>
<path d="M246.619 34.0777C247.095 34.0607 247.565 33.9609 248.006 33.7829C248.099 33.7443 248.173 33.6705 248.212 33.5777C248.251 33.4848 248.252 33.3804 248.214 33.287C248.174 33.1936 248.099 33.1195 248.005 33.0806C247.911 33.0418 247.806 33.0413 247.712 33.0793C247.231 33.2987 246.69 33.3484 246.177 33.22C246.118 33.1815 246.07 33.1288 246.038 33.0666C246.005 33.0045 245.988 32.9351 245.99 32.8649C245.966 30.9079 246.044 28.951 246.224 27.0021C246.23 26.9005 246.196 26.8005 246.13 26.7232C246.064 26.6458 245.97 26.5969 245.869 26.5867C245.819 26.5831 245.768 26.5894 245.721 26.6052C245.673 26.6211 245.629 26.6463 245.591 26.6793C245.553 26.7123 245.522 26.7525 245.499 26.7975C245.477 26.8426 245.464 26.8916 245.46 26.9418C245.275 28.9463 245.196 30.9593 245.226 32.9721C245.237 33.1613 245.295 33.3448 245.393 33.507C245.491 33.6692 245.626 33.8053 245.789 33.9035C246.045 34.0355 246.332 34.0957 246.619 34.0777Z" fill="#1C1C45"/>
<path d="M241.48 36.021C242.117 38.2254 243.926 40.4298 246.412 40.4633C248.898 40.4968 250.714 38.2254 251.35 36.021H241.48Z" fill="white"/>
<path d="M260.696 26.5667H258.961C259.155 24.8246 259.43 21.7559 258.003 21.3203C253.48 19.9267 259.343 16.7373 257.333 15.1426C255.323 13.548 250.21 14.2314 246.679 14.1175C243.148 14.0036 237.419 14.0505 236.032 14.3721C234.646 14.6937 235.403 16.9986 235.912 18.7876C236.421 20.5766 234.21 22.5465 233.835 24.3958C233.74 25.1163 233.74 25.8462 233.835 26.5667H232.388C232.213 24.3154 232.187 22.2249 232.22 20.5364C232.244 19.0761 232.648 17.6472 233.391 16.3902C234.135 15.1331 235.193 14.0913 236.461 13.367C243.47 9.39374 250.867 10.8745 255.731 12.7439C257.376 13.3783 258.779 14.5146 259.741 15.9916C260.704 17.4686 261.176 19.2112 261.092 20.9719C261.025 22.6872 260.897 24.637 260.696 26.5667Z" fill="#1C1C45"/>
<path d="M240.227 32.0607C239.369 32.0607 238.531 31.8065 237.818 31.3301C237.105 30.8538 236.55 30.1767 236.222 29.3846C235.893 28.5925 235.808 27.7208 235.975 26.8799C236.142 26.039 236.555 25.2665 237.161 24.6602C237.768 24.054 238.54 23.6411 239.381 23.4738C240.222 23.3065 241.094 23.3924 241.886 23.7205C242.678 24.0486 243.355 24.6043 243.831 25.3172C244.308 26.0301 244.562 26.8682 244.562 27.7256C244.562 28.2949 244.45 28.8586 244.232 29.3846C244.014 29.9106 243.695 30.3885 243.292 30.791C242.89 31.1936 242.412 31.5129 241.886 31.7307C241.36 31.9486 240.796 32.0607 240.227 32.0607ZM240.227 24.0672C239.503 24.0672 238.796 24.2818 238.194 24.6838C237.593 25.0858 237.124 25.6571 236.847 26.3256C236.57 26.9941 236.497 27.7297 236.639 28.4393C236.78 29.149 237.128 29.8009 237.64 30.3125C238.151 30.8241 238.803 31.1726 239.513 31.3137C240.223 31.4549 240.958 31.3824 241.627 31.1055C242.295 30.8286 242.867 30.3597 243.269 29.7581C243.671 29.1565 243.885 28.4492 243.885 27.7256C243.883 26.7559 243.497 25.8264 242.812 25.1407C242.126 24.455 241.196 24.069 240.227 24.0672Z" fill="white"/>
<path d="M252.073 32.0607C251.216 32.0607 250.378 31.8065 249.665 31.3301C248.952 30.8538 248.396 30.1767 248.068 29.3846C247.74 28.5925 247.654 27.7208 247.822 26.8799C247.989 26.039 248.402 25.2665 249.008 24.6602C249.614 24.054 250.387 23.6411 251.228 23.4738C252.069 23.3065 252.94 23.3924 253.732 23.7205C254.525 24.0486 255.202 24.6043 255.678 25.3172C256.154 26.0301 256.409 26.8682 256.409 27.7256C256.409 28.8754 255.952 29.978 255.139 30.791C254.326 31.604 253.223 32.0607 252.073 32.0607ZM252.073 24.0672C251.35 24.0672 250.643 24.2818 250.041 24.6838C249.439 25.0858 248.97 25.6571 248.693 26.3256C248.417 26.9941 248.344 27.7297 248.485 28.4393C248.626 29.149 248.975 29.8009 249.487 30.3125C249.998 30.8241 250.65 31.1726 251.36 31.3137C252.069 31.4549 252.805 31.3824 253.473 31.1055C254.142 30.8286 254.713 30.3597 255.115 29.7581C255.517 29.1565 255.732 28.4492 255.732 27.7256C255.73 26.7559 255.344 25.8264 254.658 25.1407C253.973 24.455 253.043 24.069 252.073 24.0672Z" fill="white"/>
<path d="M236.629 26.3322C236.538 26.332 236.452 26.2959 236.388 26.2317C235.783 25.6683 235.055 25.2537 234.261 25.0211C233.468 24.7885 232.631 24.7442 231.818 24.8917C231.775 24.9026 231.731 24.9048 231.687 24.8982C231.644 24.8915 231.602 24.8762 231.564 24.853C231.527 24.8299 231.494 24.7994 231.469 24.7635C231.443 24.7275 231.425 24.6868 231.416 24.6438C231.404 24.6006 231.401 24.5555 231.407 24.5111C231.413 24.4668 231.428 24.4241 231.452 24.3859C231.475 24.3476 231.506 24.3145 231.542 24.2885C231.579 24.2626 231.62 24.2444 231.664 24.235C232.588 24.0522 233.542 24.0937 234.447 24.356C235.352 24.6183 236.18 25.0938 236.863 25.7426C236.912 25.7891 236.945 25.8489 236.959 25.9144C236.972 25.9799 236.966 26.0481 236.941 26.1101C236.916 26.1721 236.873 26.2252 236.817 26.2624C236.761 26.2996 236.696 26.3193 236.629 26.3188V26.3322Z" fill="white"/>
<path d="M255.752 26.3323C255.68 26.3297 255.611 26.3045 255.554 26.2603C255.497 26.2161 255.456 26.1551 255.436 26.0861C255.416 26.0171 255.418 25.9435 255.443 25.8759C255.467 25.8082 255.512 25.7499 255.571 25.7092C255.698 25.6288 258.767 23.6455 261.373 24.0743C261.461 24.0907 261.538 24.1404 261.589 24.2129C261.641 24.2855 261.662 24.3752 261.648 24.4629C261.641 24.5065 261.626 24.5484 261.604 24.5861C261.581 24.6239 261.551 24.6567 261.515 24.6829C261.48 24.709 261.44 24.7279 261.397 24.7385C261.354 24.749 261.31 24.751 261.266 24.7443C258.914 24.3557 255.966 26.2586 255.939 26.2787C255.883 26.3125 255.818 26.331 255.752 26.3323Z" fill="white"/>
<path d="M247.979 26.7543C247.759 26.4528 247.48 26.1996 247.158 26.0106C246.837 25.8216 246.48 25.7007 246.109 25.6555C245.751 25.698 245.407 25.8184 245.1 26.0083C244.793 26.1981 244.532 26.4528 244.334 26.7543L243.771 26.3791C244.03 25.9841 244.374 25.6529 244.779 25.4103C245.184 25.1678 245.639 25.0202 246.109 24.9788C246.587 25.0228 247.049 25.1689 247.465 25.407C247.881 25.6451 248.242 25.9698 248.522 26.359L247.979 26.7543Z" fill="white"/>
<path d="M222.183 89.1343C219.277 94.6587 215.955 99.9538 212.246 104.974C210.785 106.927 209.155 108.748 207.375 110.415C204.728 112.8 202.155 114.053 200.058 112.994C192.272 109.068 174.912 77.8308 174.912 77.8308L179.187 72.7654C179.187 72.7654 186.912 81.6835 192.587 87.0237C197.8 91.9484 201.807 95.6269 201.807 95.6269C202.524 94.5281 203.294 93.322 204.092 92.0489C204.889 90.7759 205.821 89.2683 206.718 87.8009C213.224 77.1206 220.441 64.2961 220.441 64.2961L222.183 89.1343Z" fill="#FFC3BD"/>
<path d="M220.413 64.2961L204.815 88.8328L210.048 110.415L222.959 89.3956C222.959 89.3956 224.527 75.0167 220.413 64.2961Z" fill="#0756A4"/>
<path d="M200.803 186.189C199.684 180.018 198.585 173.049 197.587 166.289C197.372 164.795 197.158 163.307 196.916 161.847C196.119 156.245 195.402 150.952 194.826 146.556C194.612 144.888 194.411 143.347 194.236 141.973C193.68 137.591 193.352 134.864 193.352 134.864L168.715 135.796L144.004 134.864C144.004 134.864 143.334 140.258 142.342 148.071C142.161 149.491 141.96 150.992 141.753 152.56C141.203 156.66 140.573 161.19 139.903 165.827C139.903 165.894 139.903 165.961 139.87 166.034C139.662 167.475 139.448 168.935 139.2 170.389V170.443C138.67 173.961 138.114 177.472 137.551 180.849C137.324 182.242 137.089 183.616 136.848 184.949C136.781 185.365 136.707 185.773 136.634 186.182L200.803 186.189Z" fill="#0B69B6"/>
<path d="M149.705 142.261C149.707 142.722 149.571 143.172 149.316 143.556C149.061 143.939 148.698 144.238 148.273 144.415C147.848 144.592 147.38 144.638 146.928 144.549C146.477 144.459 146.062 144.238 145.736 143.912C145.411 143.587 145.189 143.172 145.1 142.72C145.01 142.268 145.057 141.8 145.234 141.375C145.41 140.95 145.71 140.587 146.093 140.332C146.476 140.077 146.927 139.942 147.387 139.943C147.692 139.943 147.993 140.003 148.274 140.12C148.556 140.236 148.811 140.407 149.026 140.622C149.242 140.837 149.412 141.093 149.529 141.374C149.645 141.656 149.705 141.957 149.705 142.261Z" fill="#264CBE"/>
<path d="M155.468 151.26C155.468 151.72 155.331 152.17 155.076 152.552C154.82 152.935 154.456 153.233 154.031 153.409C153.606 153.584 153.138 153.63 152.687 153.54C152.236 153.449 151.821 153.227 151.496 152.901C151.172 152.576 150.951 152.161 150.862 151.709C150.773 151.258 150.82 150.79 150.997 150.365C151.174 149.941 151.473 149.578 151.856 149.323C152.239 149.069 152.689 148.933 153.15 148.935C153.455 148.935 153.757 148.995 154.038 149.112C154.32 149.229 154.576 149.4 154.791 149.616C155.007 149.832 155.177 150.089 155.293 150.371C155.409 150.653 155.469 150.955 155.468 151.26Z" fill="#264CBE"/>
<path d="M166.778 146.617C166.778 147.077 166.641 147.527 166.386 147.909C166.13 148.292 165.766 148.59 165.341 148.765C164.916 148.941 164.448 148.987 163.997 148.897C163.546 148.806 163.131 148.584 162.807 148.258C162.482 147.933 162.261 147.518 162.172 147.066C162.083 146.615 162.13 146.147 162.307 145.722C162.484 145.298 162.783 144.935 163.166 144.68C163.549 144.426 164 144.29 164.46 144.292C164.765 144.292 165.067 144.352 165.348 144.469C165.63 144.586 165.886 144.757 166.101 144.973C166.317 145.189 166.487 145.445 166.603 145.728C166.72 146.01 166.779 146.312 166.778 146.617Z" fill="#264CBE"/>
<path d="M148.914 160.815C148.914 161.274 148.778 161.724 148.523 162.106C148.267 162.489 147.904 162.787 147.479 162.963C147.054 163.139 146.587 163.185 146.136 163.095C145.685 163.005 145.271 162.784 144.945 162.459C144.62 162.133 144.399 161.719 144.309 161.268C144.219 160.817 144.265 160.35 144.441 159.925C144.617 159.5 144.915 159.137 145.298 158.881C145.68 158.626 146.13 158.49 146.589 158.49C146.895 158.489 147.198 158.548 147.48 158.665C147.763 158.781 148.019 158.952 148.235 159.169C148.452 159.385 148.623 159.641 148.739 159.924C148.856 160.206 148.915 160.509 148.914 160.815Z" fill="#264CBE"/>
<path d="M163.079 159.823C163.079 160.283 162.943 160.732 162.688 161.115C162.432 161.497 162.069 161.795 161.644 161.971C161.219 162.147 160.752 162.193 160.301 162.103C159.85 162.014 159.436 161.792 159.11 161.467C158.785 161.142 158.564 160.728 158.474 160.277C158.384 159.826 158.43 159.358 158.606 158.933C158.782 158.508 159.08 158.145 159.463 157.89C159.845 157.634 160.295 157.498 160.754 157.498C161.06 157.497 161.363 157.557 161.645 157.673C161.928 157.79 162.184 157.961 162.4 158.177C162.617 158.393 162.788 158.65 162.904 158.932C163.021 159.215 163.08 159.518 163.079 159.823Z" fill="#264CBE"/>
<path d="M143.882 150.248C143.882 150.826 143.666 151.383 143.277 151.81C142.888 152.238 142.354 152.505 141.779 152.56C141.986 150.992 142.187 149.491 142.368 148.071C142.813 148.236 143.196 148.533 143.466 148.922C143.737 149.311 143.882 149.774 143.882 150.248Z" fill="#264CBE"/>
<path d="M186.162 173.465C186.162 173.925 186.025 174.375 185.77 174.758C185.514 175.14 185.15 175.438 184.725 175.614C184.3 175.79 183.832 175.835 183.381 175.745C182.93 175.655 182.515 175.433 182.191 175.107C181.866 174.781 181.645 174.366 181.556 173.915C181.467 173.463 181.514 172.995 181.691 172.571C181.868 172.146 182.167 171.783 182.55 171.529C182.933 171.274 183.384 171.139 183.844 171.14C184.149 171.14 184.451 171.2 184.732 171.317C185.014 171.434 185.27 171.606 185.485 171.822C185.701 172.038 185.871 172.294 185.987 172.576C186.104 172.858 186.163 173.16 186.162 173.465Z" fill="#0756A4"/>
<path d="M185.07 160.815C185.07 161.274 184.933 161.724 184.678 162.106C184.422 162.489 184.059 162.787 183.634 162.963C183.21 163.139 182.742 163.185 182.291 163.095C181.84 163.005 181.426 162.784 181.101 162.459C180.775 162.133 180.554 161.719 180.464 161.268C180.375 160.817 180.421 160.35 180.597 159.925C180.773 159.5 181.071 159.137 181.453 158.881C181.835 158.626 182.285 158.49 182.745 158.49C183.05 158.49 183.352 158.55 183.634 158.666C183.917 158.783 184.173 158.955 184.389 159.17C184.605 159.386 184.776 159.643 184.893 159.925C185.01 160.207 185.07 160.509 185.07 160.815Z" fill="#264CBE"/>
<path d="M197.6 166.289C197.312 166.412 197.002 166.473 196.689 166.47C196.095 166.438 195.536 166.179 195.126 165.747C194.717 165.316 194.489 164.743 194.489 164.148C194.489 163.553 194.717 162.981 195.126 162.549C195.536 162.117 196.095 161.858 196.689 161.826C196.778 161.82 196.868 161.82 196.957 161.826C197.158 163.307 197.372 164.795 197.6 166.289Z" fill="#264CBE"/>
<path d="M187.388 182.732C187.388 183.192 187.251 183.641 186.995 184.024C186.74 184.406 186.376 184.704 185.951 184.88C185.526 185.056 185.058 185.102 184.607 185.011C184.155 184.921 183.741 184.699 183.416 184.373C183.091 184.047 182.87 183.632 182.781 183.181C182.692 182.73 182.739 182.262 182.916 181.837C183.093 181.412 183.392 181.05 183.776 180.795C184.159 180.54 184.609 180.405 185.069 180.407C185.685 180.408 186.274 180.654 186.709 181.09C187.144 181.526 187.388 182.116 187.388 182.732Z" fill="#0756A4"/>
<path d="M197.318 179.026C197.318 179.486 197.182 179.936 196.926 180.319C196.67 180.701 196.307 180.999 195.881 181.175C195.456 181.351 194.988 181.396 194.537 181.306C194.086 181.216 193.672 180.994 193.347 180.668C193.022 180.342 192.801 179.927 192.712 179.476C192.623 179.024 192.67 178.557 192.847 178.132C193.024 177.707 193.323 177.344 193.706 177.09C194.09 176.835 194.54 176.7 195 176.701C195.305 176.701 195.607 176.761 195.889 176.878C196.17 176.995 196.426 177.167 196.642 177.383C196.857 177.599 197.028 177.855 197.144 178.137C197.26 178.419 197.319 178.721 197.318 179.026Z" fill="#0756A4"/>
<path d="M176.654 186.189C176.442 185.877 176.157 185.621 175.823 185.444C175.49 185.267 175.118 185.175 174.741 185.175C174.363 185.175 173.992 185.267 173.658 185.444C173.325 185.621 173.04 185.877 172.828 186.189H176.654Z" fill="#264CBE"/>
<path d="M147.387 175.482C147.387 175.942 147.25 176.391 146.995 176.773C146.74 177.156 146.376 177.454 145.952 177.63C145.527 177.806 145.059 177.852 144.608 177.762C144.157 177.672 143.743 177.451 143.418 177.126C143.093 176.801 142.871 176.386 142.781 175.935C142.692 175.484 142.738 175.017 142.914 174.592C143.09 174.167 143.388 173.804 143.77 173.549C144.152 173.293 144.602 173.157 145.062 173.157C145.367 173.156 145.67 173.215 145.953 173.332C146.235 173.448 146.492 173.62 146.708 173.836C146.924 174.052 147.095 174.308 147.212 174.591C147.328 174.873 147.388 175.176 147.387 175.482Z" fill="#0756A4"/>
<path d="M141.256 168.145C141.258 168.707 141.055 169.25 140.685 169.673C140.315 170.096 139.803 170.37 139.246 170.443V170.389C139.467 168.935 139.682 167.475 139.916 166.034C140.318 166.221 140.658 166.519 140.895 166.893C141.133 167.267 141.258 167.702 141.256 168.145Z" fill="#264CBE"/>
<path d="M138.543 182.732C138.542 183.231 138.381 183.717 138.083 184.117C137.785 184.518 137.366 184.812 136.888 184.956C137.129 183.616 137.363 182.276 137.591 180.855C137.886 181.071 138.126 181.354 138.291 181.68C138.457 182.006 138.543 182.366 138.543 182.732Z" fill="#264CBE"/>
<path d="M153.15 183.71C153.151 184.17 153.016 184.62 152.761 185.003C152.507 185.386 152.144 185.685 151.719 185.862C151.295 186.039 150.827 186.086 150.376 185.998C149.924 185.909 149.509 185.688 149.183 185.363C148.858 185.038 148.635 184.624 148.545 184.172C148.455 183.721 148.501 183.253 148.676 182.828C148.852 182.403 149.15 182.039 149.533 181.784C149.915 181.528 150.365 181.391 150.825 181.391C151.44 181.391 152.031 181.635 152.467 182.07C152.903 182.505 153.148 183.094 153.15 183.71Z" fill="#264CBE"/>
<path d="M165.438 181.894C165.438 182.354 165.301 182.803 165.046 183.186C164.79 183.568 164.427 183.866 164.002 184.042C163.578 184.218 163.11 184.264 162.659 184.174C162.208 184.084 161.794 183.863 161.469 183.538C161.143 183.213 160.922 182.798 160.832 182.347C160.743 181.896 160.789 181.429 160.965 181.004C161.141 180.579 161.439 180.216 161.821 179.961C162.203 179.705 162.653 179.569 163.113 179.569C163.729 179.571 164.319 179.816 164.755 180.252C165.19 180.687 165.436 181.278 165.438 181.894Z" fill="#264CBE"/>
<path d="M156.661 170.476C156.662 170.936 156.527 171.387 156.272 171.77C156.017 172.153 155.655 172.452 155.23 172.629C154.805 172.806 154.337 172.853 153.886 172.764C153.435 172.675 153.02 172.454 152.694 172.129C152.368 171.804 152.146 171.39 152.056 170.939C151.965 170.488 152.011 170.02 152.187 169.595C152.363 169.17 152.661 168.806 153.043 168.55C153.426 168.294 153.875 168.158 154.336 168.158C154.951 168.158 155.541 168.402 155.977 168.837C156.413 169.271 156.659 169.861 156.661 170.476Z" fill="#0756A4"/>
<path d="M169.129 168.158C169.133 168.618 169.001 169.068 168.749 169.452C168.497 169.837 168.137 170.138 167.714 170.318C167.291 170.498 166.824 170.548 166.373 170.463C165.921 170.377 165.505 170.16 165.177 169.839C164.848 169.517 164.623 169.105 164.529 168.656C164.434 168.206 164.475 167.738 164.646 167.312C164.818 166.885 165.112 166.519 165.491 166.26C165.87 166 166.318 165.859 166.777 165.853C167.083 165.849 167.387 165.905 167.672 166.019C167.956 166.132 168.215 166.301 168.433 166.516C168.652 166.73 168.826 166.985 168.945 167.267C169.065 167.549 169.127 167.852 169.129 168.158Z" fill="#264CBE"/>
<path d="M174.737 155.903C174.737 156.364 174.601 156.813 174.345 157.196C174.089 157.578 173.726 157.876 173.3 158.052C172.875 158.228 172.407 158.274 171.956 158.183C171.505 158.093 171.091 157.871 170.766 157.545C170.441 157.219 170.22 156.804 170.131 156.353C170.042 155.901 170.089 155.434 170.266 155.009C170.443 154.584 170.742 154.222 171.125 153.967C171.509 153.712 171.959 153.577 172.419 153.578C173.034 153.58 173.624 153.826 174.059 154.262C174.493 154.698 174.737 155.288 174.737 155.903Z" fill="#264CBE"/>
<path d="M194.852 146.556C194.69 146.597 194.523 146.617 194.356 146.616C193.76 146.599 193.193 146.353 192.773 145.929C192.353 145.505 192.112 144.936 192.1 144.339C192.088 143.743 192.306 143.165 192.708 142.724C193.111 142.284 193.667 142.015 194.262 141.973C194.436 143.347 194.637 144.888 194.852 146.556Z" fill="#264CBE"/>
<path d="M182.745 146.617C182.745 147.077 182.609 147.526 182.353 147.908C182.098 148.291 181.735 148.589 181.31 148.765C180.885 148.941 180.417 148.987 179.966 148.897C179.515 148.807 179.101 148.586 178.776 148.261C178.451 147.936 178.229 147.521 178.14 147.07C178.05 146.619 178.096 146.152 178.272 145.727C178.448 145.302 178.746 144.939 179.128 144.684C179.511 144.428 179.96 144.292 180.42 144.292C180.726 144.291 181.028 144.35 181.311 144.467C181.593 144.583 181.85 144.755 182.066 144.971C182.282 145.187 182.453 145.444 182.57 145.726C182.686 146.008 182.746 146.311 182.745 146.617Z" fill="#264CBE"/>
<path d="M191.248 154.892C191.248 155.352 191.112 155.802 190.856 156.184C190.6 156.567 190.237 156.865 189.811 157.04C189.386 157.216 188.918 157.262 188.467 157.172C188.016 157.081 187.602 156.859 187.277 156.533C186.952 156.207 186.731 155.793 186.642 155.341C186.553 154.89 186.6 154.422 186.777 153.997C186.954 153.573 187.253 153.21 187.636 152.955C188.02 152.701 188.47 152.565 188.93 152.567C189.235 152.567 189.537 152.627 189.819 152.744C190.1 152.861 190.356 153.032 190.572 153.248C190.787 153.464 190.958 153.72 191.074 154.002C191.19 154.284 191.249 154.587 191.248 154.892Z" fill="#264CBE"/>
<path d="M177.063 175.482C177.063 175.942 176.927 176.391 176.671 176.773C176.416 177.156 176.053 177.454 175.628 177.63C175.203 177.806 174.736 177.852 174.285 177.762C173.834 177.672 173.419 177.451 173.094 177.126C172.769 176.801 172.547 176.386 172.458 175.935C172.368 175.484 172.414 175.017 172.59 174.592C172.766 174.167 173.064 173.804 173.446 173.549C173.829 173.293 174.278 173.157 174.738 173.157C175.044 173.156 175.346 173.215 175.629 173.332C175.911 173.448 176.168 173.62 176.384 173.836C176.6 174.052 176.771 174.308 176.888 174.591C177.004 174.873 177.064 175.176 177.063 175.482Z" fill="#0756A4"/>
<path d="M194.872 135.474C181.88 143.957 158.02 143.293 143.018 135.474C144.452 126.549 146.368 117.618 145.933 105.738C145.888 104.438 145.832 103.147 145.765 101.865C145.705 100.746 145.645 99.6406 145.571 98.5485C144.278 78.7892 140.881 62.6347 142.563 60.5442C143.559 59.4185 144.709 58.4394 145.98 57.6362C146.565 57.2431 147.188 56.8411 147.849 56.4302C149.404 55.4854 151.132 54.5273 152.874 53.5959C156.995 51.3982 161.176 49.3546 163.273 47.9609C164.992 48.8157 166.876 49.2888 168.794 49.3479H169.096C171.017 49.2898 172.903 48.8166 174.624 47.9609C176.567 49.2541 180.232 51.0565 184.004 53.0264C186.654 54.3743 189.226 55.8685 191.71 57.5022C192.935 58.284 194.042 59.2361 194.999 60.3298C195.817 61.3616 195.475 65.8977 194.772 72.6249C194.102 79.2381 193.036 87.9686 192.406 97.5702C192.232 100.25 192.091 102.971 191.998 105.738C191.569 117.611 193.445 126.549 194.872 135.474Z" fill="#0B69B6"/>
<path d="M186.925 125.604C176.459 125.558 167.528 120.8 161.873 116.814C158.265 114.3 154.959 111.377 152.023 108.103C151.98 108.053 151.948 107.994 151.928 107.931C151.908 107.868 151.9 107.802 151.906 107.736C151.911 107.67 151.93 107.605 151.96 107.546C151.991 107.488 152.033 107.436 152.083 107.393C152.187 107.309 152.319 107.269 152.452 107.281C152.585 107.294 152.708 107.358 152.794 107.46C155.681 110.677 158.93 113.55 162.476 116.023C168.003 119.923 176.734 124.573 186.932 124.62C187.065 124.62 187.193 124.672 187.287 124.767C187.382 124.861 187.434 124.989 187.434 125.122C187.434 125.255 187.382 125.383 187.287 125.477C187.193 125.572 187.065 125.625 186.932 125.625L186.925 125.604Z" fill="#989EBB"/>
<path d="M179.997 119.514C171.086 117.758 163.2 110.937 162.838 110.622C162.788 110.578 162.747 110.525 162.718 110.465C162.689 110.406 162.672 110.341 162.668 110.275C162.664 110.208 162.673 110.142 162.695 110.079C162.716 110.016 162.75 109.958 162.794 109.909C162.838 109.859 162.892 109.819 162.951 109.789C163.011 109.76 163.076 109.743 163.142 109.739C163.208 109.735 163.275 109.744 163.337 109.766C163.4 109.787 163.458 109.821 163.508 109.865C163.602 109.946 172.888 117.973 182.342 118.837C182.409 118.842 182.474 118.86 182.533 118.891C182.592 118.921 182.644 118.964 182.687 119.015C182.729 119.066 182.761 119.126 182.78 119.189C182.799 119.253 182.805 119.32 182.798 119.386C182.786 119.519 182.722 119.641 182.621 119.726C182.519 119.812 182.388 119.853 182.255 119.842C181.518 119.768 180.741 119.661 179.997 119.514Z" fill="#989EBB"/>
<path d="M166.778 73.3889C166.651 73.3922 166.527 73.347 166.432 73.2625C166.336 73.1779 166.277 73.0604 166.265 72.9335C166.253 72.8067 166.289 72.6801 166.367 72.5793C166.445 72.4785 166.558 72.411 166.684 72.3905C179.415 69.9717 183.288 61.7638 183.328 61.67C183.383 61.5482 183.484 61.4534 183.609 61.4063C183.734 61.3592 183.873 61.3636 183.995 61.4187C184.116 61.4738 184.211 61.575 184.258 61.7C184.305 61.8251 184.301 61.9637 184.246 62.0854C184.085 62.4472 180.145 70.8561 166.872 73.3755L166.778 73.3889Z" fill="#989EBB"/>
<path d="M183.971 53.0264C181.438 58.8021 175.214 64.7855 167.113 63.3851C159.274 62.045 155.555 57.8841 152.875 53.5959C156.995 51.3915 161.176 49.3546 163.274 47.9609C164.993 48.8145 166.876 49.2897 168.795 49.3546H169.103C171.022 49.2897 172.904 48.8145 174.624 47.9609C176.567 49.2675 180.232 51.0565 183.971 53.0264Z" fill="#FFC3BD"/>
<path d="M177.203 48.383C177.15 48.3821 177.098 48.3916 177.049 48.411C176.999 48.4304 176.955 48.4593 176.917 48.496C176.879 48.5327 176.848 48.5765 176.827 48.625C176.806 48.6734 176.795 48.7255 176.794 48.7783C176.794 49.1066 176.66 56.7383 169.806 57.3346C163.447 57.8841 160.821 51.8002 160.003 49.2942C159.98 49.2218 159.935 49.1586 159.873 49.114C159.812 49.0694 159.737 49.0456 159.661 49.0463H159.588C159.531 49.0469 159.476 49.0607 159.426 49.0865C159.376 49.1123 159.332 49.1495 159.299 49.1951C159.266 49.2406 159.244 49.2933 159.235 49.3489C159.225 49.4045 159.229 49.4615 159.246 49.5153C160.117 52.1218 162.891 58.4134 169.363 58.1789H169.879C177.464 57.5089 177.598 48.919 177.598 48.8319C177.606 48.7757 177.601 48.7185 177.585 48.6641C177.569 48.6098 177.541 48.5596 177.503 48.517C177.466 48.4744 177.419 48.4404 177.368 48.4173C177.316 48.3942 177.26 48.3825 177.203 48.383Z" fill="white"/>
<path d="M182.048 7.79236C182.048 7.79236 188.172 17.28 187.502 27.1697C186.832 37.0594 188.407 48.4634 179.562 47.9408C170.718 47.4181 154.939 51.4852 149.927 43.7866C144.915 36.0879 182.048 7.79236 182.048 7.79236Z" fill="#1C1C45"/>
<path d="M156.057 25.1462C156.057 25.1462 153.619 21.8966 151.803 24.5834C149.987 27.2702 152.553 35.2235 156.995 33.2938L156.057 25.1462Z" fill="#F97853"/>
<path d="M156.058 30.8548C155.976 30.8548 155.896 30.828 155.83 30.7784C155.765 30.7288 155.718 30.6591 155.696 30.5801C155.026 28.1277 152.46 27.1294 152.433 27.1227C152.368 27.0728 152.322 27.0032 152.3 26.9245C152.279 26.8458 152.284 26.7623 152.314 26.6865C152.344 26.6108 152.398 26.547 152.468 26.5048C152.538 26.4626 152.62 26.4443 152.701 26.4527C153.57 26.8046 154.353 27.3409 154.995 28.0245C155.637 28.7082 156.123 29.5229 156.419 30.4126C156.444 30.5085 156.431 30.6103 156.382 30.6966C156.334 30.7828 156.253 30.8468 156.158 30.8749L156.058 30.8548Z" fill="#EA5143"/>
<path d="M153.477 29.6222C153.41 29.6205 153.345 29.6011 153.287 29.5659C153.23 29.5307 153.183 29.4811 153.151 29.4219C153.119 29.3628 153.103 29.2963 153.105 29.2291C153.107 29.1619 153.127 29.0964 153.162 29.0393C153.523 28.5415 154.012 28.1503 154.576 27.9069C154.667 27.8662 154.77 27.863 154.863 27.8982C154.956 27.9334 155.031 28.004 155.072 28.0945C155.111 28.1854 155.113 28.2878 155.078 28.3803C155.043 28.4728 154.974 28.5481 154.884 28.5904C154.452 28.7738 154.077 29.07 153.799 29.448C153.763 29.5008 153.716 29.5442 153.66 29.5745C153.604 29.6049 153.541 29.6212 153.477 29.6222Z" fill="#EA5143"/>
<path d="M181.237 25.1462C181.237 25.1462 183.676 21.8966 185.492 24.5834C187.307 27.2702 184.741 35.2235 180.299 33.2938L181.237 25.1462Z" fill="#FFC3BD"/>
<path d="M174.664 40.0544V47.9608C174.664 47.9608 172.305 51.981 169.123 52.2558C165.94 52.5305 163.092 48.7917 163.092 48.7917V40.6106L174.664 40.0544Z" fill="#FFC3BD"/>
<path d="M174.664 40.0544V43.5587C172.527 45.9373 168.728 46.7749 163.106 45.944V40.5838L174.664 40.0544Z" fill="#FFC3BD"/>
<path d="M182.999 19.7859C182.877 23.1326 182.534 26.4676 181.974 29.7694C181.827 30.5399 181.666 31.2568 181.478 31.9068C179.817 37.7294 175.656 47.7196 164.004 43.5587C158.858 41.7228 156.473 35.9873 155.414 30.158C154.806 26.5846 154.546 22.9606 154.637 19.3369C154.665 17.9036 155.066 16.5024 155.8 15.2711C156.535 14.0398 157.577 13.021 158.825 12.315C165.699 8.41539 172.956 9.86936 177.733 11.7053C179.349 12.3265 180.729 13.4421 181.674 14.893C182.62 16.3438 183.084 18.0561 182.999 19.7859Z" fill="#FFC3BD"/>
<path d="M163.529 25.642C163.529 26.4796 163.093 27.1697 162.557 27.1697C162.021 27.1697 161.585 26.4997 161.585 25.642C161.585 24.7844 162.021 24.1077 162.557 24.1077C163.093 24.1077 163.529 24.7978 163.529 25.642Z" fill="#18315B"/>
<path d="M175.522 25.642C175.522 26.4796 175.086 27.1697 174.55 27.1697C174.014 27.1697 173.579 26.4997 173.579 25.642C173.579 24.7844 174.014 24.1077 174.55 24.1077C175.086 24.1077 175.522 24.7978 175.522 25.642Z" fill="#18315B"/>
<path d="M160.634 21.1261C161.976 20.722 163.366 20.4967 164.768 20.4561C164.873 20.4556 164.978 20.4781 165.074 20.5222C165.17 20.5663 165.255 20.6308 165.323 20.7113C165.391 20.7917 165.441 20.8861 165.469 20.9879C165.497 21.0896 165.502 21.1963 165.485 21.3003C165.453 21.4717 165.36 21.6257 165.223 21.7341C165.086 21.8424 164.915 21.8978 164.741 21.8899C163.569 21.8363 160.5 21.9971 159.052 22.56C159.052 22.416 159.081 22.2735 159.138 22.1411C159.194 22.0086 159.277 21.889 159.381 21.7894C159.725 21.4511 160.16 21.2205 160.634 21.1261Z" fill="#1C1C45"/>
<path d="M176.326 21.1262C174.974 20.7401 173.577 20.5307 172.171 20.5031C172.067 20.5045 171.964 20.5285 171.87 20.5734C171.776 20.6184 171.692 20.6832 171.625 20.7634C171.559 20.8436 171.51 20.9373 171.483 21.0381C171.456 21.1389 171.45 21.2444 171.468 21.3473C171.499 21.5193 171.591 21.6742 171.728 21.7828C171.865 21.8914 172.037 21.9462 172.212 21.9369C173.377 21.8833 176.453 22.0508 177.9 22.607C177.896 22.315 177.779 22.036 177.572 21.8297C177.232 21.4815 176.8 21.2374 176.326 21.1262Z" fill="#1C1C45"/>
<path d="M168.788 32.6103C168.503 32.6185 168.221 32.5515 167.97 32.416C167.812 32.3189 167.679 32.1845 167.585 32.0245C167.49 31.8645 167.436 31.6838 167.427 31.4981C167.396 29.5323 167.47 27.5663 167.649 25.6085C167.653 25.5591 167.667 25.5111 167.69 25.4672C167.712 25.4232 167.744 25.3843 167.782 25.3525C167.82 25.3207 167.864 25.2968 167.911 25.2821C167.958 25.2674 168.008 25.2622 168.057 25.2668C168.106 25.2701 168.154 25.2833 168.198 25.3054C168.242 25.3276 168.281 25.3583 168.313 25.3957C168.345 25.4332 168.369 25.4767 168.384 25.5236C168.398 25.5704 168.404 25.6198 168.399 25.6688C168.225 27.58 168.149 29.4987 168.171 31.4177C168.171 31.6522 168.285 31.7326 168.359 31.7728C168.861 31.8982 169.391 31.8461 169.86 31.6254C169.952 31.5897 170.055 31.5915 170.146 31.6302C170.238 31.669 170.31 31.7417 170.349 31.8331C170.387 31.9246 170.387 32.0274 170.349 32.1191C170.311 32.2107 170.239 32.2837 170.148 32.3222C169.715 32.4965 169.254 32.594 168.788 32.6103Z" fill="#1C1C45"/>
<path d="M164.017 34.9823C164.305 36.4095 165.243 39.0025 168.426 39.0025C171.609 39.0025 172.507 36.6038 172.815 34.9823H164.017Z" fill="white"/>
<path d="M184.514 19.1161C184.426 19.2909 184.298 19.4426 184.141 19.559C183.984 19.6754 183.802 19.7532 183.609 19.7861C183.618 20.7148 183.573 21.6433 183.475 22.5668C183.006 27.994 181.639 28.9455 181.331 27.6054C181.123 26.7143 181.137 21.5751 181.237 19.9335C180.563 19.8908 179.892 19.808 179.227 19.6856L177.967 14.4125L177.525 19.6186C175.642 20.2886 171.233 19.2233 171.233 19.2233L169.753 14.0305L168.841 19.029C166.007 20.4093 162.469 19.4913 162.469 19.4913L161.659 14.131L159.776 19.4913C159.776 19.4913 153.746 21.6555 153.672 19.4913C153.632 18.2249 154.556 14.6738 155.334 11.9199C155.737 10.4517 156.43 9.07912 157.372 7.88338C158.315 6.68765 159.488 5.69302 160.821 4.95828C168.319 0.938075 176.232 3.07548 178.966 4.69696C184.748 8.18784 184.514 19.1161 184.514 19.1161Z" fill="#1C1C45"/>
<path d="M157.016 8.19421C157.016 8.19421 152.044 14.1106 150.409 24.677C148.774 35.2435 146.503 43.0561 152.875 46.5402C159.763 50.3192 159.166 42.5736 159.066 40.4697C158.965 38.3658 153.103 32.6102 157.016 16.4021C158.282 11.1759 157.016 8.19421 157.016 8.19421Z" fill="#1C1C45"/>
<path d="M183.093 33.4881C183.094 33.6624 183.044 33.8332 182.948 33.9791C182.853 34.125 182.716 34.2393 182.556 34.3078C182.396 34.3764 182.219 34.396 182.047 34.3642C181.876 34.3324 181.718 34.2507 181.592 34.1293C181.467 34.0079 181.381 33.8522 181.344 33.6818C181.307 33.5114 181.321 33.3339 181.385 33.1716C181.449 33.0093 181.559 32.8694 181.702 32.7696C181.845 32.6697 182.014 32.6143 182.188 32.6103C182.306 32.6077 182.422 32.6284 182.531 32.6712C182.641 32.714 182.74 32.7781 182.824 32.8598C182.909 32.9415 182.976 33.0391 183.022 33.147C183.068 33.2548 183.092 33.3708 183.093 33.4881Z" fill="white"/>
<path d="M201.024 99.7679C198.531 106.904 187.368 106.388 174.658 102.488H174.598L174.484 102.455L172.735 101.892C172.494 101.82 172.252 101.74 172.011 101.651C170.635 101.204 169.255 100.71 167.87 100.17C163.303 98.4224 158.829 96.4363 154.47 94.22V94.1463L155.77 90.7962L156.212 89.6504C156.212 89.6504 179.777 92.2166 191.63 89.7375L192.219 89.6102C192.186 89.3467 192.139 89.085 192.079 88.8263C185.801 67.4522 192.668 63.365 194.967 60.3767C194.967 60.3297 205.727 86.3002 201.024 99.7679Z" fill="#0B69B6"/>
<path d="M197.177 93.1545C197.111 93.1887 197.037 93.2071 196.963 93.2081C196.868 93.2074 196.776 93.1808 196.695 93.1311C196.615 93.0815 196.55 93.0108 196.507 92.9267C195.609 91.0841 192.56 89.9919 191.629 89.6904L192.219 89.5631L192.078 88.7792C193.271 89.1745 196.38 90.3739 197.438 92.4845C197.467 92.5453 197.483 92.6114 197.485 92.6787C197.487 92.7459 197.476 92.8129 197.452 92.8756C197.427 92.9383 197.39 92.9953 197.343 93.0433C197.296 93.0912 197.239 93.1291 197.177 93.1545Z" fill="#989EBB"/>
<path d="M164.172 92.2566C159.361 92.2566 155.461 91.9819 155.12 91.9618C155.054 91.957 154.989 91.9392 154.93 91.9094C154.871 91.8797 154.818 91.8386 154.775 91.7886C154.732 91.7385 154.699 91.6804 154.678 91.6175C154.657 91.5547 154.649 91.4884 154.654 91.4224C154.659 91.3564 154.677 91.292 154.706 91.2329C154.736 91.1738 154.777 91.1211 154.827 91.0779C154.877 91.0346 154.935 91.0017 154.998 90.9809C155.061 90.9601 155.127 90.9519 155.193 90.9568C155.368 90.9568 173.043 92.2164 179.985 89.3889C180.107 89.3458 180.241 89.3515 180.359 89.4048C180.477 89.4581 180.57 89.5549 180.618 89.675C180.666 89.7951 180.666 89.9292 180.618 90.0494C180.57 90.1696 180.478 90.2666 180.36 90.3202C176.534 91.8881 169.746 92.2566 164.172 92.2566Z" fill="#989EBB"/>
<path d="M172.735 101.872C176.755 100.759 180.434 99.6807 182.551 98.9972C185.492 98.0592 187.911 95.0842 189.03 92.5582C189.055 92.4959 189.093 92.4394 189.141 92.3924C189.189 92.3453 189.247 92.3087 189.31 92.2848C189.372 92.2609 189.44 92.2503 189.507 92.2535C189.574 92.2567 189.64 92.2738 189.7 92.3036C189.762 92.3298 189.818 92.368 189.864 92.4161C189.911 92.4642 189.948 92.5211 189.972 92.5836C189.996 92.646 190.008 92.7127 190.006 92.7797C190.004 92.8466 189.989 92.9126 189.961 92.9736C188.769 95.7007 186.109 98.9235 182.872 99.9621C181.331 100.458 178.986 101.161 176.279 101.932C175.123 102.267 173.894 102.248 172.748 101.878L172.735 101.872Z" fill="#989EBB"/>
<path d="M183.603 98.4212C147.186 110.683 135.977 102.656 135.977 102.656C133.525 80.4844 142.563 60.5442 142.563 60.5442C145.243 64.9463 148.252 72.6048 148.252 72.6048L149.049 89.5968L148.989 90.0726V90.2937L148.835 91.4595L149.069 91.5131C160.085 93.8382 180.233 91.2384 180.233 91.2384L183.603 98.4212Z" fill="#0B69B6"/>
<path d="M149.042 91.56C147 93.2579 145.155 95.1795 143.541 97.2888C143.46 97.3954 143.341 97.4655 143.208 97.4838C143.075 97.502 142.941 97.4668 142.834 97.3859C142.728 97.3051 142.658 97.1852 142.639 97.0526C142.621 96.9201 142.656 96.7857 142.737 96.679C144.548 94.3161 146.638 92.1811 148.962 90.3204L148.808 91.4863L149.042 91.56Z" fill="#989EBB"/>
<path d="M180.178 91.2852C180.178 91.2852 184.199 82.1258 190.336 82.9432L192.185 89.5632C188.835 90.9903 188.339 96.7392 183.576 98.421L180.178 91.2852Z" fill="#FFC3BD"/>
<path d="M156.211 89.6034C155.308 87.7341 154.015 86.0792 152.421 84.7493C150.826 83.4194 148.966 82.445 146.965 81.8913C140.265 80.1559 135.99 83.3118 135.541 84.5044C135.092 85.6971 138.074 84.558 138.074 84.558C136.813 84.975 135.735 85.8124 135.018 86.93C133.906 88.7525 137.698 86.7826 137.698 86.7826C137.698 86.7826 134.958 87.9819 134.61 89.0942C134.261 90.2064 137.879 88.3303 138.556 88.3638C138.556 88.3638 135.333 89.6503 135.353 90.7961C135.373 91.9418 139.059 90.0724 141.806 90.2198C144.17 90.4475 146.512 90.8688 148.808 91.4795C150.9 91.9065 153.021 92.1864 155.153 92.317L156.211 89.6034Z" fill="#FFC3BD"/>
<path d="M301.924 186.189H36.6241C33.8006 186.189 31.5117 188.478 31.5117 191.301V191.79C31.5117 194.614 33.8006 196.903 36.6241 196.903H301.924C304.747 196.903 307.036 194.614 307.036 191.79V191.301C307.036 188.478 304.747 186.189 301.924 186.189Z" fill="#0B69B6"/>
<path d="M307.036 191.315V191.562H31.5117V191.315C31.5117 189.959 32.0503 188.658 33.0091 187.7C33.9678 186.741 35.2682 186.202 36.6241 186.202H301.957C303.307 186.213 304.598 186.756 305.549 187.713C306.5 188.671 307.034 189.965 307.036 191.315Z" fill="#575E8D"/>
<path d="M209.874 119.286H126.529C124.538 119.286 122.924 120.9 122.924 122.891V166.496C122.924 168.487 124.538 170.101 126.529 170.101H209.874C211.865 170.101 213.479 168.487 213.479 166.496V122.891C213.479 120.9 211.865 119.286 209.874 119.286Z" fill="#989EBB"/>
<path d="M175.214 170.048H161.19V186.035H175.214V170.048Z" fill="#000B29"/>
<path d="M168.044 152.278C171.889 152.278 175.006 149.161 175.006 145.317C175.006 141.472 171.889 138.355 168.044 138.355C164.2 138.355 161.083 141.472 161.083 145.317C161.083 149.161 164.2 152.278 168.044 152.278Z" fill="#575E8D"/>
<path d="M154.342 181.42H181.612C182.794 181.42 183.927 181.89 184.763 182.725C185.599 183.561 186.068 184.694 186.068 185.876V187.096H149.886V185.876C149.886 185.291 150.001 184.712 150.225 184.171C150.449 183.63 150.778 183.139 151.191 182.725C151.605 182.312 152.096 181.983 152.637 181.76C153.177 181.536 153.757 181.42 154.342 181.42Z" fill="#18315B"/>
</svg>
