<svg width="24" height="24" viewBox="0 0 24 24" fill="none" xmlns="http://www.w3.org/2000/svg">
<path d="M16.19 2L7.81 2C4.17 2 2 4.17 2 7.81L2 16.18C2 19.83 4.17 22 7.81 22L16.18 22C19.82 22 21.99 19.83 21.99 16.19L21.99 7.81C22 4.17 19.83 2 16.19 2ZM16 12.75L12.75 12.75L12.75 16C12.75 16.41 12.41 16.75 12 16.75C11.59 16.75 11.25 16.41 11.25 16L11.25 12.75L8 12.75C7.59 12.75 7.25 12.41 7.25 12C7.25 11.59 7.59 11.25 8 11.25L11.25 11.25L11.25 8C11.25 7.59 11.59 7.25 12 7.25C12.41 7.25 12.75 7.59 12.75 8L12.75 11.25L16 11.25C16.41 11.25 16.75 11.59 16.75 12C16.75 12.41 16.41 12.75 16 12.75Z" fill="#012552"/>
</svg>
