<svg width="369" height="167" viewBox="0 0 369 167" fill="none" xmlns="http://www.w3.org/2000/svg">
<g opacity="0.2">
<path d="M214.565 8.23413C196.054 16.213 177.722 24.6802 159.478 33.4248C141.245 42.1916 123.135 51.3024 105.157 60.7461C87.1908 70.2343 69.4131 80.1885 51.8018 90.5422C34.2571 101.04 16.9343 112.071 0 123.9L1.74227 127.119C18.488 115.167 35.6443 103.981 53.0558 93.3165C70.5339 82.7852 88.2007 72.6535 106.056 62.9767C123.934 53.3332 141.944 44.0337 160.088 35.0672C178.232 26.1228 196.498 17.4559 214.909 9.27727L235.616 0.45499V0L214.576 8.24522L214.565 8.23413Z" fill="#263238"/>
<path d="M200.959 16.0022L201.281 16.8123C201.537 17.467 202.213 17.7556 202.779 17.4559C203.345 17.1563 203.601 16.3906 203.345 15.7359L203.024 14.9258C202.768 14.271 202.091 13.9825 201.525 14.2821C200.959 14.5818 200.704 15.3475 200.959 16.0022Z" fill="#263238"/>
<path d="M147.504 42.003L147.826 42.8132C148.081 43.4679 148.758 43.7564 149.324 43.4568C149.89 43.1572 150.145 42.3915 149.89 41.7367L149.568 40.9266C149.313 40.2719 148.636 39.9834 148.07 40.283C147.504 40.5826 147.249 41.3483 147.504 42.003Z" fill="#263238"/>
<path d="M91.3188 71.344L91.6406 72.1541C91.8959 72.8088 92.5728 73.0974 93.1388 72.7977C93.7047 72.4981 93.9599 71.7324 93.7047 71.0777L93.3829 70.2676C93.1277 69.6128 92.4507 69.3243 91.8848 69.6239C91.3188 69.9236 91.0636 70.6893 91.3188 71.344Z" fill="#263238"/>
<path d="M35.7327 98.0884L39.5168 107.687C39.7166 108.209 40.2714 108.409 40.7042 108.12L52.8224 100.086C53.1997 99.8418 53.3439 99.298 53.1664 98.8541L49.3822 89.255C49.1825 88.7334 48.6276 88.5337 48.1948 88.8222L36.0767 96.8566C35.6994 97.1007 35.5551 97.6445 35.7327 98.0884Z" fill="#263238"/>
<path d="M43.3013 109.33C43.0904 109.252 42.9239 109.074 42.8352 108.853L40.4271 102.738C40.2606 102.316 40.3938 101.828 40.7489 101.595L48.4615 96.4792C48.6501 96.3571 48.8832 96.3238 49.0829 96.4015C49.2938 96.4791 49.4602 96.6567 49.549 96.8787L51.9571 102.993C52.1235 103.415 51.9904 103.903 51.6353 104.136L43.9227 109.252C43.7895 109.341 43.6342 109.385 43.4788 109.374C43.4122 109.374 43.3567 109.352 43.3013 109.33ZM48.6945 96.9563L40.9819 102.072C40.8488 102.161 40.7933 102.35 40.8599 102.505L43.268 108.62C43.3013 108.708 43.3678 108.775 43.4455 108.797C43.5232 108.83 43.612 108.819 43.6786 108.764L51.3911 103.648C51.5243 103.559 51.5687 103.371 51.5132 103.215L49.1051 97.1006C49.0718 97.0118 49.0052 96.9452 48.9275 96.923C48.9054 96.923 48.8832 96.9119 48.861 96.9119C48.8055 96.9119 48.75 96.9119 48.6945 96.9563Z" fill="#263238"/>
<path d="M36.654 95.2807L36.9647 96.0686C37.0646 96.3128 37.2977 96.4016 37.4974 96.2684L45.676 90.8197C45.8758 90.6865 45.9646 90.3869 45.8647 90.1427L45.554 89.3548C45.4541 89.1107 45.2211 89.033 45.0213 89.1551L36.8427 94.6038C36.6429 94.737 36.5541 95.0366 36.654 95.2807Z" fill="#263238"/>
<path d="M49.1053 97.1117C102.361 67.7929 155.794 38.5739 211.125 13.3277C219.492 9.65456 227.926 6.05906 236.748 3.49561C231.621 11.7297 226.472 19.9528 221.767 28.4088C216.107 39.162 201.059 65.074 222.177 67.5265C229.036 68.2478 235.938 66.9384 242.63 65.4514C256.179 62.3774 269.074 57.1728 282.113 52.4898C291.047 50.0595 300.579 49.2827 309.734 50.9029C332.761 55.2308 333.671 76.6595 328.555 95.5137C337.034 62.5772 322.774 46.3531 289.027 51.6242C284.422 52.2568 280.105 53.7438 275.821 55.5194C269.352 58.0273 262.815 60.4021 256.201 62.5106C243.373 66.3169 207.496 78.0356 210.503 53.7105C211.935 44.4221 216.44 36.0659 220.801 27.8984C225.285 19.7863 230.256 11.9628 235.161 4.12815L235.727 4.89387C219.203 10.043 203.512 17.7999 187.843 25.1352C140.924 47.8068 94.9479 72.4093 49.0942 97.145L49.1053 97.1117Z" fill="#263238"/>
<path d="M274.695 141.831L339.585 164.968C340.071 165.142 340.606 164.887 340.78 164.4L363.977 99.3423C364.151 98.855 363.897 98.3195 363.411 98.1462L298.521 75.0092C298.035 74.8358 297.5 75.0904 297.327 75.5777L274.13 140.635C273.956 141.123 274.209 141.658 274.695 141.831Z" fill="#1DB6FF"/>
<path d="M281.537 144.385L343.977 166.648C344.463 166.822 344.998 166.567 345.172 166.08L368.369 101.022C368.543 100.535 368.289 99.9993 367.803 99.826L305.363 77.5623C304.877 77.389 304.342 77.6435 304.168 78.1308L280.971 143.188C280.798 143.676 281.051 144.211 281.537 144.385Z" fill="#0756A4"/>
<path d="M292.116 117.726C292.345 117.083 292.69 116.659 293.151 116.452C293.611 116.246 294.169 116.26 294.826 116.494C295.483 116.728 295.889 117.063 296.117 117.523C296.344 117.983 296.345 118.527 296.122 119.154C295.898 119.781 295.561 120.172 295.086 120.395C294.611 120.618 294.061 120.617 293.436 120.394C292.81 120.171 292.36 119.819 292.13 119.354C291.9 118.889 291.895 118.345 292.116 117.726Z" fill="white"/>
<path d="M304.406 124.215C300.424 122.795 299.215 119.894 300.777 115.512C301.554 113.332 302.69 111.859 304.183 111.095C305.677 110.33 307.434 110.308 309.456 111.029C310.936 111.557 312.16 112.32 313.127 113.32L311.132 115.661C310.662 115.244 310.215 114.879 309.792 114.57C309.37 114.26 308.922 114.02 308.449 113.852C306.633 113.204 305.264 114.173 304.342 116.758C303.421 119.343 303.908 120.844 305.725 121.492C306.396 121.731 307.05 121.864 307.686 121.888C308.323 121.912 308.994 121.835 309.703 121.657L308.636 124.651C307.942 124.809 307.284 124.855 306.659 124.786C306.034 124.719 305.283 124.528 304.406 124.216L304.406 124.215Z" fill="white"/>
<path d="M325.848 124.348C325.103 126.436 323.972 127.873 322.454 128.66C320.935 129.446 319.196 129.489 317.236 128.79C316.007 128.352 315.02 127.697 314.274 126.822C313.529 125.948 313.083 124.917 312.94 123.728C312.797 122.539 312.965 121.271 313.445 119.926C314.192 117.83 315.318 116.395 316.825 115.622C318.33 114.848 320.07 114.813 322.046 115.518C323.275 115.956 324.262 116.61 325.009 117.48C325.756 118.35 326.204 119.376 326.35 120.557C326.495 121.739 326.329 123.002 325.849 124.348L325.848 124.348ZM317.002 121.194C316.55 122.464 316.415 123.497 316.6 124.296C316.784 125.094 317.345 125.66 318.283 125.994C319.221 126.329 319.997 126.242 320.637 125.742C321.276 125.241 321.823 124.352 322.278 123.075C322.734 121.798 322.864 120.78 322.679 119.998C322.493 119.216 321.931 118.659 320.993 118.324C320.055 117.99 319.278 118.069 318.642 118.553C318.005 119.037 317.459 119.917 317.003 121.194L317.002 121.194Z" fill="white"/>
<path d="M338.477 136.105L334.988 134.86L337.659 127.368C337.989 126.443 338.081 125.694 337.938 125.121C337.794 124.548 337.39 124.143 336.726 123.906C335.834 123.588 335.068 123.686 334.429 124.2C333.79 124.713 333.202 125.723 332.665 127.23L330.513 133.265L327.023 132.02L331.596 119.195L334.262 120.145L334.146 121.953L334.341 122.023C334.894 121.556 335.554 121.272 336.321 121.171C337.088 121.069 337.892 121.169 338.731 121.468C340.646 122.151 341.719 123.241 341.951 124.737L342.26 124.847C342.816 124.373 343.487 124.091 344.271 124C345.056 123.91 345.868 124.014 346.707 124.313C348.156 124.83 349.121 125.594 349.598 126.605C350.076 127.615 350.022 128.943 349.435 130.588L346.453 138.952L342.952 137.703L345.623 130.211C345.953 129.286 346.046 128.537 345.902 127.963C345.759 127.391 345.354 126.986 344.691 126.75C343.837 126.445 343.089 126.524 342.448 126.984C341.806 127.445 341.248 128.34 340.774 129.671L338.479 136.107L338.477 136.105Z" fill="white"/>
</g>
</svg>
