<svg width="25" height="24" viewBox="0 0 25 24" fill="none" xmlns="http://www.w3.org/2000/svg">
<path d="M22.5 4.85005L22.5 16.7401C22.5 17.7101 21.71 18.6001 20.74 18.7201L20.43 18.7601C18.79 18.9801 16.48 19.6601 14.62 20.4401C13.97 20.7101 13.25 20.2201 13.25 19.5101L13.25 5.60005C13.25 5.23005 13.46 4.89005 13.79 4.71005C15.62 3.72005 18.39 2.84005 20.27 2.68005L20.33 2.68005C21.53 2.68005 22.5 3.65005 22.5 4.85005Z" fill="#012552"/>
<path d="M11.21 4.71005C9.37999 3.72005 6.60999 2.84005 4.72999 2.68005L4.65999 2.68005C3.45999 2.68005 2.48999 3.65005 2.48999 4.85005L2.48999 16.7401C2.48999 17.7101 3.27999 18.6001 4.24999 18.7201L4.55999 18.7601C6.19999 18.9801 8.50999 19.6601 10.37 20.4401C11.02 20.7101 11.74 20.2201 11.74 19.5101L11.74 5.60005C11.74 5.22005 11.54 4.89005 11.21 4.71005ZM5.49999 7.74005L7.74999 7.74005C8.15999 7.74005 8.49999 8.08005 8.49999 8.49005C8.49999 8.91005 8.15999 9.24005 7.74999 9.24005L5.49999 9.24005C5.08999 9.24005 4.74999 8.91005 4.74999 8.49005C4.74999 8.08005 5.08999 7.74005 5.49999 7.74005ZM8.49999 12.2401L5.49999 12.2401C5.08999 12.2401 4.74999 11.9101 4.74999 11.4901C4.74999 11.0801 5.08999 10.7401 5.49999 10.7401L8.49999 10.7401C8.90999 10.7401 9.24999 11.0801 9.24999 11.4901C9.24999 11.9101 8.90999 12.2401 8.49999 12.2401Z" fill="#012552"/>
</svg>
