<svg width="21" height="16" viewBox="0 0 21 16" fill="none" xmlns="http://www.w3.org/2000/svg">
<path d="M5.9 16C5.15 16 4.4875 15.7208 3.9125 15.1625C3.3375 14.6042 3.025 13.925 2.975 13.125C2.35833 12.7417 1.87917 12.2542 1.5375 11.6625C1.19583 11.0708 1.025 10.425 1.025 9.725C1.025 8.85833 1.27917 8.07917 1.7875 7.3875C2.29583 6.69583 2.96667 6.25833 3.8 6.075L1.775 3.95L1.3 4.45C1.15 4.61667 0.970833 4.7 0.7625 4.7C0.554167 4.7 0.375 4.61667 0.225 4.45C0.075 4.3 0 4.125 0 3.925C0 3.725 0.075 3.54167 0.225 3.375L2.25 1.275C2.4 1.125 2.57917 1.05 2.7875 1.05C2.99583 1.05 3.175 1.125 3.325 1.275C3.475 1.44167 3.55 1.625 3.55 1.825C3.55 2.025 3.475 2.2 3.325 2.35L2.85 2.875L4.65 4.8L5.625 1.875C5.80833 1.325 6.12917 0.875 6.5875 0.525C7.04583 0.175 7.55833 0 8.125 0H13.925C14.4917 0 15.0083 0.175 15.475 0.525C15.9417 0.875 16.2583 1.325 16.425 1.875L17.675 6.025C18.625 6.10833 19.4167 6.49583 20.05 7.1875C20.6833 7.87917 21 8.725 21 9.725C21 10.425 20.8292 11.0708 20.4875 11.6625C20.1458 12.2542 19.6667 12.7417 19.05 13.125C19 13.925 18.6875 14.6042 18.1125 15.1625C17.5375 15.7208 16.875 16 16.125 16C15.425 16 14.8125 15.7583 14.2875 15.275C13.7625 14.7917 13.4333 14.2 13.3 13.5H8.725C8.59167 14.2 8.2625 14.7917 7.7375 15.275C7.2125 15.7583 6.6 16 5.9 16ZM5.85 5.975H10.225V1.5H8.125C7.875 1.5 7.65833 1.57917 7.475 1.7375C7.29167 1.89583 7.15833 2.09167 7.075 2.325L5.85 5.975ZM11.725 5.975H16.1L14.975 2.325C14.8917 2.09167 14.7583 1.89583 14.575 1.7375C14.3917 1.57917 14.175 1.5 13.925 1.5H11.725V5.975ZM5.9 14.5C6.33333 14.5 6.69167 14.3583 6.975 14.075C7.25833 13.7917 7.4 13.4333 7.4 13C7.4 12.5667 7.25833 12.2083 6.975 11.925C6.69167 11.6417 6.33333 11.5 5.9 11.5C5.46667 11.5 5.10833 11.6417 4.825 11.925C4.54167 12.2083 4.4 12.5667 4.4 13C4.4 13.4333 4.54167 13.7917 4.825 14.075C5.10833 14.3583 5.46667 14.5 5.9 14.5ZM16.125 14.5C16.5583 14.5 16.9167 14.3583 17.2 14.075C17.4833 13.7917 17.625 13.4333 17.625 13C17.625 12.5667 17.4833 12.2083 17.2 11.925C16.9167 11.6417 16.5583 11.5 16.125 11.5C15.6917 11.5 15.3333 11.6417 15.05 11.925C14.7667 12.2083 14.625 12.5667 14.625 13C14.625 13.4333 14.7667 13.7917 15.05 14.075C15.3333 14.3583 15.6917 14.5 16.125 14.5Z" fill="#575E8D"/>
</svg>
