<svg width="70" height="70" viewBox="0 0 70 70" fill="none" xmlns="http://www.w3.org/2000/svg">
<path d="M35 0C15.715 0 0 15.715 0 35C0 54.285 15.715 70 35 70C54.285 70 70 54.285 70 35C70 15.715 54.285 0 35 0ZM51.73 26.95L31.885 46.795C31.395 47.285 30.73 47.565 30.03 47.565C29.33 47.565 28.665 47.285 28.175 46.795L18.27 36.89C17.255 35.875 17.255 34.195 18.27 33.18C19.285 32.165 20.965 32.165 21.98 33.18L30.03 41.23L48.02 23.24C49.035 22.225 50.715 22.225 51.73 23.24C52.745 24.255 52.745 25.9 51.73 26.95Z" fill="#009262"/>
</svg>
