<svg width="24" height="25" viewBox="0 0 24 25" fill="none" xmlns="http://www.w3.org/2000/svg">
<path d="M16.65 6.21997H7.35C4.4 6.21997 2 8.61997 2 11.57V17.15C2 20.1 4.4 22.5 7.35 22.5H16.65C19.6 22.5 22 20.1 22 17.15V11.57C22 8.61997 19.6 6.21997 16.65 6.21997ZM14.5 12.52C14.5 11.97 14.95 11.52 15.5 11.52C16.05 11.52 16.5 11.97 16.5 12.52C16.5 13.07 16.05 13.53 15.5 13.53C14.95 13.53 14.5 13.09 14.5 12.54V12.52ZM10.13 16.57C9.98 16.72 9.79 16.79 9.6 16.79C9.41 16.79 9.22 16.72 9.07 16.57L8.04 15.54L7.05 16.53C6.9 16.68 6.71 16.75 6.52 16.75C6.33 16.75 6.14 16.68 5.99 16.53C5.7 16.24 5.7 15.76 5.99 15.47L6.98 14.48L6.02 13.52C5.73 13.23 5.73 12.75 6.02 12.46C6.31 12.17 6.79 12.17 7.08 12.46L8.04 13.42L9.03 12.43C9.32 12.14 9.8 12.14 10.09 12.43C10.38 12.72 10.38 13.2 10.09 13.49L9.1 14.48L10.13 15.51C10.42 15.8 10.42 16.28 10.13 16.57ZM13.54 15.5C12.99 15.5 12.53 15.05 12.53 14.5C12.53 13.95 12.97 13.5 13.52 13.5H13.54C14.09 13.5 14.54 13.95 14.54 14.5C14.54 15.05 14.1 15.5 13.54 15.5ZM15.5 17.47C14.95 17.47 14.5 17.03 14.5 16.48V16.46C14.5 15.91 14.95 15.46 15.5 15.46C16.05 15.46 16.5 15.91 16.5 16.46C16.5 17.01 16.06 17.47 15.5 17.47ZM17.48 15.5C16.93 15.5 16.47 15.05 16.47 14.5C16.47 13.95 16.91 13.5 17.46 13.5H17.48C18.03 13.5 18.48 13.95 18.48 14.5C18.48 15.05 18.04 15.5 17.48 15.5Z" fill="#575E8D"/>
<path d="M13.64 3.21L13.63 4.15C13.62 5.03 12.89 5.76 12 5.76C11.85 5.76 11.76 5.86 11.76 5.99C11.76 6.12 11.86 6.22 11.99 6.22H10.38C10.37 6.15 10.36 6.07 10.36 5.99C10.36 5.09 11.09 4.36 11.98 4.36C12.13 4.36 12.23 4.26 12.23 4.13L12.24 3.19C12.25 2.81 12.56 2.5 12.94 2.5H12.95C13.34 2.5 13.64 2.82 13.64 3.21Z" fill="#575E8D"/>
</svg>
