<svg width="375" height="341" viewBox="0 0 375 341" fill="none" xmlns="http://www.w3.org/2000/svg">
<rect width="375" height="341" fill="#FFC43C"/>
<mask id="mask0_154_1640" style="mask-type:alpha" maskUnits="userSpaceOnUse" x="0" y="0" width="375" height="325">
<rect width="375" height="325" fill="#D9D9D9"/>
</mask>
<g mask="url(#mask0_154_1640)">
<g opacity="0.2">
<path d="M183.5 240L173 -4H206L195.5 240H183.5Z" fill="url(#paint0_linear_154_1640)"/>
<path d="M209 237L282.652 -13L313.844 -2.22745L220.343 240.917L209 237Z" fill="url(#paint1_linear_154_1640)"/>
<path d="M250 241.5L383.877 20L411.287 38.3769L259.967 248.182L250 241.5Z" fill="url(#paint2_linear_154_1640)"/>
<path d="M285.72 265.506L443.396 79L467.658 101.369L294.542 273.64L285.72 265.506Z" fill="url(#paint3_linear_154_1640)"/>
<path d="M166.658 237L93.0059 -13L61.8137 -2.22745L155.315 240.917L166.658 237Z" fill="url(#paint4_linear_154_1640)"/>
<path d="M125.657 241.5L-8.21997 20L-35.6297 38.3769L115.69 248.182L125.657 241.5Z" fill="url(#paint5_linear_154_1640)"/>
<path d="M89.9378 265.506L-67.7385 79L-92.0001 101.369L81.1154 273.64L89.9378 265.506Z" fill="url(#paint6_linear_154_1640)"/>
</g>
</g>
<path d="M307.029 106.396C307.029 106.396 307.834 94.9362 309.979 93.1441C312.113 91.3521 325.206 87 325.206 87C325.206 87 320.025 104.664 316.879 106.712C313.734 108.748 307.029 106.396 307.029 106.396Z" fill="#0756A4"/>
<path opacity="0.6" d="M325.206 87.0121C325.047 87.5607 319.976 104.725 316.879 106.725C314.807 107.627 312.576 107.822 310.43 107.273C309.285 107.066 308.151 106.786 307.029 106.408C307.029 106.408 307.858 94.924 309.979 93.1563C312.101 91.3886 323.999 87.4022 325.133 87.0365L325.206 87.0121Z" fill="#575E8D"/>
<path d="M300.361 99.52C303.324 99.52 310.089 103.592 312.32 103.799C314.551 104.006 325.62 94.3998 327.998 92.8151C330.375 91.2303 351.245 87.6949 351.245 87.6949C351.245 87.6949 337.397 105.542 327.998 106.066C327.998 106.066 334.959 108.517 336.982 107.858C343.419 106.188 344.662 105.518 351.233 105.591L343.687 110.735L355 112.479C349.77 113.649 344.431 113.905 339.14 113.222C335.105 115.088 330.948 116.538 326.718 117.55C320.83 119.452 314.588 117.843 309.76 113.174C305.701 109.029 292.303 104.335 292.303 104.335L296.875 102.299C297.533 100.629 298.886 99.5566 300.361 99.5078V99.52Z" fill="#407BFF"/>
<path opacity="0.8" d="M300.361 99.52C303.324 99.52 310.089 103.592 312.32 103.799C314.551 104.006 325.62 94.3998 327.998 92.8151C330.375 91.2303 351.245 87.6949 351.245 87.6949C351.245 87.6949 337.397 105.542 327.998 106.066C327.998 106.066 334.959 108.517 336.982 107.858C343.419 106.188 344.662 105.518 351.233 105.591L343.687 110.735L355 112.479C349.77 113.649 344.431 113.905 339.14 113.222C335.105 115.088 330.948 116.538 326.718 117.55C320.83 119.452 314.588 117.843 309.76 113.174C305.701 109.029 292.303 104.335 292.303 104.335L296.875 102.299C297.533 100.629 298.886 99.5566 300.361 99.5078V99.52Z" fill="#1C1C45"/>
<path d="M296.789 102.373L298.081 103.543L297.313 106.396L292.315 104.335L296.789 102.373Z" fill="#CDDDED"/>
<path d="M301.337 104.994C301.936 104.994 302.422 104.382 302.422 103.628C302.422 102.874 301.936 102.263 301.337 102.263C300.737 102.263 300.252 102.874 300.252 103.628C300.252 104.382 300.737 104.994 301.337 104.994Z" fill="#CDDDED"/>
<path d="M259.741 141.334C261.898 139.53 270.785 152.33 274.991 153.927C272.005 155.305 268.762 155.354 265.751 154.086C261.118 151.904 257.473 143.224 259.741 141.334Z" fill="#0756A4"/>
<path opacity="0.6" d="M274.991 153.927C272.005 155.293 268.762 155.354 265.751 154.11C261.118 151.928 257.473 143.224 259.741 141.334C260.253 140.883 261.13 141.334 262.252 142.151C265.848 144.955 271.785 152.696 274.991 153.927Z" fill="white"/>
<path d="M252.745 138.872C254.927 138.214 260.364 140.237 262.022 140.006C263.692 139.774 273.798 138.847 273.798 138.847C276.59 138.421 278.589 138.311 280.832 137.787C285.379 135.288 289.89 134.215 294.73 133.057L285.843 139.567L294.303 138.908C290.585 140.81 286.672 142.017 282.71 142.48C279.942 144.662 277.041 146.564 274.054 148.149C269.934 150.746 265.155 150.648 261.108 147.881C257.658 145.418 247.271 144.236 247.271 144.236L250.416 141.798C250.709 140.31 251.623 139.177 252.757 138.884L252.745 138.872Z" fill="#0756A4"/>
<path opacity="0.8" d="M252.745 138.872C254.927 138.214 260.364 140.237 262.022 140.006C263.692 139.774 273.798 138.847 273.798 138.847C276.59 138.421 278.589 138.311 280.832 137.787C285.379 135.288 289.89 134.215 294.73 133.057L285.843 139.567L294.303 138.908C290.585 140.81 286.672 142.017 282.71 142.48C279.942 144.662 277.041 146.564 274.054 148.149C269.934 150.746 265.155 150.648 261.108 147.881C257.658 145.418 247.271 144.236 247.271 144.236L250.416 141.798C250.709 140.31 251.623 139.177 252.757 138.884L252.745 138.872Z" fill="white"/>
<path d="M250.342 141.785L251.427 142.444L251.171 144.796L247.209 144.223L250.342 141.785Z" fill="#1C1C45"/>
<path opacity="0.3" d="M282.367 142.809C280.258 144.418 278.076 145.857 275.833 147.137C275.309 147.478 274.736 147.795 274.126 148.137C272.029 149.344 271.639 149.831 269.359 149.831C267.823 148.832 265.239 146.345 264.471 144.223C264.471 144.223 265.08 141.785 268.238 140.261C270.274 139.286 277.564 141.285 282.367 142.809Z" fill="black"/>
<path d="M264.471 140.103C268.396 137.323 291.035 149.417 300.336 149.965C294.107 152.574 287.56 153.61 281.05 153.037C270.591 151.965 260.29 143.017 264.471 140.103Z" fill="#0756A4"/>
<path d="M254.17 142.09C254.17 142.687 253.78 143.175 253.304 143.175C252.829 143.175 252.439 142.687 252.439 142.09C252.439 141.493 252.829 141.005 253.304 141.005C253.78 141.005 254.17 141.493 254.17 142.09Z" fill="#1C1C45"/>
<path opacity="0.8" d="M264.471 140.103C268.396 137.323 291.035 149.417 300.336 149.965C294.107 152.574 287.56 153.61 281.05 153.037C270.591 151.965 260.29 143.017 264.471 140.103Z" fill="white"/>
<defs>
<linearGradient id="paint0_linear_154_1640" x1="189.5" y1="-4" x2="189.5" y2="240" gradientUnits="userSpaceOnUse">
<stop stop-color="white"/>
<stop offset="1" stop-color="white" stop-opacity="0"/>
</linearGradient>
<linearGradient id="paint1_linear_154_1640" x1="298.248" y1="-7.61373" x2="213.26" y2="238.471" gradientUnits="userSpaceOnUse">
<stop stop-color="white"/>
<stop offset="1" stop-color="white" stop-opacity="0"/>
</linearGradient>
<linearGradient id="paint2_linear_154_1640" x1="397.582" y1="29.1884" x2="253.613" y2="243.923" gradientUnits="userSpaceOnUse">
<stop stop-color="white"/>
<stop offset="1" stop-color="white" stop-opacity="0"/>
</linearGradient>
<linearGradient id="paint3_linear_154_1640" x1="455.527" y1="90.1846" x2="290.131" y2="269.573" gradientUnits="userSpaceOnUse">
<stop stop-color="white"/>
<stop offset="1" stop-color="white" stop-opacity="0"/>
</linearGradient>
<linearGradient id="paint4_linear_154_1640" x1="77.4098" y1="-7.61373" x2="162.398" y2="238.471" gradientUnits="userSpaceOnUse">
<stop stop-color="white"/>
<stop offset="1" stop-color="white" stop-opacity="0"/>
</linearGradient>
<linearGradient id="paint5_linear_154_1640" x1="-21.9248" y1="29.1884" x2="122.044" y2="243.923" gradientUnits="userSpaceOnUse">
<stop stop-color="white"/>
<stop offset="1" stop-color="white" stop-opacity="0"/>
</linearGradient>
<linearGradient id="paint6_linear_154_1640" x1="-79.8693" y1="90.1846" x2="85.5266" y2="269.573" gradientUnits="userSpaceOnUse">
<stop stop-color="white"/>
<stop offset="1" stop-color="white" stop-opacity="0"/>
</linearGradient>
</defs>
</svg>
