<svg width="346" height="289" viewBox="0 0 346 289" fill="none" xmlns="http://www.w3.org/2000/svg">
<rect x="3" width="335" height="289" rx="21" fill="#1C1C45"/>
<mask id="mask0_116_5492" style="mask-type:alpha" maskUnits="userSpaceOnUse" x="3" y="0" width="335" height="289">
<rect x="3" width="335" height="289" rx="21" fill="white"/>
</mask>
<g mask="url(#mask0_116_5492)">
<path d="M358 181.039H10.8689V181.213H358V181.039Z" fill="#E0E0E0"/>
<path d="M166.301 187.42H129.137V187.593H166.301V187.42Z" fill="#E0E0E0"/>
<path d="M83.7527 195.751H58.5857V195.924H83.7527V195.751Z" fill="#E0E0E0"/>
<path d="M303.528 187.329H273.543V187.503H303.528V187.329Z" fill="#E0E0E0"/>
<path d="M314.109 187.329H309.714V187.503H314.109V187.329Z" fill="#E0E0E0"/>
<path d="M267.815 191.655H230.402V191.828H267.815V191.655Z" fill="#E0E0E0"/>
<path opacity="0.1" d="M-28.9917 181.008C-28.9917 181.008 35.2116 127.4 86.2243 133.017C137.237 138.634 188.993 166.913 202.588 165.328C216.191 163.75 237.504 151.095 270.316 157.423C303.127 163.75 348.056 180.967 346.026 181.167C343.995 181.367 -29 181.008 -29 181.008H-28.9917Z" fill="#F5F7FA"/>
<path opacity="0.05" d="M121.874 262.837C161.579 262.837 193.765 259.67 193.765 255.763C193.765 251.856 161.579 248.688 121.874 248.688C82.1703 248.688 49.9836 251.856 49.9836 255.763C49.9836 259.67 82.1703 262.837 121.874 262.837Z" fill="#F5F7FA"/>
<path d="M352.501 181.213H187.746C154.13 196.556 258.672 211.052 235.754 218.28C213.059 225.438 183.199 235.359 217.697 241.774C259.942 249.633 299.932 237.226 276.306 256.166C252.68 275.105 352.494 268.648 352.494 268.648V181.206L352.501 181.213Z" fill="#407BFF"/>
<g opacity="0.8">
<path d="M352.501 181.213H187.746C154.13 196.556 258.672 211.052 235.754 218.28C213.059 225.438 183.199 235.359 217.697 241.774C259.942 249.633 299.932 237.226 276.306 256.166C252.68 275.105 352.494 268.648 352.494 268.648V181.206L352.501 181.213Z" fill="#989EBB"/>
</g>
<g opacity="0.2">
<path d="M200.118 181.122C201.742 190.196 228.027 195.001 237.17 198.465C246.314 201.93 256.283 203.235 265.337 206.887C268.745 208.261 272.501 210.788 272.071 214.232C271.599 217.981 266.697 219.46 262.712 220.154C258.727 220.848 253.84 222.514 253.604 226.284C256.762 235.476 284.304 231.352 299.647 233.886C302.896 234.421 306.256 235.004 308.957 236.768C311.658 238.531 313.491 241.85 312.345 244.731C310.783 248.681 304.444 250.597 304.854 254.791C305.18 258.144 309.589 259.498 313.164 259.97C326.723 261.768 338.824 262.629 352.487 261.865V181.206L200.104 181.116L200.118 181.122Z" fill="#E1F5FF"/>
</g>
<g opacity="0.2">
<path d="M325.821 232.741C315.775 231.422 317.74 228.374 317.74 228.374C317.545 223.396 327.57 222.889 327.848 218.515C327.938 217.106 327.341 215.745 326.383 214.746C324.349 212.635 321.461 212.225 318.719 211.795C309.388 210.316 300.203 207.872 291.344 204.505C290.247 204.089 289.303 203.269 288.851 202.166C287.671 199.305 290.24 197.424 292.482 196.32C298.245 193.494 304.424 191.571 310.742 190.634C299.772 191.106 282.062 196.813 281.985 201.18C281.916 205.22 285.991 207.845 289.608 209.407C295.537 211.969 301.688 213.975 307.965 215.398C309.068 215.648 313.102 216.315 316.129 217.217C317.677 217.675 317.969 219.786 316.608 220.675C314.234 222.223 311.38 224.951 311.651 229.013C311.651 229.013 312.241 237.316 334.492 233.9C334.367 233.9 333.395 233.748 325.835 232.755L325.821 232.741Z" fill="white"/>
</g>
<path d="M115.696 139.932C115.696 139.932 125.166 139.488 125.686 138.627C126.207 137.766 125.603 135.628 126.853 134.878C128.103 134.128 133.941 131.052 134.344 130.927C134.754 130.803 135.351 133.212 134.233 133.829C134.233 133.829 136.475 134.711 135.691 136.266C135.691 136.266 137.454 137.093 136.538 138.516C136.538 138.516 137.524 139.439 136.586 140.967C136.586 140.967 137.149 142.556 135.767 143.653C134.386 144.75 128.963 145.972 127.964 145.854C126.964 145.736 116.904 147.951 116.904 147.951L115.696 139.932Z" fill="#ED847E"/>
<path d="M78.9001 134.156C78.9001 134.156 89.3279 163.828 103.484 158.184C116.966 152.811 128.179 147.673 128.179 147.673L124.756 136.759L100.075 142.785C100.075 142.785 93.9517 126.845 89.5362 123.763C80.4413 117.431 76.4424 131.337 78.907 134.156H78.9001Z" fill="#0756A4"/>
<path opacity="0.3" d="M78.9001 134.156C78.9001 134.156 89.3279 163.828 103.484 158.184C116.966 152.811 128.179 147.673 128.179 147.673L124.756 136.759L100.075 142.785C100.075 142.785 93.9517 126.845 89.5362 123.763C80.4413 117.431 76.4424 131.337 78.907 134.156H78.9001Z" fill="black"/>
<path d="M76.4004 120.708C80.2327 117.035 79.469 107.066 78.4485 101.921L90.5217 111.224C90.2787 111.828 90.0774 112.446 89.9177 113.078C89.5914 114.21 89.5636 115.397 89.8344 116.542C90.0982 117.487 91.3131 120.076 91.3131 120.076C91.3131 120.076 92.0629 123.013 84.2317 123.325C80.809 123.832 76.4073 120.708 76.4073 120.708H76.4004Z" fill="#FFC3BD"/>
<path opacity="0.2" d="M80.8085 107.08C80.4683 113.175 86.7098 115.758 89.8339 116.549C89.5632 115.404 89.5979 114.21 89.9172 113.085L80.8085 107.08Z" fill="black"/>
<path d="M76.2127 97.5056C78.0455 104.58 78.9342 108.607 83.3636 111.544C90.0285 115.966 98.311 111.099 98.6929 103.608C99.0331 96.86 95.9853 86.4252 88.2165 85.002C80.5657 83.5996 74.3798 90.4311 76.2127 97.5056Z" fill="#FFC3BD"/>
<path d="M73.1231 87.8832C73.3939 83.4677 84.2591 81.3779 87.7096 82.9678C88.2234 83.2038 82.3915 87.5569 82.7526 87.3416L79.913 88.9315C79.427 88.9176 78.6078 89.6188 78.4065 91.1184C78.4065 91.1184 81.01 102.782 78.2468 106.816C75.2476 106.031 74.1923 101.414 72.7899 98.8039C70.7071 94.923 67.9856 89.1745 73.1162 87.8832H73.1231Z" fill="#0756A4"/>
<path d="M74.4492 104.018C75.3934 105.753 77.0804 106.885 78.6772 107.316C81.0794 107.961 81.4473 105.476 80.8086 103.261C80.2324 101.269 79.1424 98.9081 76.7194 99.2344C74.3311 99.5607 73.373 102.039 74.4561 104.018H74.4492Z" fill="#FFC3BD"/>
<path d="M86.9041 97.2903C87.0429 98.0263 87.5567 98.54 88.0496 98.4428C88.5425 98.3456 88.8272 97.6722 88.6883 96.9432C88.5495 96.2073 88.0357 95.6935 87.5428 95.7907C87.0499 95.8879 86.7652 96.5614 86.9041 97.2903Z" fill="#263238"/>
<path d="M94.5203 96.381C94.6591 97.1169 95.1729 97.6306 95.6658 97.5334C96.1587 97.4362 96.4434 96.7628 96.3045 96.0338C96.1657 95.3049 95.6519 94.7842 95.159 94.8814C94.6661 94.9786 94.3814 95.652 94.5203 96.381Z" fill="#263238"/>
<path d="M92.0969 96.3949C92.0969 96.3949 95.1864 99.5885 96.2347 100.928C95.36 102.046 93.4716 101.963 93.4716 101.963L92.0969 96.4018V96.3949Z" fill="#ED847E"/>
<path d="M84.6475 94.4925C84.7725 94.5134 84.9044 94.4786 84.9947 94.3745C86.0569 93.1943 87.369 93.354 87.3829 93.354C87.5773 93.3817 87.7648 93.2429 87.7925 93.0554C87.8203 92.868 87.6884 92.6875 87.4871 92.6666C87.4176 92.6597 85.7722 92.4653 84.4531 93.9232C84.3212 94.069 84.3351 94.2912 84.4809 94.4162C84.5295 94.4578 84.5851 94.4856 84.6406 94.4925H84.6475Z" fill="#263238"/>
<path opacity="0.2" d="M75.7542 101.727C75.9694 101.241 76.5456 100.97 77.0802 100.998C77.6217 101.026 78.1146 101.303 78.5104 101.657C78.9825 102.088 79.3365 102.636 79.5309 103.24" stroke="black" stroke-width="0.5" stroke-linecap="round" stroke-linejoin="round"/>
<path d="M97.2489 92.6459C97.3114 92.6181 97.3669 92.5765 97.4086 92.514C97.5197 92.3543 97.478 92.1321 97.3114 92.028C95.666 90.9588 94.1525 91.5976 94.0761 91.6184C93.8956 91.6948 93.8123 91.903 93.8887 92.0766C93.965 92.2502 94.1733 92.3335 94.3538 92.2571C94.4163 92.2293 95.5896 91.7503 96.9087 92.6042C97.0128 92.6737 97.1378 92.6806 97.242 92.632L97.2489 92.6459Z" fill="#263238"/>
<path d="M93.34 104.428C92.7707 105.261 92.257 106.128 91.8126 107.031C91.646 106.982 91.4725 106.934 91.3058 106.871C89.0078 106.142 88.1747 105.052 87.9664 104.053C87.8692 103.56 87.897 103.06 88.0289 102.581C88.0983 102.31 88.2094 102.046 88.3483 101.803C89.3341 102.921 91.4239 103.761 92.5555 104.164C93.0554 104.316 93.3331 104.428 93.3331 104.428H93.34Z" fill="#263238"/>
<path d="M92.5902 104.15L92.1181 104.907C89.9589 104.219 88.5287 103.449 88.0566 102.567C88.1261 102.296 88.2371 102.032 88.376 101.789C89.3688 102.914 91.4516 103.747 92.5832 104.15H92.5902Z" fill="white"/>
<path d="M91.3338 106.857C89.0358 106.128 88.2027 105.038 87.9944 104.039C88.8622 104.33 89.6745 104.775 90.3896 105.351C90.8547 105.74 91.188 106.267 91.3338 106.857Z" fill="#C15854"/>
<path d="M76.6223 86.6613C76.6223 86.6613 79.9548 75.7475 89.9452 76.0044C89.0427 76.3793 88.2234 76.9208 87.5292 77.6081C87.5292 77.6081 95.7909 75.331 99.4913 80.7462L97.7071 80.1075C97.7071 80.1075 100.741 84.5924 98.8318 88.272L98.0681 86.7377C98.0681 86.7377 95.416 91.6253 90.0563 91.3684L91.66 90.1326C91.66 90.1326 82.7735 91.4865 80.2186 89.6536C78.9134 88.7927 77.7054 87.793 76.6223 86.6613Z" fill="#0756A4"/>
<path d="M155.998 249.376L162.316 249.334L158.504 234.734L152.187 234.775L155.998 249.376Z" fill="#FFC3BD"/>
<path d="M162.691 247.647L155.602 247.821C155.345 247.821 155.151 248.008 155.144 248.265L154.936 253.881C154.915 254.465 155.47 254.999 156.067 254.978C158.532 254.874 159.712 254.701 162.829 254.624C164.746 254.576 171.258 254.624 173.91 254.555C176.499 254.492 176.423 251.875 175.291 251.66C170.23 250.716 165.606 249.362 163.787 248.008C163.461 247.765 163.065 247.64 162.691 247.647Z" fill="#263238"/>
<path opacity="0.2" d="M152.187 234.782L158.504 234.741L160.462 242.266L154.151 242.301L152.187 234.782Z" fill="black"/>
<path d="M103.581 173.868C103.581 173.868 151.068 168.578 154.283 181.991C158.608 200.021 162.635 242.149 162.635 242.149L152.11 244.1C152.11 244.1 139.974 207.845 138.343 192.745C128.796 195.89 90.5218 201.548 86.6131 190.968C83.4195 182.31 85.5023 174.194 85.5023 174.194L103.581 173.875V173.868Z" fill="#575E8D"/>
<path d="M150.569 245.529L163.732 243.162L162.906 237.24L148.757 240.211L150.569 245.529Z" fill="#0756A4"/>
<path d="M166.134 248.327C166.329 248.126 166.384 247.855 166.301 247.522C166.252 247.321 166.127 247.182 165.947 247.112C165.169 246.828 163.413 248.091 163.211 248.237C163.163 248.272 163.142 248.327 163.156 248.39C163.17 248.445 163.211 248.494 163.267 248.501C163.725 248.598 164.371 248.702 164.954 248.688C165.44 248.675 165.884 248.577 166.127 248.327H166.134ZM165.843 247.39C165.933 247.425 165.981 247.487 166.009 247.591C166.065 247.821 166.037 247.994 165.919 248.119C165.634 248.418 164.801 248.473 163.67 248.279C164.392 247.793 165.426 247.237 165.85 247.39H165.843Z" fill="#407BFF"/>
<path d="M163.378 248.487C163.996 248.098 164.905 246.758 164.746 246.071C164.683 245.821 164.496 245.668 164.204 245.64C163.961 245.62 163.753 245.689 163.586 245.863C162.961 246.494 163.149 248.306 163.156 248.383C163.156 248.431 163.19 248.48 163.239 248.501C163.26 248.515 163.281 248.515 163.308 248.515C163.336 248.515 163.357 248.508 163.385 248.494L163.378 248.487ZM164.169 245.932C164.384 245.953 164.433 246.057 164.454 246.14C164.558 246.592 163.961 247.605 163.419 248.084C163.385 247.487 163.419 246.446 163.787 246.071C163.878 245.981 163.975 245.939 164.1 245.932C164.121 245.932 164.142 245.932 164.169 245.932Z" fill="#407BFF"/>
<path opacity="0.3" d="M175.291 251.66C171.084 250.875 167.182 249.806 164.94 248.688C164.94 248.688 164.947 248.688 164.954 248.688C165.44 248.674 165.884 248.577 166.127 248.327C166.321 248.126 166.377 247.855 166.294 247.522C166.245 247.321 166.12 247.182 165.939 247.112C165.516 246.96 164.801 247.265 164.204 247.598C164.565 247.071 164.836 246.46 164.738 246.064C164.676 245.814 164.488 245.661 164.197 245.633C163.954 245.613 163.746 245.682 163.579 245.856C163.19 246.244 163.121 247.091 163.121 247.695C162.982 247.661 162.836 247.64 162.69 247.64L161.878 247.661L160.837 243.676L163.732 243.155L162.906 237.233L162.163 237.386C160.976 225.861 157.719 196.306 154.283 181.977C151.068 168.57 103.581 173.854 103.581 173.854L85.5023 174.173C85.5023 174.173 83.4195 182.289 86.6131 190.946C90.5149 201.527 128.796 195.869 138.343 192.724C139.634 204.644 147.465 229.735 150.707 239.781L148.757 240.19L150.569 245.509L154.797 244.752L155.595 247.807C155.338 247.813 155.151 248.001 155.144 248.251L154.935 253.867C154.915 254.451 155.47 254.985 156.067 254.964C158.532 254.86 159.712 254.687 162.829 254.61C164.745 254.562 171.258 254.61 173.91 254.541C176.499 254.478 176.423 251.861 175.291 251.646V251.66ZM165.842 247.397C165.933 247.432 165.981 247.494 166.009 247.598C166.064 247.827 166.037 248.001 165.919 248.126C165.69 248.362 165.127 248.445 164.35 248.376C164.197 248.286 164.058 248.202 163.933 248.112C164.62 247.682 165.474 247.265 165.842 247.397ZM163.787 246.071C163.878 245.981 163.975 245.939 164.1 245.932C164.121 245.932 164.141 245.932 164.169 245.932C164.384 245.953 164.433 246.057 164.454 246.14C164.551 246.536 164.086 247.376 163.607 247.897C163.544 247.862 163.475 247.827 163.412 247.8C163.405 247.196 163.468 246.39 163.787 246.071Z" fill="#1C1C45"/>
<path d="M86.0717 201.034H142.238V196.091H86.0717V201.034Z" fill="#407BFF"/>
<path opacity="0.3" d="M86.0717 201.034H142.238V196.091H86.0717V201.034Z" fill="black"/>
<path opacity="0.2" d="M86.0718 201.034H99.7834V196.091H86.0718V201.034Z" fill="black"/>
<path d="M132.678 252.326H137.954L95.6318 201.034H90.3623L132.678 252.326Z" fill="#263238"/>
<path opacity="0.4" d="M132.678 252.326H137.954L95.6318 201.034H90.3623L132.678 252.326Z" fill="white"/>
<path d="M95.6318 252.326H90.3623L132.678 201.034H137.954L95.6318 252.326Z" fill="#263238"/>
<path opacity="0.6" d="M95.6318 252.326H90.3623L132.678 201.034H137.954L95.6318 252.326Z" fill="white"/>
<path d="M164.843 249.376L171.154 249.334L167.342 234.734L161.031 234.775L164.843 249.376Z" fill="#FFC3BD"/>
<path d="M171.528 247.647L164.44 247.821C164.183 247.821 163.989 248.008 163.982 248.265L163.774 253.881C163.753 254.465 164.308 254.999 164.905 254.978C167.37 254.874 168.55 254.701 171.667 254.624C173.583 254.576 180.096 254.624 182.748 254.555C185.337 254.492 185.254 251.875 184.129 251.66C179.068 250.716 174.444 249.362 172.625 248.008C172.299 247.765 171.903 247.64 171.528 247.647Z" fill="#0756A4"/>
<path opacity="0.2" d="M161.031 234.782L167.342 234.741L169.307 242.266L162.989 242.301L161.031 234.782Z" fill="black"/>
<path d="M112.426 173.868C112.426 173.868 159.913 168.577 163.128 181.991C167.453 200.021 171.48 242.148 171.48 242.148L160.955 244.099C160.955 244.099 148.819 207.845 147.188 192.745C137.641 195.89 99.3668 201.548 95.4581 190.967C92.2645 182.31 94.3473 174.194 94.3473 174.194L112.426 173.875V173.868Z" fill="#575E8D"/>
<path d="M159.407 245.529L172.57 243.162L171.744 237.24L157.594 240.211L159.407 245.529Z" fill="#0756A4"/>
<path d="M174.972 248.327C175.166 248.126 175.222 247.855 175.139 247.522C175.09 247.321 174.965 247.182 174.785 247.112C174.007 246.828 172.251 248.091 172.049 248.237C172.001 248.272 171.98 248.327 171.994 248.39C172.008 248.445 172.049 248.494 172.105 248.501C172.563 248.598 173.209 248.702 173.792 248.688C174.278 248.675 174.722 248.577 174.965 248.327H174.972ZM174.681 247.39C174.771 247.425 174.819 247.487 174.847 247.591C174.903 247.821 174.875 247.994 174.757 248.119C174.472 248.418 173.639 248.473 172.507 248.279C173.23 247.793 174.264 247.237 174.687 247.39H174.681Z" fill="#0756A4"/>
<path d="M172.216 248.487C172.834 248.098 173.743 246.758 173.583 246.071C173.521 245.821 173.333 245.668 173.042 245.64C172.799 245.62 172.591 245.689 172.424 245.863C171.799 246.494 171.987 248.306 171.994 248.383C171.994 248.431 172.028 248.48 172.077 248.501C172.098 248.515 172.119 248.515 172.146 248.515C172.174 248.515 172.195 248.508 172.223 248.494L172.216 248.487ZM173.007 245.932C173.222 245.953 173.271 246.057 173.292 246.14C173.396 246.592 172.799 247.605 172.257 248.084C172.223 247.487 172.257 246.446 172.625 246.071C172.716 245.981 172.813 245.939 172.938 245.932C172.959 245.932 172.979 245.932 173.007 245.932Z" fill="#0756A4"/>
<path d="M114.154 227.645C114.687 227.645 115.12 227.213 115.12 226.68C115.12 226.147 114.687 225.715 114.154 225.715C113.622 225.715 113.189 226.147 113.189 226.68C113.189 227.213 113.622 227.645 114.154 227.645Z" fill="#263238"/>
<path d="M242.503 81.3087C230.922 86.3004 219.453 91.5976 208.04 97.0684C196.633 102.553 185.302 108.253 174.055 114.161C162.815 120.097 151.693 126.325 140.675 132.802C129.699 139.37 118.862 146.271 108.267 153.672L109.357 155.685C119.834 148.208 130.567 141.21 141.46 134.538C152.394 127.949 163.447 121.611 174.618 115.557C185.802 109.523 197.07 103.706 208.421 98.0959C219.773 92.5002 231.2 87.078 242.718 81.9613L255.673 76.4419V76.1572L242.51 81.3156L242.503 81.3087Z" fill="#A5A5A5"/>
<path d="M233.991 86.1684L234.192 86.6752C234.352 87.0848 234.775 87.2653 235.129 87.0779C235.483 86.8904 235.643 86.4114 235.483 86.0018L235.282 85.495C235.122 85.0853 234.699 84.9048 234.345 85.0923C233.991 85.2797 233.831 85.7588 233.991 86.1684Z" fill="#A5A5A5"/>
<path d="M200.549 102.435L200.75 102.942C200.91 103.351 201.333 103.532 201.687 103.344C202.041 103.157 202.201 102.678 202.041 102.268L201.84 101.762C201.68 101.352 201.257 101.171 200.903 101.359C200.549 101.546 200.389 102.025 200.549 102.435Z" fill="#A5A5A5"/>
<path d="M165.398 120.791L165.599 121.298C165.759 121.708 166.182 121.888 166.537 121.701C166.891 121.513 167.05 121.034 166.891 120.625L166.689 120.118C166.53 119.708 166.106 119.528 165.752 119.715C165.398 119.903 165.238 120.382 165.398 120.791Z" fill="#A5A5A5"/>
<path d="M130.622 137.523L132.99 143.528C133.115 143.855 133.462 143.98 133.732 143.799L141.314 138.773C141.55 138.62 141.64 138.28 141.529 138.002L139.162 131.997C139.037 131.67 138.689 131.545 138.419 131.726L130.837 136.752C130.601 136.905 130.511 137.245 130.622 137.523Z" fill="#A5A5A5"/>
<path d="M135.357 144.556C135.225 144.507 135.121 144.396 135.065 144.257L133.559 140.432C133.455 140.168 133.538 139.863 133.76 139.717L138.585 136.516C138.703 136.44 138.849 136.419 138.974 136.468C139.106 136.516 139.21 136.627 139.266 136.766L140.772 140.592C140.876 140.855 140.793 141.161 140.571 141.307L135.746 144.507C135.663 144.563 135.565 144.591 135.468 144.584C135.426 144.584 135.392 144.57 135.357 144.556ZM138.731 136.815L133.906 140.015C133.823 140.071 133.788 140.189 133.83 140.286L135.336 144.112C135.357 144.167 135.399 144.209 135.447 144.223C135.496 144.243 135.551 144.237 135.593 144.202L140.418 141.001C140.502 140.946 140.529 140.828 140.495 140.731L138.988 136.905C138.967 136.85 138.926 136.808 138.877 136.794C138.863 136.794 138.849 136.787 138.835 136.787C138.801 136.787 138.766 136.787 138.731 136.815Z" fill="#A5A5A5"/>
<path d="M131.199 135.767L131.393 136.259C131.456 136.412 131.601 136.468 131.726 136.384L136.843 132.976C136.968 132.892 137.023 132.705 136.961 132.552L136.767 132.059C136.704 131.906 136.558 131.858 136.433 131.934L131.317 135.343C131.192 135.426 131.136 135.614 131.199 135.767Z" fill="#A5A5A5"/>
<path d="M138.988 136.912C172.306 118.57 205.734 100.29 240.35 84.4952C245.585 82.1972 250.861 79.9478 256.381 78.3441C253.173 83.4955 249.952 88.64 247.008 93.9302C243.467 100.658 234.053 116.869 247.265 118.403C251.556 118.854 255.874 118.035 260.06 117.105C268.537 115.182 276.605 111.926 284.762 108.996C290.351 107.475 296.315 106.989 302.042 108.003C316.448 110.711 317.018 124.117 313.817 135.912C319.121 115.307 310.2 105.156 289.087 108.454C286.206 108.85 283.505 109.78 280.826 110.891C276.778 112.46 272.689 113.946 268.551 115.265C260.525 117.646 238.08 124.978 239.961 109.759C240.857 103.948 243.676 98.7207 246.404 93.6109C249.209 88.5358 252.319 83.6413 255.388 78.7398L255.742 79.2188C245.404 82.4402 235.588 87.2931 225.785 91.8822C196.431 106.066 167.668 121.458 138.981 136.933L138.988 136.912Z" fill="#A5A5A5"/>
<path d="M71.8878 130.157C71.8878 130.157 75.9701 163.37 77.3517 172.479C78.9415 182.969 84.1554 228.103 84.1554 228.103C84.1554 228.103 121.076 228.589 123.992 226.888C126.908 225.187 122.048 206.727 119.618 196.771C117.188 186.816 114.758 170.535 114.758 170.535C114.758 170.535 110.086 145.174 103.15 134.031C97.8185 125.464 90.7093 115.883 90.7093 115.883L65.6742 108.544C65.6742 108.544 49.0744 128.907 71.8878 130.157Z" fill="#0756A4"/>
<g opacity="0.7">
<path opacity="0.48" d="M85.3426 159.462C85.287 161.253 85.1482 163.169 85.8771 164.835C86.5506 166.342 88.1751 167.71 89.89 167.224C90.3204 167.133 90.8133 166.953 91.4035 167.071C91.9936 167.168 92.6045 167.737 92.4726 168.397C92.3407 169.043 91.9033 169.362 91.6048 169.688C89.9941 171.306 88.925 173.389 88.432 175.617C88.5778 173.285 89.5845 171 91.1605 169.272C91.4729 168.932 91.7853 168.598 91.8131 168.307C91.7784 167.508 90.6884 167.696 90.0358 167.897C88.0224 168.452 86.016 166.87 85.3703 165.03C84.7177 163.211 84.9815 161.288 85.3217 159.462H85.3426Z" fill="white"/>
</g>
<g opacity="0.7">
<path opacity="0.48" d="M94.6042 205.498C93.4518 206.581 92.1327 207.762 91.8341 209.365C91.4662 210.92 92.3826 212.58 94.0627 212.656C95.4026 212.781 97.4993 212.309 98.867 212.142C101.29 211.774 106.178 211.087 108.614 210.775C109.364 210.698 110.343 210.483 111.121 210.525C112.058 210.525 113.162 211.365 112.863 212.427C112.606 213.267 111.697 213.774 111.142 214.336L109.295 215.968C108.448 216.634 107.288 217.96 108.469 218.835C108.767 219.071 109.274 219.154 109.552 218.814C108.941 219.557 107.719 218.689 107.788 217.842C107.816 216.96 108.489 216.287 109.066 215.711L110.843 214.01C111.412 213.364 113.065 212.371 112.037 211.469C111.1 210.747 109.836 211.316 108.712 211.393L103.845 212.108L98.9711 212.76C97.4993 212.913 95.4998 213.378 94.0072 213.177C92.091 213.024 91.001 211.045 91.5148 209.289C91.9452 207.616 93.3268 206.498 94.6181 205.491L94.6042 205.498Z" fill="white"/>
</g>
<path opacity="0.3" d="M80.4897 137.384C80.4897 137.384 91.3202 166.89 104.178 167.543C104.879 167.578 113.78 165.8 113.78 165.8L111.336 155.685L104.032 151.776C104.032 151.776 94.1806 133.392 90.494 129.47C82.9058 121.388 78.6638 134.128 80.4897 137.398V137.384Z" fill="black"/>
<path opacity="0.3" d="M71.8881 130.157C71.8881 130.157 71.1939 120.007 81.0316 116.584C81.0316 116.584 69.6873 116.584 68.2363 129.726L71.8951 130.15L71.8881 130.157Z" fill="black"/>
<path opacity="0.3" d="M88.6546 177.45C88.6546 177.45 89.2725 196.015 92.9244 197.264C96.5762 198.514 112.843 198.514 112.843 195.39C112.843 192.266 110.128 176.617 110.128 176.617L88.6477 177.45H88.6546Z" fill="black"/>
<path opacity="0.3" d="M88.6541 177.45C88.6541 177.45 88.8832 183.261 91.5561 184.754C94.1943 186.226 103.379 185.517 107.92 185.059C109.364 184.913 110.447 183.664 110.384 182.213L110.135 176.617L88.6541 177.45Z" fill="black"/>
<path d="M122.86 147.215C122.86 147.215 132.33 146.77 132.851 145.91C133.371 145.049 132.767 142.91 134.017 142.161C135.267 141.411 141.106 138.335 141.508 138.21C141.918 138.085 142.515 140.494 141.397 141.112C141.397 141.112 143.64 141.994 142.855 143.549C142.855 143.549 144.619 144.375 143.702 145.798C143.702 145.798 144.688 146.722 143.751 148.249C143.751 148.249 144.313 149.839 142.931 150.936C141.55 152.033 136.128 153.255 135.128 153.137C134.128 153.019 124.068 155.233 124.068 155.233L122.86 147.215Z" fill="#FFC3BD"/>
<path d="M77.9415 131.026C77.9415 131.026 89.1608 163.732 104.178 161.143C118.479 158.678 130.511 155.971 130.511 155.971L129.421 144.585L104.025 145.369C104.025 145.369 94.1733 126.985 90.4868 123.063C82.8985 114.981 76.1086 127.763 77.9345 131.026H77.9415Z" fill="#0756A4"/>
<path d="M77.9417 131.025C81.6491 140.703 87.6197 153.935 96.7006 159.476C99.1653 160.94 102.144 161.544 104.955 160.85C107.802 160.343 110.641 159.816 113.481 159.267C119.16 158.163 124.825 156.997 130.463 155.733L130.282 155.983L129.72 150.29L129.185 144.598L129.435 144.82L104.039 145.514C103.921 145.514 103.949 145.535 103.893 145.431C102.06 142.015 100.193 138.62 98.2627 135.253C96.3257 131.893 94.3749 128.539 92.181 125.346C90.5981 123.041 88.4459 120.52 85.4328 120.465C82.4336 120.465 80.1564 122.971 78.8373 125.45C78.0389 127.116 77.1711 129.192 77.9347 131.011L77.9417 131.025ZM77.9417 131.025C77.1641 129.213 78.025 127.123 78.8095 125.45C80.448 122.02 84.4608 118.861 88.2307 121.166C89.9455 122.131 91.2021 123.693 92.3129 125.276C94.5346 128.463 96.5063 131.809 98.471 135.156C100.422 138.509 102.317 141.89 104.171 145.299L104.025 145.215L129.421 144.348H129.65L129.671 144.57L130.227 150.263L130.754 155.956L130.775 156.164C125.054 157.407 119.313 158.552 113.557 159.628C110.711 160.156 107.864 160.67 105.018 161.156C102.164 161.836 99.075 161.197 96.5896 159.691C87.4878 154.046 81.6213 140.793 77.9486 131.032L77.9417 131.025Z" fill="#263238"/>
<path opacity="0.3" d="M104.032 145.368C104.032 145.368 101.026 147.486 102.484 151.367L105.878 145.368H104.032Z" fill="black"/>
<g opacity="0.6">
<path opacity="0.48" d="M88.5014 130.018C87.099 131.531 85.3703 133.253 85.3911 135.433C85.412 136.447 85.7869 137.509 86.5575 138.092C87.3143 138.717 88.3904 138.62 89.4665 138.481C91.0286 138.12 93.9097 138.884 93.2363 141.112C93.0489 141.709 92.6878 142.154 92.431 142.605C91.3549 144.452 91.2577 146.812 92.1116 148.784C90.9591 146.868 90.9314 144.341 91.9589 142.348C92.9239 140.8 93.1947 139.599 91.0772 139.141C89.4942 138.932 87.5642 139.807 86.1548 138.606C85.1968 137.815 84.808 136.572 84.8566 135.426C84.9746 133.066 86.8213 131.406 88.5014 130.018Z" fill="white"/>
<path d="M94.0415 152.443C94.5136 152.158 94.8468 152.318 94.8954 152.873C94.4233 153.165 94.097 152.998 94.0415 152.443Z" fill="white"/>
</g>
<path d="M280.189 164.905L325.556 181.081C325.896 181.202 326.27 181.024 326.391 180.684L342.609 135.199C342.731 134.859 342.554 134.484 342.214 134.363L296.847 118.187C296.507 118.066 296.133 118.244 296.011 118.585L279.794 164.069C279.672 164.41 279.849 164.784 280.189 164.905Z" fill="#1DB6FF"/>
<path d="M284.972 166.69L328.626 182.256C328.966 182.377 329.34 182.199 329.462 181.858L345.679 136.374C345.801 136.033 345.624 135.659 345.284 135.538L301.63 119.972C301.29 119.851 300.916 120.029 300.794 120.37L284.576 165.854C284.455 166.195 284.632 166.569 284.972 166.69Z" fill="#0756A4"/>
<path d="M292.369 148.052C292.529 147.603 292.77 147.306 293.092 147.162C293.414 147.017 293.804 147.027 294.263 147.191C294.723 147.354 295.007 147.588 295.166 147.91C295.325 148.232 295.326 148.612 295.169 149.05C295.013 149.489 294.777 149.762 294.445 149.918C294.113 150.074 293.729 150.074 293.291 149.918C292.854 149.762 292.539 149.515 292.378 149.19C292.217 148.865 292.214 148.485 292.369 148.052Z" fill="white"/>
<path d="M300.961 152.589C298.177 151.596 297.331 149.568 298.424 146.504C298.967 144.98 299.761 143.95 300.805 143.416C301.849 142.881 303.078 142.866 304.492 143.37C305.526 143.739 306.382 144.273 307.058 144.972L305.663 146.608C305.334 146.317 305.022 146.062 304.727 145.846C304.431 145.629 304.118 145.461 303.787 145.343C302.517 144.891 301.561 145.568 300.916 147.376C300.272 149.183 300.613 150.232 301.883 150.685C302.352 150.852 302.809 150.945 303.254 150.962C303.699 150.979 304.169 150.925 304.664 150.8L303.918 152.894C303.433 153.004 302.973 153.036 302.536 152.988C302.099 152.941 301.574 152.808 300.96 152.589L300.961 152.589Z" fill="white"/>
<path d="M315.951 152.682C315.431 154.142 314.64 155.146 313.579 155.696C312.517 156.246 311.301 156.276 309.93 155.787C309.071 155.481 308.381 155.023 307.86 154.412C307.339 153.801 307.027 153.08 306.927 152.248C306.827 151.417 306.945 150.531 307.28 149.59C307.803 148.125 308.59 147.122 309.643 146.581C310.695 146.04 311.912 146.016 313.293 146.508C314.152 146.815 314.843 147.272 315.365 147.88C315.887 148.488 316.2 149.205 316.302 150.032C316.404 150.858 316.288 151.741 315.952 152.682L315.951 152.682ZM309.767 150.477C309.451 151.364 309.357 152.087 309.486 152.645C309.614 153.203 310.007 153.599 310.662 153.833C311.318 154.067 311.861 154.006 312.308 153.656C312.755 153.306 313.137 152.685 313.456 151.792C313.774 150.899 313.866 150.187 313.736 149.641C313.606 149.094 313.213 148.704 312.557 148.47C311.901 148.237 311.358 148.292 310.914 148.63C310.468 148.968 310.086 149.584 309.768 150.477L309.767 150.477Z" fill="white"/>
<path d="M324.782 160.901L322.342 160.031L324.209 154.793C324.44 154.147 324.505 153.623 324.404 153.222C324.303 152.821 324.021 152.538 323.557 152.373C322.933 152.151 322.398 152.219 321.951 152.578C321.504 152.937 321.093 153.643 320.718 154.697L319.213 158.916L316.773 158.046L319.971 149.079L321.835 149.743L321.753 151.008L321.889 151.056C322.277 150.73 322.738 150.531 323.274 150.461C323.81 150.389 324.372 150.459 324.959 150.668C326.298 151.146 327.048 151.908 327.21 152.954L327.426 153.031C327.815 152.699 328.284 152.502 328.832 152.439C329.381 152.375 329.949 152.448 330.535 152.657C331.548 153.019 332.223 153.553 332.556 154.259C332.89 154.966 332.853 155.894 332.443 157.044L330.358 162.892L327.91 162.019L329.777 156.781C330.008 156.134 330.073 155.611 329.973 155.21C329.872 154.809 329.589 154.526 329.126 154.361C328.529 154.148 328.006 154.203 327.557 154.525C327.109 154.847 326.719 155.473 326.387 156.403L324.782 160.903L324.782 160.901Z" fill="white"/>
<g clip-path="url(#clip0_116_5492)">
<path d="M37.8356 257.037H68.5685C68.8098 257.037 69.0054 256.841 69.0054 256.599V225.78C69.0054 225.538 68.8098 225.341 68.5685 225.341H37.8356C37.5944 225.341 37.3988 225.538 37.3988 225.78V256.599C37.3988 256.841 37.5944 257.037 37.8356 257.037Z" fill="#FFDC44"/>
<path d="M41.0966 257.085H70.6679C70.9092 257.085 71.1047 256.889 71.1047 256.647V225.828C71.1047 225.586 70.9092 225.39 70.6679 225.39H41.0966C40.8554 225.39 40.6598 225.586 40.6598 225.828V256.647C40.6598 256.889 40.8554 257.085 41.0966 257.085Z" fill="#FFC43C"/>
<path d="M44.6451 246.735C44.6451 246.433 44.7257 246.205 44.8868 246.051C45.0475 245.897 45.2817 245.82 45.5899 245.82C45.8981 245.82 46.1168 245.899 46.2793 246.057C46.4419 246.214 46.5234 246.44 46.5234 246.735C46.5234 247.029 46.441 247.241 46.2765 247.405C46.1121 247.568 45.883 247.65 45.5894 247.65C45.2959 247.65 45.0565 247.57 44.892 247.41C44.7275 247.25 44.6451 247.025 44.6451 246.735Z" fill="white"/>
<path d="M53.7367 244.485C53.7367 245.465 53.4794 246.231 52.9639 246.783C52.4488 247.336 51.7311 247.612 50.8117 247.612C50.2359 247.612 49.7279 247.486 49.2878 247.233C48.8476 246.98 48.5097 246.617 48.2736 246.143C48.0375 245.67 47.9197 245.117 47.9197 244.486C47.9197 243.503 48.1752 242.739 48.6869 242.193C49.1987 241.648 49.9178 241.375 50.8443 241.375C51.4201 241.375 51.9281 241.501 52.3683 241.752C52.8084 242.003 53.1463 242.363 53.3824 242.834C53.6185 243.304 53.7363 243.854 53.7363 244.486L53.7367 244.485ZM49.5889 244.485C49.5889 245.081 49.6864 245.531 49.881 245.836C50.0761 246.141 50.3937 246.293 50.8334 246.293C51.2731 246.293 51.5836 246.142 51.7754 245.839C51.9668 245.536 52.0624 245.085 52.0624 244.485C52.0624 243.886 51.9658 243.443 51.7726 243.145C51.5794 242.847 51.2627 242.699 50.8231 242.699C50.3834 242.699 50.0714 242.846 49.8787 243.143C49.6855 243.439 49.5889 243.886 49.5889 244.485Z" fill="white"/>
<path d="M58.7121 241.375C58.9341 241.375 59.1178 241.391 59.2649 241.423L59.1414 242.962C59.009 242.926 58.8478 242.908 58.6584 242.908C58.1362 242.908 57.7291 243.043 57.4374 243.312C57.1457 243.581 57.0001 243.958 57.0001 244.442V247.504H55.3635V241.487H56.6028L56.8441 242.499H56.9247C57.1108 242.162 57.362 241.89 57.6787 241.684C57.9953 241.478 58.3394 241.374 58.7116 241.374L58.7121 241.375Z" fill="white"/>
<path d="M65.8509 241.488V242.322L64.9117 242.564C65.0833 242.833 65.1695 243.134 65.1695 243.468C65.1695 244.114 64.9447 244.617 64.4961 244.977C64.047 245.338 63.4236 245.518 62.6257 245.518L62.3303 245.502L62.089 245.475C61.9208 245.604 61.8369 245.748 61.8369 245.905C61.8369 246.142 62.1371 246.261 62.7384 246.261H63.7581C64.4165 246.261 64.9179 246.403 65.2633 246.686C65.6087 246.97 65.7812 247.385 65.7812 247.935C65.7812 248.638 65.4885 249.183 64.9037 249.571C64.3189 249.958 63.4792 250.152 62.384 250.152C61.5471 250.152 60.9076 250.006 60.4656 249.713C60.0236 249.421 59.8026 249.011 59.8026 248.484C59.8026 248.121 59.9152 247.818 60.1409 247.574C60.3662 247.33 60.697 247.156 61.1338 247.052C60.9656 246.98 60.819 246.863 60.6937 246.699C60.5683 246.536 60.5061 246.363 60.5061 246.18C60.5061 245.95 60.5721 245.759 60.7045 245.607C60.8369 245.454 61.0282 245.305 61.2789 245.157C60.9642 245.021 60.7144 244.802 60.5301 244.501C60.3459 244.199 60.254 243.844 60.254 243.435C60.254 242.779 60.4665 242.271 60.8925 241.912C61.3181 241.553 61.9264 241.374 62.7172 241.374C62.8854 241.374 63.0847 241.389 63.3156 241.42C63.5461 241.45 63.6941 241.473 63.7581 241.487H65.8509V241.488ZM61.2196 248.355C61.2196 248.581 61.328 248.758 61.5443 248.887C61.7606 249.016 62.064 249.081 62.4538 249.081C63.0404 249.081 63.4999 249 63.8331 248.839C64.1658 248.677 64.3321 248.457 64.3321 248.177C64.3321 247.951 64.2336 247.795 64.0371 247.709C63.8401 247.623 63.5362 247.58 63.1248 247.58H62.277C61.9769 247.58 61.7252 247.651 61.5231 247.792C61.3209 247.934 61.2196 248.121 61.2196 248.355ZM61.8152 243.457C61.8152 243.784 61.8892 244.043 62.0381 244.232C62.1866 244.422 62.4128 244.517 62.7167 244.517C63.0207 244.517 63.2497 244.422 63.3929 244.232C63.5357 244.043 63.6073 243.784 63.6073 243.457C63.6073 242.733 63.3105 242.371 62.7167 242.371C62.1229 242.371 61.8152 242.733 61.8152 243.457Z" fill="white"/>
<path d="M6.15886 260.344L41.2324 253.7C41.4694 253.655 41.6254 253.426 41.5806 253.188L35.7165 222.059C35.6717 221.822 35.4432 221.665 35.2061 221.71L0.132642 228.355C-0.104391 228.4 -0.260372 228.629 -0.215604 228.867L5.64851 259.996C5.69328 260.233 5.92183 260.39 6.15886 260.345V260.344Z" fill="#1DB6FF"/>
<path d="M10.9877 259.238L41.1975 253.515C41.4345 253.47 41.5905 253.241 41.5457 253.003L35.839 222.708C35.7943 222.471 35.5657 222.314 35.3287 222.359L5.11885 228.082C4.88181 228.127 4.72583 228.356 4.7706 228.594L10.4773 258.889C10.5221 259.127 10.7506 259.283 10.9877 259.238Z" fill="#0756A4"/>
<path d="M11.8628 248.529C11.8029 248.254 11.8312 248.029 11.9471 247.856C12.0635 247.683 12.2619 247.566 12.5428 247.504C12.8137 247.445 13.0395 247.471 13.2195 247.582C13.3995 247.694 13.5187 247.884 13.5772 248.152C13.6337 248.411 13.6031 248.632 13.4853 248.814C13.3674 248.996 13.1747 249.116 12.9066 249.175C12.6323 249.235 12.4038 249.208 12.2219 249.096C12.04 248.983 11.9198 248.794 11.8618 248.529H11.8628Z" fill="white"/>
<path d="M20.3955 247.394L18.9012 247.722L18.2019 244.513C18.1157 244.117 17.9804 243.835 17.7966 243.668C17.6128 243.5 17.3678 243.45 17.0605 243.518C16.6426 243.609 16.3706 243.815 16.2458 244.136C16.1204 244.457 16.1289 244.942 16.2703 245.59L16.8339 248.175L15.3396 248.502L14.1422 243.009L15.284 242.758L15.6379 243.417L15.7213 243.398C15.8301 243.096 16.0158 242.846 16.2788 242.646C16.5412 242.446 16.8589 242.305 17.2316 242.223C17.8687 242.084 18.3899 242.15 18.7947 242.423C19.2 242.697 19.4738 243.159 19.6156 243.811L20.3965 247.394L20.3955 247.394Z" fill="white"/>
<path d="M24.6857 246.557C23.804 246.75 23.0613 246.657 22.4586 246.278C21.8554 245.899 21.4568 245.262 21.2621 244.368C21.0614 243.447 21.1358 242.685 21.485 242.082C21.8342 241.478 22.4138 241.088 23.2244 240.91C23.9986 240.741 24.6494 240.83 25.1767 241.177C25.7045 241.525 26.0532 242.089 26.2229 242.868L26.3812 243.595L22.8488 244.37C22.9577 244.793 23.156 245.097 23.4435 245.285C23.731 245.473 24.0867 245.52 24.5113 245.427C24.8412 245.354 25.1456 245.251 25.4246 245.119C25.7036 244.985 25.9868 244.808 26.2742 244.587L26.5268 245.747C26.294 245.936 26.0358 246.094 25.7526 246.223C25.4694 246.352 25.1136 246.464 24.6857 246.557V246.557ZM23.4661 241.974C23.1495 242.044 22.9228 242.199 22.7871 242.44C22.6514 242.681 22.6108 242.989 22.6655 243.365L24.7625 242.905C24.6753 242.536 24.5165 242.272 24.2866 242.111C24.0566 241.95 23.7828 241.905 23.4661 241.975V241.974Z" fill="white"/>
<path d="M30.4334 244.046C30.695 243.989 30.9956 243.862 31.3368 243.668L31.58 244.783C31.244 245.032 30.8048 245.215 30.2629 245.335C29.6653 245.465 29.1969 245.41 28.8581 245.166C28.5193 244.923 28.2841 244.499 28.1517 243.892L27.5744 241.244L26.8591 241.401L26.721 240.767L27.4349 240.086L27.6135 238.831L28.5687 238.622L28.8237 239.792L30.3571 239.456L30.6026 240.581L29.0692 240.917L29.6465 243.565C29.6931 243.778 29.7869 243.922 29.9283 243.998C30.0696 244.073 30.2383 244.089 30.4344 244.046L30.4334 244.046Z" fill="white"/>
<path d="M41.0552 222.904H73.2645C73.5058 222.904 73.7014 222.708 73.7014 222.466V190.166C73.7014 189.924 73.5058 189.728 73.2645 189.728H41.0552C40.814 189.728 40.6184 189.924 40.6184 190.166L40.6184 222.466C40.6184 222.708 40.814 222.904 41.0552 222.904Z" fill="#1DB6FF"/>
<path d="M44.4689 222.955H75.4624C75.7037 222.955 75.8992 222.758 75.8992 222.516V190.216C75.8992 189.974 75.7037 189.778 75.4624 189.778H44.4689C44.2276 189.778 44.0321 189.974 44.0321 190.216V222.516C44.0321 222.758 44.2276 222.955 44.4689 222.955Z" fill="#0756A4"/>
<path d="M44.942 209.55C44.942 209.231 45.0273 208.99 45.1979 208.827C45.368 208.663 45.6159 208.582 45.942 208.582C46.2681 208.582 46.4995 208.665 46.6719 208.832C46.8444 208.999 46.9302 209.239 46.9302 209.55C46.9302 209.861 46.843 210.086 46.6691 210.259C46.4948 210.432 46.2525 210.518 45.942 210.518C45.6314 210.518 45.3779 210.434 45.2036 210.265C45.0292 210.096 44.942 209.858 44.942 209.55Z" fill="white"/>
<path d="M51.373 210.478C49.3966 210.478 48.4084 209.39 48.4084 207.215C48.4084 206.132 48.6771 205.305 49.2147 204.734C49.7524 204.163 50.5229 203.877 51.5266 203.877C52.2613 203.877 52.9201 204.021 53.503 204.31L52.9917 205.654C52.7194 205.544 52.4654 205.454 52.2307 205.384C51.996 205.313 51.7608 205.278 51.5262 205.278C50.6247 205.278 50.1742 205.92 50.1742 207.204C50.1742 208.487 50.6247 209.072 51.5262 209.072C51.8593 209.072 52.168 209.027 52.4522 208.938C52.7363 208.849 53.02 208.709 53.3042 208.519V210.006C53.0238 210.185 52.741 210.308 52.455 210.376C52.1689 210.445 51.8084 210.479 51.373 210.479V210.478Z" fill="white"/>
<path d="M60.8365 207.169C60.8365 208.206 60.5641 209.017 60.0189 209.602C59.4736 210.187 58.7145 210.479 57.7414 210.479C57.1316 210.479 56.5939 210.345 56.1283 210.077C55.6627 209.809 55.3046 209.425 55.0548 208.923C54.8051 208.422 54.6802 207.837 54.6802 207.169C54.6802 206.129 54.9507 205.32 55.4926 204.743C56.034 204.166 56.7951 203.877 57.7758 203.877C58.3855 203.877 58.9232 204.01 59.3888 204.276C59.8544 204.542 60.2125 204.923 60.4623 205.421C60.7121 205.918 60.8369 206.501 60.8369 207.169H60.8365ZM56.4459 207.169C56.4459 207.8 56.5491 208.276 56.7555 208.599C56.9619 208.922 57.2979 209.083 57.7635 209.083C58.2291 209.083 58.5575 208.922 58.7606 208.602C58.9633 208.281 59.0646 207.803 59.0646 207.169C59.0646 206.535 58.9623 206.066 58.7578 205.751C58.5533 205.436 58.2182 205.278 57.7527 205.278C57.2871 205.278 56.9572 205.435 56.7532 205.748C56.5486 206.062 56.4464 206.535 56.4464 207.169H56.4459Z" fill="white"/>
<path d="M68.2444 210.364H66.5121V206.645C66.5121 206.185 66.4353 205.841 66.2822 205.611C66.1285 205.381 65.8873 205.266 65.5579 205.266C65.1149 205.266 64.7931 205.43 64.5923 205.756C64.3916 206.083 64.2912 206.62 64.2912 207.368V210.364H62.5589V203.996H63.8821L64.1149 204.811H64.2115C64.3821 204.519 64.6281 204.29 64.95 204.125C65.2718 203.96 65.6413 203.877 66.0579 203.877C67.0084 203.877 67.6521 204.189 67.989 204.812H68.1426C68.3127 204.515 68.5639 204.286 68.8952 204.123C69.2265 203.96 69.6006 203.878 70.0172 203.878C70.7363 203.878 71.2811 204.063 71.6501 204.433C72.0191 204.803 72.2038 205.397 72.2038 206.213V210.366H70.4658V206.646C70.4658 206.187 70.389 205.842 70.2359 205.612C70.0827 205.382 69.841 205.268 69.5121 205.268C69.0879 205.268 68.7708 205.42 68.5606 205.723C68.3504 206.027 68.2454 206.509 68.2454 207.17V210.365L68.2444 210.364Z" fill="white"/>
</g>
</g>
<path d="M279.64 164.937L325.007 181.113C325.347 181.235 325.721 181.057 325.843 180.716L342.061 135.232C342.182 134.891 342.005 134.517 341.665 134.395L296.298 118.219C295.958 118.098 295.584 118.276 295.463 118.617L279.245 164.101C279.124 164.442 279.301 164.816 279.64 164.937Z" fill="#1DB6FF"/>
<path d="M284.423 166.723L328.078 182.288C328.418 182.409 328.792 182.231 328.913 181.89L345.131 136.406C345.252 136.065 345.075 135.691 344.736 135.57L301.081 120.004C300.741 119.883 300.367 120.061 300.246 120.402L284.028 165.886C283.906 166.227 284.083 166.601 284.423 166.723Z" fill="#0756A4"/>
<path d="M291.82 148.084C291.98 147.635 292.222 147.339 292.544 147.194C292.865 147.05 293.256 147.059 293.715 147.223C294.174 147.387 294.458 147.621 294.617 147.942C294.776 148.264 294.777 148.644 294.621 149.083C294.464 149.521 294.229 149.794 293.897 149.95C293.564 150.106 293.18 150.106 292.743 149.95C292.305 149.794 291.991 149.548 291.83 149.222C291.669 148.897 291.666 148.517 291.82 148.084Z" fill="white"/>
<path d="M300.412 152.621C297.629 151.628 296.783 149.6 297.875 146.536C298.419 145.012 299.212 143.983 300.256 143.448C301.301 142.914 302.529 142.898 303.943 143.402C304.978 143.771 305.834 144.305 306.51 145.004L305.114 146.641C304.786 146.349 304.474 146.094 304.178 145.878C303.883 145.661 303.569 145.494 303.239 145.376C301.969 144.923 301.012 145.6 300.368 147.408C299.723 149.215 300.064 150.265 301.334 150.717C301.803 150.885 302.261 150.977 302.706 150.994C303.151 151.011 303.62 150.957 304.116 150.832L303.369 152.926C302.885 153.037 302.425 153.068 301.988 153.021C301.55 152.973 301.025 152.84 300.412 152.622L300.412 152.621Z" fill="white"/>
<path d="M315.403 152.714C314.882 154.174 314.092 155.178 313.03 155.728C311.969 156.278 310.753 156.308 309.382 155.82C308.523 155.514 307.833 155.055 307.312 154.444C306.79 153.833 306.479 153.112 306.379 152.281C306.279 151.449 306.396 150.563 306.732 149.622C307.254 148.157 308.041 147.154 309.095 146.613C310.147 146.072 311.364 146.048 312.745 146.541C313.604 146.847 314.295 147.304 314.817 147.912C315.339 148.521 315.652 149.238 315.754 150.064C315.856 150.89 315.739 151.773 315.404 152.714L315.403 152.714ZM309.219 150.509C308.902 151.397 308.809 152.119 308.937 152.677C309.066 153.236 309.458 153.631 310.114 153.865C310.77 154.099 311.313 154.038 311.76 153.688C312.207 153.338 312.589 152.717 312.907 151.824C313.226 150.931 313.317 150.22 313.187 149.673C313.058 149.126 312.665 148.737 312.009 148.503C311.353 148.269 310.81 148.324 310.365 148.662C309.92 149.001 309.538 149.616 309.22 150.509L309.219 150.509Z" fill="white"/>
<path d="M324.233 160.934L321.793 160.064L323.661 154.826C323.891 154.179 323.956 153.655 323.856 153.254C323.755 152.854 323.473 152.571 323.009 152.405C322.385 152.183 321.849 152.251 321.403 152.611C320.956 152.97 320.545 153.676 320.169 154.729L318.665 158.948L316.225 158.078L319.422 149.111L321.286 149.776L321.205 151.04L321.341 151.088C321.728 150.762 322.189 150.564 322.726 150.493C323.262 150.422 323.824 150.491 324.41 150.701C325.749 151.178 326.5 151.94 326.661 152.986L326.878 153.063C327.266 152.731 327.735 152.534 328.284 152.471C328.832 152.408 329.4 152.481 329.987 152.69C331 153.051 331.674 153.585 332.008 154.292C332.342 154.998 332.304 155.927 331.894 157.077L329.809 162.924L327.361 162.051L329.229 156.813C329.46 156.167 329.524 155.643 329.424 155.242C329.324 154.842 329.041 154.558 328.578 154.393C327.98 154.18 327.457 154.235 327.009 154.557C326.56 154.879 326.17 155.505 325.838 156.436L324.234 160.935L324.233 160.934Z" fill="white"/>
<path d="M6.38213 260.642L41.4556 253.997C41.6927 253.952 41.8486 253.723 41.8039 253.486L35.9397 222.357C35.895 222.119 35.6664 221.963 35.4294 222.008L0.355909 228.652C0.118875 228.697 -0.0371055 228.927 0.00766238 229.164L5.87178 260.293C5.91655 260.531 6.1451 260.687 6.38213 260.642V260.642Z" fill="#1DB6FF"/>
<path d="M11.2109 259.535L41.4208 253.813C41.6578 253.768 41.8138 253.539 41.769 253.301L36.0623 223.006C36.0175 222.768 35.789 222.612 35.5519 222.657L5.34212 228.379C5.10508 228.424 4.9491 228.653 4.99387 228.891L10.7006 259.186C10.7454 259.424 10.9739 259.58 11.2109 259.535Z" fill="#0756A4"/>
<path d="M12.086 248.826C12.0262 248.551 12.0545 248.327 12.1704 248.154C12.2868 247.981 12.4852 247.863 12.766 247.802C13.037 247.742 13.2627 247.768 13.4427 247.88C13.6228 247.991 13.742 248.181 13.8004 248.45C13.857 248.709 13.8263 248.929 13.7085 249.111C13.5907 249.293 13.398 249.413 13.1298 249.472C12.8556 249.532 12.627 249.506 12.4451 249.393C12.2632 249.28 12.1431 249.091 12.0851 248.826H12.086Z" fill="white"/>
<path d="M20.6188 247.692L19.1245 248.019L18.4252 244.811C18.3389 244.414 18.2037 244.132 18.0199 243.965C17.8361 243.798 17.5911 243.748 17.2838 243.815C16.8658 243.907 16.5939 244.113 16.469 244.434C16.3437 244.754 16.3522 245.239 16.4935 245.888L17.0571 248.472L15.5628 248.8L14.3654 243.306L15.5072 243.056L15.8611 243.714L15.9445 243.696C16.0534 243.394 16.2391 243.143 16.502 242.943C16.7645 242.743 17.0821 242.602 17.4549 242.521C18.092 242.381 18.6132 242.448 19.018 242.721C19.4232 242.994 19.697 243.457 19.8389 244.109L20.6197 247.691L20.6188 247.692Z" fill="white"/>
<path d="M24.909 246.854C24.0273 247.047 23.2846 246.955 22.6819 246.575C22.0787 246.196 21.68 245.559 21.4854 244.665C21.2847 243.745 21.3591 242.983 21.7083 242.379C22.0575 241.776 22.6371 241.385 23.4476 241.208C24.2219 241.038 24.8727 241.127 25.4 241.475C25.9278 241.823 26.2765 242.386 26.4461 243.166L26.6045 243.893L23.0721 244.667C23.1809 245.09 23.3793 245.395 23.6668 245.582C23.9542 245.77 24.31 245.817 24.7346 245.724C25.0645 245.652 25.3689 245.549 25.6479 245.416C25.9268 245.283 26.2101 245.106 26.4975 244.885L26.7501 246.045C26.5173 246.233 26.2591 246.391 25.9758 246.52C25.6926 246.649 25.3368 246.761 24.909 246.855V246.854ZM23.6894 242.272C23.3727 242.341 23.1461 242.496 23.0103 242.737C22.8746 242.978 22.8341 243.286 22.8888 243.662L24.9858 243.202C24.8986 242.834 24.7398 242.569 24.5098 242.409C24.2799 242.248 24.0061 242.203 23.6894 242.272V242.272Z" fill="white"/>
<path d="M30.6567 244.343C30.9182 244.286 31.2189 244.16 31.5601 243.965L31.8032 245.08C31.4672 245.329 31.028 245.513 30.4861 245.632C29.8886 245.763 29.4202 245.707 29.0813 245.464C28.7425 245.22 28.5074 244.796 28.375 244.19L27.7977 241.541L27.0823 241.698L26.9443 241.065L27.6582 240.383L27.8368 239.129L28.792 238.92L29.0469 240.089L30.5804 239.753L30.8259 240.878L29.2925 241.214L29.8697 243.863C29.9164 244.076 30.0102 244.22 30.1515 244.295C30.2929 244.371 30.4616 244.387 30.6576 244.344L30.6567 244.343Z" fill="white"/>
<defs>
<clipPath id="clip0_116_5492">
<rect width="107.348" height="70.6238" fill="white" transform="translate(-0.223145 189.728)"/>
</clipPath>
</defs>
</svg>
