<svg width="169" height="35" viewBox="0 0 169 35" fill="none" xmlns="http://www.w3.org/2000/svg">
<path d="M13.0894 17.7294V21.9419C12.3938 21.9419 11.664 21.9836 10.9414 21.935C7.6005 21.7097 4.83444 20.3817 2.68761 17.9747C0.966898 16.0457 0.0523634 13.7938 0.00239809 11.2729C-0.0672166 7.72303 1.37953 4.78418 4.24889 2.49272C6.08189 1.02963 8.24556 0.265106 10.6394 0.0440323C12.4224 -0.120585 14.1432 0.201791 15.8521 0.589592C18.7776 1.25281 21.5257 2.34868 24.166 3.69359C24.221 3.72155 24.2715 3.75743 24.3569 3.80966C18.6962 3.5448 13.8265 5.11342 9.87813 9.03469C10.3301 7.19752 11.2716 5.64367 12.6363 4.30352C12.629 4.27661 12.6217 4.24917 12.6144 4.22226C12.1176 4.21751 11.6174 4.17531 11.1239 4.21435C5.9567 4.62273 2.89421 9.78022 5.30602 14.0898C6.58267 16.3702 8.66493 17.5927 11.4276 17.7251C11.9582 17.7505 12.4909 17.7288 13.0894 17.7288V17.7294Z" fill="#FFC63C"/>
<path d="M27.6792 11.2681C31.6091 11.0323 35.0724 12.106 37.7862 14.943C39.859 17.1099 40.8403 19.6837 40.7634 22.5977C40.6354 27.445 36.9722 31.7166 31.9768 32.8837C30.0489 33.3343 28.1317 33.2704 26.1971 32.9037C22.8292 32.2653 19.6859 31.0797 16.6689 29.5655C16.6037 29.5328 16.542 29.4932 16.4791 29.4557C16.474 29.4526 16.4752 29.441 16.469 29.413C22.0803 29.6768 26.9387 28.1019 30.882 24.1932C30.4245 26.0257 29.4836 27.5785 28.1199 28.9176C28.1283 28.9439 28.1367 28.9698 28.1457 28.9962C28.6246 29.0046 29.1063 29.0516 29.5813 29.0152C33.4662 28.7149 36.3249 25.7645 36.2822 22.1176C36.2412 18.5699 33.1164 15.5825 29.3438 15.4875C28.8761 15.4759 28.4085 15.4648 27.9414 15.4717C27.7292 15.4748 27.6719 15.4057 27.6741 15.2121C27.6837 14.3241 27.6786 13.4361 27.6786 12.5481V11.2681H27.6792Z" fill="#0756A4"/>
<path d="M17.5749 16.6471C17.5749 18.2026 17.5828 19.7575 17.5721 21.3129C17.5643 22.451 16.6643 23.292 15.5084 23.2677C14.4249 23.245 13.5406 22.3993 13.5401 21.3799C13.5384 18.2432 13.5384 15.106 13.5401 11.9693C13.5401 10.9003 14.44 10.0345 15.5482 10.0308C16.6351 10.0266 17.5513 10.8565 17.5637 11.9028C17.5822 13.4841 17.5687 15.0659 17.5687 16.6471C17.571 16.6471 17.5732 16.6471 17.5755 16.6471H17.5749Z" fill="#FFC63C"/>
<path d="M23.1936 16.6082C23.1936 15.0269 23.1807 13.4451 23.1981 11.8638C23.2093 10.8513 24.1559 10.0161 25.2265 10.0308C26.3038 10.0461 27.2178 10.8935 27.22 11.9039C27.2257 15.0759 27.2251 18.248 27.2184 21.4195C27.2161 22.4093 26.3263 23.2388 25.2669 23.2678C24.1997 23.2968 23.2745 22.527 23.1987 21.5367C23.1785 21.2744 23.1863 21.0096 23.1863 20.7463C23.1852 19.3666 23.1863 17.9874 23.1863 16.6076C23.1891 16.6076 23.1914 16.6076 23.1942 16.6076L23.1936 16.6082Z" fill="#0756A4"/>
<path d="M18.3515 16.6515C18.3515 15.0955 18.3515 13.5391 18.3515 11.9831C18.3515 10.9068 19.1835 10.0821 20.3159 10.0346C21.3696 9.9908 22.2909 10.8002 22.3723 11.8433C22.3807 11.9483 22.3841 12.0538 22.3841 12.1593C22.3847 15.1752 22.3852 18.1906 22.3841 21.2064C22.3841 22.3203 21.7042 23.1027 20.6174 23.2473C19.4491 23.4029 18.3605 22.5355 18.3543 21.4254C18.3453 19.8341 18.3521 18.2428 18.3515 16.6515Z" fill="#FFC63C"/>
<path d="M9.96289 11.2618H13.0821C13.0821 12.573 13.0742 13.8704 13.0888 15.1678C13.0916 15.4227 13.0024 15.4759 12.7542 15.4723C11.9312 15.4596 11.1082 15.467 10.2851 15.467C10.1841 15.467 10.0836 15.467 9.96289 15.467V11.2618Z" fill="#0756A4"/>
<path d="M30.8041 21.9624H27.6748V17.7657H30.8041V21.9624Z" fill="#FFC63C"/>
<path d="M55.9443 27.4926C55.0891 27.4926 54.0881 27.3719 52.9412 27.1304C51.7942 26.899 50.5316 26.4664 49.1533 25.8326L50.3002 23.0256C51.3868 23.5387 52.408 23.8959 53.3637 24.0971C54.3195 24.2882 55.1797 24.3838 55.9443 24.3838C57.0208 24.3838 57.9061 24.1021 58.6003 23.5387C59.3046 22.9753 59.6567 22.3013 59.6567 21.5165C59.6567 20.7821 59.4102 20.1533 58.9172 19.6301C58.4243 19.0969 57.7904 18.614 57.0158 18.1814C56.2411 17.7387 55.4161 17.291 54.5408 16.8383C53.6655 16.3855 52.8406 15.8775 52.0659 15.3141C51.2912 14.7507 50.6574 14.0816 50.1644 13.307C49.6714 12.5323 49.4249 11.5966 49.4249 10.5C49.4249 9.18206 49.7268 8.10053 50.3304 7.25543C50.9441 6.41032 51.754 5.78656 52.7601 5.38413C53.7662 4.97164 54.8678 4.76539 56.065 4.76539C56.9906 4.76539 57.8911 4.83079 58.7663 4.96158C59.6416 5.08231 60.7131 5.34892 61.9807 5.76141L60.864 8.50799C59.9787 8.24641 59.1688 8.06028 58.4343 7.94962C57.6999 7.83895 57.0007 7.78361 56.3367 7.78361C55.4312 7.78361 54.7068 8.00495 54.1636 8.44762C53.6203 8.89029 53.3486 9.4537 53.3486 10.1378C53.3486 10.822 53.5951 11.4206 54.0881 11.9337C54.5911 12.4367 55.23 12.9045 56.0047 13.3371C56.7894 13.7697 57.6194 14.2225 58.4947 14.6953C59.37 15.1682 60.195 15.7014 60.9696 16.295C61.7544 16.8886 62.3932 17.6029 62.8862 18.4379C63.3892 19.2629 63.6408 20.2589 63.6408 21.426C63.6408 22.7238 63.3188 23.8255 62.6749 24.7309C62.031 25.6263 61.1306 26.3105 59.9736 26.7833C58.8166 27.2562 57.4735 27.4926 55.9443 27.4926ZM75.9751 27.1002V16.0234C75.9751 15.5203 75.8695 15.1078 75.6582 14.7859C75.457 14.4639 75.0999 14.303 74.5868 14.303C74.3956 14.303 74.2095 14.3281 74.0284 14.3784C73.8473 14.4287 73.6109 14.4639 73.3191 14.4841C72.8362 14.5142 72.4287 14.313 72.0967 13.8804C71.7748 13.4377 71.4679 12.975 71.1762 12.492C72.1722 11.9588 73.0475 11.5966 73.802 11.4055C74.5566 11.2043 75.281 11.1037 75.9751 11.1037C76.6693 11.1037 77.3384 11.2797 77.9823 11.6318C78.6261 11.984 79.1493 12.5222 79.5517 13.2466C79.9642 13.9609 80.1705 14.8664 80.1705 15.963V27.1002H75.9751ZM66.2263 27.1002V15.299C66.2263 14.7356 66.186 14.137 66.1056 13.5031C66.0351 12.8693 65.9144 12.2003 65.7434 11.496H69.2445C69.7274 12.0393 70.0494 12.5776 70.2103 13.1108C70.3713 13.644 70.4518 14.2124 70.4518 14.8161V27.1002H66.2263ZM87.5543 27.4926C86.5884 27.4926 85.7534 27.2813 85.0491 26.8588C84.3549 26.4262 83.8167 25.8627 83.4344 25.1686C83.0621 24.4744 82.876 23.7299 82.876 22.9351C82.876 22.1 83.1225 21.3103 83.6155 20.5658C84.1085 19.8213 84.9536 19.1925 86.1508 18.6794C87.3581 18.1562 89.0231 17.8142 91.1459 17.6532C91.0755 18.126 90.9598 18.5637 90.7988 18.9661C90.6379 19.3585 90.4165 19.6855 90.1348 19.947C89.8632 20.2086 89.5161 20.3797 89.0936 20.4601C88.5905 20.5406 88.178 20.6815 87.8561 20.8827C87.5341 21.0839 87.2977 21.3304 87.1468 21.6222C86.9959 21.9039 86.9204 22.2107 86.9204 22.5427C86.9204 23.0659 87.1066 23.5035 87.4788 23.8556C87.8511 24.2078 88.2988 24.3838 88.8219 24.3838C89.3954 24.3838 89.9739 24.1876 90.5574 23.7953C91.151 23.3928 91.7093 22.8848 92.2325 22.2711V17.7136C92.2325 16.6672 91.9407 15.8322 91.3572 15.2084C90.7838 14.5847 89.9688 14.2728 88.9125 14.2728C88.4195 14.2728 87.8863 14.3231 87.3128 14.4237C86.7393 14.5243 86.0955 14.7054 85.3811 14.967L84.3549 12.3109C85.2504 11.8985 86.1709 11.6067 87.1166 11.4357C88.0724 11.2546 88.9024 11.164 89.6066 11.164C91.7496 11.164 93.3995 11.7274 94.5565 12.8542C95.7236 13.981 96.3071 15.6008 96.3071 17.7136V23.2973C96.3071 23.8506 96.3423 24.4442 96.4127 25.078C96.4832 25.7118 96.6089 26.3859 96.79 27.1002H93.6812C93.4096 26.9493 93.1832 26.738 93.0021 26.4664C92.8311 26.1847 92.6852 25.8929 92.5645 25.5911L92.474 24.9875L92.1118 25.5006C91.2063 26.3255 90.4115 26.8638 89.7274 27.1153C89.0533 27.3668 88.3289 27.4926 87.5543 27.4926ZM105.588 34.6458C104.804 34.6458 103.903 34.5603 102.887 34.3892C101.881 34.2282 100.789 33.8912 99.6123 33.3781L100.669 30.5712C101.685 30.9736 102.56 31.2503 103.295 31.4012C104.029 31.5521 104.713 31.6275 105.347 31.6275C106.091 31.6275 106.776 31.4716 107.399 31.1597C108.033 30.8478 108.536 30.38 108.908 29.7563C109.291 29.1325 109.482 28.3578 109.482 27.4322V14.4841C109.089 14.3935 108.722 14.3332 108.38 14.303C108.038 14.2627 107.761 14.2426 107.55 14.2426C106.182 14.2426 105.141 14.7658 104.426 15.8121C103.712 16.8483 103.355 18.1965 103.355 19.8565C103.355 20.5004 103.425 21.1644 103.566 21.8485C103.717 22.5326 103.979 23.1061 104.351 23.5689C104.733 24.0317 105.266 24.253 105.951 24.2329C106.554 24.2128 107.027 24.414 107.369 24.8366C107.721 25.249 108.063 25.742 108.395 26.3155C107.842 26.6173 107.263 26.8688 106.66 27.07C106.056 27.2713 105.498 27.3719 104.985 27.3719C104.019 27.3719 103.154 27.1556 102.389 26.7229C101.634 26.2803 100.996 25.6967 100.472 24.9724C99.9493 24.2379 99.5469 23.4281 99.2652 22.5427C98.9935 21.6473 98.8577 20.7519 98.8577 19.8565C98.8577 18.2568 99.1948 16.798 99.8688 15.4801C100.543 14.1521 101.514 13.0957 102.781 12.3109C104.049 11.5262 105.578 11.1338 107.369 11.1338C107.943 11.1338 108.516 11.159 109.089 11.2093C109.663 11.2495 110.307 11.3351 111.021 11.4658C111.735 11.5966 112.591 11.7878 113.587 12.0393V27.1002C113.587 28.9413 113.224 30.4102 112.5 31.5068C111.786 32.6135 110.82 33.4133 109.603 33.9063C108.395 34.3993 107.057 34.6458 105.588 34.6458ZM123.014 34.6458C122.229 34.6458 121.328 34.5603 120.312 34.3892C119.306 34.2282 118.215 33.8912 117.038 33.3781L118.094 30.5712C119.11 30.9736 119.985 31.2503 120.72 31.4012C121.454 31.5521 122.138 31.6275 122.772 31.6275C123.517 31.6275 124.201 31.4716 124.825 31.1597C125.458 30.8478 125.961 30.38 126.334 29.7563C126.716 29.1325 126.907 28.3578 126.907 27.4322V14.4841C126.515 14.3935 126.148 14.3332 125.805 14.303C125.463 14.2627 125.187 14.2426 124.975 14.2426C123.607 14.2426 122.566 14.7658 121.852 15.8121C121.137 16.8483 120.78 18.1965 120.78 19.8565C120.78 20.5004 120.851 21.1644 120.991 21.8485C121.142 22.5326 121.404 23.1061 121.776 23.5689C122.158 24.0317 122.692 24.253 123.376 24.2329C123.979 24.2128 124.452 24.414 124.794 24.8366C125.147 25.249 125.489 25.742 125.821 26.3155C125.267 26.6173 124.689 26.8688 124.085 27.07C123.481 27.2713 122.923 27.3719 122.41 27.3719C121.444 27.3719 120.579 27.1556 119.814 26.7229C119.06 26.2803 118.421 25.6967 117.898 24.9724C117.375 24.2379 116.972 23.4281 116.69 22.5427C116.419 21.6473 116.283 20.7519 116.283 19.8565C116.283 18.2568 116.62 16.798 117.294 15.4801C117.968 14.1521 118.939 13.0957 120.207 12.3109C121.474 11.5262 123.004 11.1338 124.794 11.1338C125.368 11.1338 125.941 11.159 126.515 11.2093C127.088 11.2495 127.732 11.3351 128.446 11.4658C129.161 11.5966 130.016 11.7878 131.012 12.0393V27.1002C131.012 28.9413 130.65 30.4102 129.925 31.5068C129.211 32.6135 128.245 33.4133 127.028 33.9063C125.821 34.3993 124.482 34.6458 123.014 34.6458ZM141.797 27.4926C140.419 27.4926 139.227 27.2511 138.221 26.7682C137.214 26.2752 136.384 25.6213 135.73 24.8064C135.087 23.9814 134.609 23.0709 134.297 22.0749C133.985 21.0688 133.829 20.0577 133.829 19.0416C133.829 17.3816 134.181 15.958 134.885 14.7708C135.6 13.5836 136.555 12.6782 137.753 12.0544C138.95 11.4206 140.278 11.1037 141.737 11.1037C142.853 11.1037 143.865 11.325 144.77 11.7677C145.686 12.2003 146.43 12.814 147.004 13.6088C147.587 14.4036 147.939 15.3443 148.06 16.4308C148.191 17.5174 148.035 18.7096 147.592 20.0074H139.141C139.352 19.3132 139.669 18.7297 140.092 18.2568C140.514 17.7739 140.982 17.5325 141.495 17.5325H144.181C144.262 16.9188 144.207 16.3453 144.015 15.8121C143.824 15.2789 143.512 14.8513 143.08 14.5293C142.657 14.1973 142.139 14.0313 141.525 14.0313C140.972 14.0313 140.424 14.1973 139.881 14.5293C139.337 14.8613 138.885 15.3845 138.522 16.0988C138.17 16.8131 137.994 17.7437 137.994 18.8907C137.994 20.0476 138.17 21.0386 138.522 21.8636C138.885 22.6785 139.383 23.3023 140.016 23.7349C140.66 24.1675 141.405 24.3838 142.25 24.3838C142.944 24.3838 143.633 24.2983 144.317 24.1273C145.001 23.9462 145.781 23.6594 146.656 23.2671L147.713 26.074C146.626 26.5871 145.6 26.9493 144.634 27.1606C143.678 27.3819 142.733 27.4926 141.797 27.4926ZM156.978 27.4926C155.519 27.4926 154.271 27.1354 153.235 26.4211C152.209 25.6967 151.424 24.7108 150.881 23.4633C150.338 22.2057 150.066 20.7821 150.066 19.1925C150.066 18.126 150.247 17.1149 150.609 16.1592C150.972 15.2034 151.465 14.3583 152.088 13.6239C152.712 12.8794 153.421 12.2959 154.216 11.8733C155.011 11.4407 155.841 11.2244 156.706 11.2244C157.219 11.2244 157.722 11.2596 158.215 11.33C158.718 11.3904 159.362 11.5363 160.147 11.7677C159.875 12.4619 159.553 13.0253 159.181 13.4579C158.819 13.8905 158.386 14.1319 157.883 14.1822C157.058 14.2325 156.399 14.479 155.906 14.9217C155.423 15.3543 155.071 15.9378 154.85 16.6723C154.639 17.4067 154.533 18.2468 154.533 19.1925C154.533 20.1281 154.659 20.9883 154.91 21.7731C155.162 22.5578 155.524 23.1916 155.997 23.6745C156.48 24.1474 157.058 24.3838 157.732 24.3838C158.306 24.3838 158.874 24.2128 159.438 23.8707C160.001 23.5287 160.6 22.9954 161.233 22.2711V4.22211H165.429V23.2973C165.429 23.8506 165.464 24.4442 165.534 25.078C165.605 25.7118 165.721 26.3859 165.882 27.1002H162.652C162.401 26.9594 162.189 26.7582 162.018 26.4966C161.847 26.235 161.706 25.9634 161.596 25.6817L161.445 24.9875L160.932 25.6515C160.147 26.3557 159.438 26.8386 158.804 27.1002C158.18 27.3618 157.571 27.4926 156.978 27.4926Z" fill="#1C1C45"/>
</svg>
