<svg width="375" height="165" viewBox="0 0 375 165" fill="none" xmlns="http://www.w3.org/2000/svg">
<path d="M237.447 82.8779C236.79 83.325 236.185 83.9299 235.475 84.1667C220.246 89.4534 205.017 94.6875 189.788 99.9479C189.525 100.053 189.236 100.106 188.894 100.211C188.894 84.6664 188.894 69.1745 188.894 53.5773C205.069 48.4221 221.271 43.2143 237.447 38.0065C237.447 52.9724 237.447 67.9383 237.447 82.8779ZM192.444 74.5138C192.444 79.5638 192.444 84.6138 192.444 89.6638C192.444 92.8727 194.68 94.4508 197.705 93.3987C208.752 89.6112 219.799 85.7974 230.845 81.9836C233.081 81.2208 233.844 80.1161 233.844 77.7227C233.844 67.9909 233.844 58.2328 233.844 48.501C233.844 45.2133 231.687 43.6352 228.583 44.6346C217.615 48.1591 206.621 51.6836 195.601 55.2344C193.233 55.9971 192.444 57.0492 192.444 59.5742C192.444 64.5453 192.444 69.5164 192.444 74.5138Z" fill="#E6E8EE"/>
<path d="M187.658 0C188.578 0.552344 188.894 1.36771 188.868 2.47239C188.815 5.70755 188.841 8.96901 188.841 12.2042C188.841 13.5982 188.157 14.4135 187 14.3609C185.895 14.3346 185.264 13.5456 185.264 12.2042C185.264 8.96901 185.29 5.70755 185.238 2.47239C185.212 1.39401 185.527 0.578646 186.448 0C186.869 0 187.263 0 187.658 0Z" fill="#E6E8EE"/>
<path d="M136.789 34.1664C153.044 28.9586 169.088 23.7771 185.29 18.5956C185.29 19.148 185.29 19.5162 185.29 19.9107C185.29 27.3805 185.29 34.8766 185.29 42.3464C185.29 42.662 185.264 43.0039 185.316 43.3196C185.395 44.2927 186.132 44.9766 187.052 44.9766C188.025 45.0029 188.762 44.319 188.841 43.2933C188.867 42.9776 188.841 42.6357 188.841 42.3201C188.841 34.8503 188.841 27.3542 188.841 19.8844C188.841 19.5162 188.841 19.1743 188.841 18.5956C205.043 23.7771 221.14 28.9323 237.5 34.1927C235.764 34.7451 234.264 35.2448 232.791 35.7183C217.905 40.5052 202.991 45.2922 188.104 50.0792C187.368 50.3159 186.763 50.2896 186.026 50.0792C170.008 44.8977 153.99 39.7425 137.972 34.5873C137.631 34.4821 137.315 34.3506 136.789 34.1664Z" fill="#E6E8EE"/>
<path d="M136.71 38.0065C152.939 43.2143 169.088 48.3958 185.238 53.5773C185.238 69.1219 185.238 84.6401 185.238 100.237C183.028 99.4745 180.898 98.7643 178.767 98.0279C165.274 93.3724 151.781 88.7169 138.288 84.0615C137.052 83.6406 136.684 83.1672 136.684 81.931C136.684 67.4911 136.684 53.0513 136.684 38.6378C136.684 38.4536 136.684 38.2958 136.71 38.0065ZM181.687 74.5664C181.687 69.5427 181.687 64.519 181.687 59.5216C181.687 57.0755 180.898 55.9971 178.583 55.2607C167.51 51.6836 156.437 48.1065 145.364 44.582C142.497 43.6615 140.261 45.2659 140.261 48.2643C140.261 58.1802 140.261 68.0698 140.261 77.9857C140.261 80.0898 141.103 81.2471 143.128 81.931C154.175 85.7448 165.222 89.5586 176.269 93.3724C179.477 94.4771 181.661 92.9253 181.661 89.5323C181.687 84.5349 181.687 79.5375 181.687 74.5664Z" fill="#E6E8EE"/>
<path d="M210.619 18.1748C209.041 17.9907 208.252 16.5967 208.936 15.229C210.382 12.2568 211.882 9.311 213.381 6.36516C213.67 5.78652 213.933 5.18157 214.275 4.60293C214.801 3.68235 215.748 3.36673 216.616 3.78756C217.51 4.20839 217.931 5.23418 217.458 6.20735C215.695 9.83704 213.907 13.4404 212.039 17.0175C211.776 17.5172 211.092 17.8066 210.619 18.1748Z" fill="#E6E8EE"/>
<path d="M165.459 16.0443C165.432 17.0437 165.038 17.6487 164.223 17.9117C163.433 18.1484 162.697 17.9643 162.224 17.2542C161.908 16.7544 161.671 16.2284 161.408 15.7023C159.856 12.5987 158.305 9.49505 156.753 6.3914C156.358 5.57604 156.384 4.78697 157.068 4.12942C157.673 3.55077 158.436 3.44557 159.146 3.8927C159.488 4.10312 159.777 4.47135 159.962 4.83957C161.724 8.31145 163.46 11.8096 165.196 15.2815C165.327 15.5182 165.406 15.8602 165.459 16.0443Z" fill="#E6E8EE"/>
<path d="M192.444 74.5138C192.444 69.5164 192.444 64.5453 192.444 59.5479C192.444 57.0492 193.233 55.9708 195.601 55.2081C206.621 51.6836 217.615 48.1591 228.61 44.6346C231.713 43.6351 233.87 45.2133 233.87 48.501C233.87 58.2328 233.87 67.9909 233.87 77.7226C233.87 80.1161 233.107 81.2208 230.872 81.9836C219.825 85.7974 208.778 89.6112 197.731 93.3987C194.706 94.4508 192.471 92.8463 192.471 89.6638C192.444 84.6138 192.444 79.5638 192.444 74.5138ZM196.074 71.3312C199.125 70.3581 202.018 69.4112 204.938 68.5169C207.568 67.7016 209.383 68.3065 211.119 70.4107C211.619 71.0156 212.329 71.5943 213.039 71.831C215.327 72.5937 217.458 70.963 217.642 68.4117C217.852 65.5448 219.062 63.993 221.797 63.125C224.322 62.3096 226.847 61.468 229.372 60.7052C230.083 60.4948 230.267 60.1792 230.267 59.469C230.24 55.9182 230.24 52.3937 230.24 48.843C230.24 48.5536 230.214 48.2906 230.162 47.9487C229.741 48.0802 229.425 48.1591 229.136 48.238C218.668 51.6047 208.199 54.945 197.731 58.3117C196.074 58.8378 196.074 58.8378 196.074 60.6526C196.074 64.1508 196.074 67.6753 196.074 71.3312ZM230.188 64.2034C227.715 64.9924 225.375 65.7552 223.06 66.4917C221.534 66.9914 221.403 67.1492 221.271 68.7536C221.008 71.9362 219.062 74.4086 216.143 75.2766C213.223 76.1708 210.198 75.1713 208.278 72.6463C207.673 71.8573 207.016 71.5943 206.069 71.9099C202.992 72.9094 199.914 73.9088 196.811 74.8557C196.232 75.0398 196.074 75.3292 196.074 75.9078C196.1 80.4318 196.074 84.9557 196.1 89.4797C196.1 89.6638 196.127 89.8742 196.153 90.1109C196.363 90.0583 196.574 90.032 196.732 89.9531C207.647 86.1919 218.589 82.4044 229.504 78.6695C230.135 78.4591 230.267 78.1172 230.267 77.5122C230.24 73.3828 230.267 69.2534 230.267 65.1239C230.24 64.8609 230.214 64.6242 230.188 64.2034Z" fill="white"/>
<path d="M181.687 74.5664C181.687 79.5638 181.687 84.5349 181.687 89.5323C181.687 92.9516 179.477 94.4771 176.295 93.3724C165.248 89.5586 154.201 85.7448 143.154 81.931C141.129 81.2472 140.287 80.0899 140.287 77.9857C140.287 68.0698 140.287 58.1802 140.287 48.2643C140.287 45.2659 142.523 43.6615 145.39 44.582C156.437 48.1065 167.51 51.6836 178.557 55.2344C180.871 55.9708 181.66 57.0755 181.66 59.4953C181.687 64.519 181.687 69.5427 181.687 74.5664ZM178.057 79.4586C178.057 76.9336 178.004 74.5401 178.083 72.1729C178.11 71.2787 177.794 70.9367 176.979 70.7C166.589 67.386 156.226 64.0456 145.837 60.7052C145.232 60.5211 144.627 60.337 143.891 60.1266C143.891 62.6253 143.943 64.9925 143.864 67.3333C143.838 68.2802 144.18 68.6222 145.022 68.8852C154.043 71.7521 163.038 74.6453 172.034 77.5386C174.006 78.1698 175.953 78.7748 178.057 79.4586ZM143.891 47.8961C143.891 50.4737 143.917 52.8935 143.864 55.3133C143.838 56.0498 144.075 56.3917 144.811 56.6021C155.621 60.0477 166.431 63.5195 177.242 66.9914C177.478 67.0703 177.715 67.0966 178.031 67.1755C178.031 64.6768 178.004 62.2833 178.057 59.8899C178.083 59.1008 177.82 58.7589 177.057 58.5222C167.457 55.4711 157.857 52.3675 148.257 49.2901C146.863 48.8167 145.442 48.3695 143.891 47.8961ZM143.891 72.3044C143.891 74.1456 143.917 75.8552 143.864 77.5386C143.838 78.2487 144.127 78.5117 144.732 78.7222C153.859 81.8521 163.012 85.0083 172.139 88.1646C174.085 88.8221 176.005 89.4797 178.057 90.1899C178.057 88.1383 178.004 86.2445 178.083 84.3508C178.11 83.5091 177.82 83.1672 177.031 82.9305C167.194 79.8005 157.384 76.6443 147.573 73.488C146.389 73.0672 145.206 72.699 143.891 72.3044Z" fill="white"/>
<path d="M196.074 71.3312C196.074 67.6752 196.074 64.177 196.074 60.6525C196.074 58.864 196.074 58.864 197.731 58.3117C208.199 54.945 218.668 51.5783 229.136 48.2117C229.452 48.1065 229.767 48.0275 230.162 47.9223C230.188 48.2643 230.214 48.5536 230.241 48.8166C230.241 52.3674 230.214 55.8919 230.267 59.4426C230.267 60.1528 230.083 60.4684 229.373 60.6788C226.821 61.4416 224.323 62.2833 221.798 63.0986C219.062 63.9666 217.852 65.5184 217.642 68.3854C217.458 70.9367 215.327 72.5674 213.039 71.8046C212.303 71.5679 211.592 70.9893 211.119 70.3843C209.383 68.2801 207.568 67.6489 204.938 68.4906C202.045 69.4111 199.152 70.358 196.074 71.3312Z" fill="#E6E8EE"/>
<path d="M230.188 64.2034C230.214 64.6242 230.241 64.8609 230.241 65.1239C230.241 69.2534 230.241 73.3828 230.241 77.5122C230.241 78.1172 230.109 78.4591 229.478 78.6695C218.562 82.4307 207.647 86.1919 196.732 89.9531C196.548 90.0057 196.364 90.0583 196.153 90.1109C196.127 89.8742 196.101 89.6638 196.101 89.4797C196.101 84.9557 196.101 80.4317 196.074 75.9078C196.074 75.3291 196.232 75.0398 196.811 74.8557C199.914 73.9088 202.992 72.9093 206.069 71.9099C207.016 71.5942 207.673 71.8573 208.278 72.6463C210.198 75.1976 213.223 76.1708 216.143 75.2765C219.062 74.3823 221.009 71.9099 221.272 68.7536C221.403 67.1492 221.535 66.9914 223.06 66.4916C225.401 65.7552 227.716 64.9924 230.188 64.2034Z" fill="#E6E8EE"/>
<path d="M178.057 79.4586C175.952 78.8011 174.006 78.1698 172.06 77.5386C163.064 74.6453 154.043 71.7521 145.048 68.8852C144.206 68.6222 143.864 68.2802 143.89 67.3334C143.969 64.9925 143.917 62.6253 143.917 60.1266C144.653 60.337 145.258 60.4948 145.863 60.7052C156.252 64.0456 166.615 67.386 177.005 70.7C177.82 70.963 178.136 71.2787 178.109 72.1729C178.004 74.5401 178.057 76.9336 178.057 79.4586Z" fill="#E6E8EE"/>
<path d="M143.891 47.8961C145.443 48.3959 146.889 48.8167 148.31 49.2901C157.91 52.3675 167.51 55.4711 177.11 58.5222C177.873 58.7589 178.11 59.1008 178.11 59.8899C178.057 62.2834 178.084 64.6768 178.084 67.1755C177.768 67.0966 177.505 67.0703 177.295 66.9914C166.432 63.5196 155.622 60.0477 144.811 56.6021C144.075 56.3654 143.865 56.0498 143.865 55.3133C143.917 52.8672 143.891 50.4474 143.891 47.8961Z" fill="#E6E8EE"/>
<path d="M143.891 72.3045C145.206 72.7253 146.389 73.0935 147.547 73.4618C157.357 76.618 167.194 79.7742 177.005 82.9042C177.794 83.1409 178.083 83.4828 178.057 84.3245C177.978 86.2183 178.031 88.112 178.031 90.1636C175.979 89.4797 174.059 88.8222 172.113 88.1383C162.986 84.9821 153.859 81.8258 144.706 78.6959C144.101 78.4854 143.812 78.2224 143.838 77.5123C143.917 75.8289 143.891 74.1456 143.891 72.3045Z" fill="#E6E8EE"/>
<path d="M88.4131 134V119.46H90.8331L97.3331 129.82L97.6031 130.57L97.5631 129.8V119.46H99.7531V134H97.5531L90.7931 123.26L90.4931 122.56L90.5331 123.24V134H88.4131ZM107.665 134.24C106.738 134.24 105.885 134.03 105.105 133.61C104.325 133.19 103.698 132.577 103.225 131.77C102.752 130.963 102.515 129.98 102.515 128.82C102.515 127.893 102.672 127.09 102.985 126.41C103.298 125.73 103.708 125.17 104.215 124.73C104.728 124.29 105.285 123.963 105.885 123.75C106.492 123.53 107.085 123.42 107.665 123.42C108.705 123.42 109.612 123.653 110.385 124.12C111.158 124.587 111.755 125.227 112.175 126.04C112.602 126.853 112.815 127.78 112.815 128.82C112.815 129.673 112.672 130.437 112.385 131.11C112.098 131.783 111.708 132.353 111.215 132.82C110.728 133.28 110.178 133.633 109.565 133.88C108.952 134.12 108.318 134.24 107.665 134.24ZM107.665 132.43C108.232 132.43 108.705 132.267 109.085 131.94C109.465 131.613 109.748 131.177 109.935 130.63C110.128 130.083 110.225 129.48 110.225 128.82C110.225 128.093 110.118 127.46 109.905 126.92C109.692 126.38 109.392 125.963 109.005 125.67C108.625 125.377 108.178 125.23 107.665 125.23C107.152 125.23 106.702 125.377 106.315 125.67C105.928 125.963 105.628 126.38 105.415 126.92C105.202 127.46 105.095 128.093 105.095 128.82C105.095 129.88 105.322 130.747 105.775 131.42C106.235 132.093 106.865 132.43 107.665 132.43ZM124.077 134.24C123.124 134.24 122.311 134.003 121.637 133.53C120.964 133.05 120.451 132.397 120.097 131.57C119.744 130.743 119.567 129.81 119.567 128.77C119.567 128.023 119.691 127.333 119.937 126.7C120.184 126.06 120.517 125.503 120.937 125.03C121.364 124.55 121.844 124.177 122.377 123.91C122.917 123.637 123.477 123.5 124.057 123.5C124.384 123.5 124.711 123.523 125.037 123.57C125.371 123.617 125.767 123.713 126.227 123.86C126.047 124.267 125.824 124.6 125.557 124.86C125.297 125.113 124.971 125.247 124.577 125.26C124.064 125.28 123.627 125.43 123.267 125.71C122.907 125.983 122.631 126.38 122.437 126.9C122.244 127.413 122.147 128.037 122.147 128.77C122.147 129.45 122.237 130.067 122.417 130.62C122.604 131.167 122.871 131.603 123.217 131.93C123.571 132.257 123.997 132.42 124.497 132.42C124.911 132.42 125.314 132.303 125.707 132.07C126.107 131.837 126.517 131.477 126.937 130.99V118.84H129.357V131.13C129.357 131.663 129.384 132.17 129.437 132.65C129.491 133.123 129.564 133.573 129.657 134H127.827C127.661 133.887 127.524 133.747 127.417 133.58C127.311 133.413 127.214 133.223 127.127 133.01L127.047 132.6L126.777 133C126.304 133.467 125.834 133.79 125.367 133.97C124.907 134.15 124.477 134.24 124.077 134.24ZM136.884 134.24C135.957 134.24 135.104 134.03 134.324 133.61C133.544 133.19 132.917 132.577 132.444 131.77C131.971 130.963 131.734 129.98 131.734 128.82C131.734 127.893 131.891 127.09 132.204 126.41C132.517 125.73 132.927 125.17 133.434 124.73C133.947 124.29 134.504 123.963 135.104 123.75C135.711 123.53 136.304 123.42 136.884 123.42C137.924 123.42 138.831 123.653 139.604 124.12C140.377 124.587 140.974 125.227 141.394 126.04C141.821 126.853 142.034 127.78 142.034 128.82C142.034 129.673 141.891 130.437 141.604 131.11C141.317 131.783 140.927 132.353 140.434 132.82C139.947 133.28 139.397 133.633 138.784 133.88C138.171 134.12 137.537 134.24 136.884 134.24ZM136.884 132.43C137.451 132.43 137.924 132.267 138.304 131.94C138.684 131.613 138.967 131.177 139.154 130.63C139.347 130.083 139.444 129.48 139.444 128.82C139.444 128.093 139.337 127.46 139.124 126.92C138.911 126.38 138.611 125.963 138.224 125.67C137.844 125.377 137.397 125.23 136.884 125.23C136.371 125.23 135.921 125.377 135.534 125.67C135.147 125.963 134.847 126.38 134.634 126.92C134.421 127.46 134.314 128.093 134.314 128.82C134.314 129.88 134.541 130.747 134.994 131.42C135.454 132.093 136.084 132.43 136.884 132.43ZM157.239 134V126.59C157.239 126.21 157.153 125.897 156.979 125.65C156.813 125.403 156.533 125.28 156.139 125.28C156.006 125.28 155.869 125.297 155.729 125.33C155.589 125.363 155.433 125.393 155.259 125.42C154.913 125.46 154.596 125.377 154.309 125.17C154.023 124.963 153.769 124.693 153.549 124.36C154.276 124.013 154.893 123.77 155.399 123.63C155.906 123.49 156.373 123.42 156.799 123.42C157.286 123.42 157.749 123.53 158.189 123.75C158.629 123.97 158.986 124.317 159.259 124.79C159.539 125.263 159.679 125.88 159.679 126.64V134H157.239ZM144.439 134V126.18C144.439 125.807 144.416 125.41 144.369 124.99C144.329 124.57 144.253 124.127 144.139 123.66H146.119C146.439 124.02 146.649 124.377 146.749 124.73C146.849 125.083 146.899 125.46 146.899 125.86V134H144.439ZM150.839 134V126.59C150.839 126.21 150.763 125.897 150.609 125.65C150.463 125.403 150.209 125.28 149.849 125.28C149.716 125.28 149.589 125.293 149.469 125.32C149.349 125.347 149.206 125.373 149.039 125.4C148.693 125.44 148.383 125.357 148.109 125.15C147.836 124.943 147.593 124.673 147.379 124.34C148.093 124 148.689 123.763 149.169 123.63C149.656 123.49 150.113 123.42 150.539 123.42C151.019 123.42 151.469 123.53 151.889 123.75C152.309 123.97 152.649 124.317 152.909 124.79C153.169 125.263 153.299 125.88 153.299 126.64V134H150.839ZM165.288 134.24C164.628 134.24 164.058 134.107 163.578 133.84C163.098 133.567 162.728 133.207 162.468 132.76C162.215 132.307 162.088 131.817 162.088 131.29C162.088 130.69 162.255 130.153 162.588 129.68C162.928 129.2 163.498 128.803 164.298 128.49C165.098 128.177 166.195 127.957 167.588 127.83C167.548 128.083 167.478 128.333 167.378 128.58C167.278 128.827 167.132 129.04 166.938 129.22C166.752 129.393 166.505 129.507 166.198 129.56C165.765 129.627 165.425 129.737 165.178 129.89C164.932 130.043 164.755 130.223 164.648 130.43C164.548 130.637 164.498 130.853 164.498 131.08C164.498 131.453 164.628 131.77 164.888 132.03C165.155 132.29 165.492 132.42 165.898 132.42C166.312 132.42 166.725 132.297 167.138 132.05C167.558 131.797 167.948 131.447 168.308 131V127.7C168.308 126.967 168.115 126.38 167.728 125.94C167.348 125.493 166.768 125.27 165.988 125.27C165.648 125.27 165.292 125.307 164.918 125.38C164.552 125.447 164.128 125.567 163.648 125.74L163.058 124.18C163.672 123.9 164.268 123.71 164.848 123.61C165.428 123.503 165.948 123.45 166.408 123.45C167.775 123.45 168.828 123.823 169.568 124.57C170.315 125.31 170.688 126.373 170.688 127.76V131.13C170.688 131.663 170.715 132.17 170.768 132.65C170.822 133.123 170.902 133.573 171.008 134H169.218C169.038 133.893 168.892 133.75 168.778 133.57C168.665 133.39 168.568 133.197 168.488 132.99L168.448 132.61L168.208 132.96C167.648 133.487 167.145 133.833 166.698 134C166.258 134.16 165.788 134.24 165.288 134.24ZM173.441 134V123.66H175.901V134H173.441ZM174.671 122.13C174.258 122.13 173.908 121.99 173.621 121.71C173.341 121.423 173.201 121.073 173.201 120.66C173.201 120.233 173.341 119.877 173.621 119.59C173.908 119.303 174.258 119.16 174.671 119.16C175.091 119.16 175.441 119.303 175.721 119.59C176.001 119.877 176.141 120.233 176.141 120.66C176.141 121.073 176.001 121.423 175.721 121.71C175.441 121.99 175.091 122.13 174.671 122.13ZM185.181 134V126.59C185.181 126.21 185.098 125.897 184.931 125.65C184.764 125.403 184.498 125.28 184.131 125.28C183.991 125.28 183.861 125.297 183.741 125.33C183.621 125.363 183.468 125.393 183.281 125.42C182.941 125.46 182.638 125.377 182.371 125.17C182.111 124.963 181.868 124.707 181.641 124.4C182.321 124.02 182.904 123.763 183.391 123.63C183.884 123.49 184.344 123.42 184.771 123.42C185.258 123.42 185.718 123.53 186.151 123.75C186.591 123.97 186.944 124.317 187.211 124.79C187.484 125.263 187.621 125.88 187.621 126.64V134H185.181ZM178.681 134V126.18C178.681 125.807 178.658 125.41 178.611 124.99C178.564 124.57 178.484 124.127 178.371 123.66H180.341C180.661 124.02 180.874 124.377 180.981 124.73C181.088 125.083 181.141 125.46 181.141 125.86V134H178.681ZM198.257 134.24C197.597 134.24 197.027 134.107 196.547 133.84C196.067 133.567 195.697 133.207 195.437 132.76C195.184 132.307 195.057 131.817 195.057 131.29C195.057 130.69 195.224 130.153 195.557 129.68C195.897 129.2 196.467 128.803 197.267 128.49C198.067 128.177 199.164 127.957 200.557 127.83C200.517 128.083 200.447 128.333 200.347 128.58C200.247 128.827 200.1 129.04 199.907 129.22C199.72 129.393 199.474 129.507 199.167 129.56C198.734 129.627 198.394 129.737 198.147 129.89C197.9 130.043 197.724 130.223 197.617 130.43C197.517 130.637 197.467 130.853 197.467 131.08C197.467 131.453 197.597 131.77 197.857 132.03C198.124 132.29 198.46 132.42 198.867 132.42C199.28 132.42 199.694 132.297 200.107 132.05C200.527 131.797 200.917 131.447 201.277 131V127.7C201.277 126.967 201.084 126.38 200.697 125.94C200.317 125.493 199.737 125.27 198.957 125.27C198.617 125.27 198.26 125.307 197.887 125.38C197.52 125.447 197.097 125.567 196.617 125.74L196.027 124.18C196.64 123.9 197.237 123.71 197.817 123.61C198.397 123.503 198.917 123.45 199.377 123.45C200.744 123.45 201.797 123.823 202.537 124.57C203.284 125.31 203.657 126.373 203.657 127.76V131.13C203.657 131.663 203.684 132.17 203.737 132.65C203.79 133.123 203.87 133.573 203.977 134H202.187C202.007 133.893 201.86 133.75 201.747 133.57C201.634 133.39 201.537 133.197 201.457 132.99L201.417 132.61L201.177 132.96C200.617 133.487 200.114 133.833 199.667 134C199.227 134.16 198.757 134.24 198.257 134.24ZM206.41 134V126.56C206.41 126.093 206.386 125.61 206.34 125.11C206.293 124.61 206.21 124.127 206.09 123.66H207.93C208.076 123.8 208.206 124.007 208.32 124.28C208.433 124.553 208.516 124.857 208.57 125.19L208.59 125.62L208.78 125.19C209.046 124.663 209.406 124.247 209.86 123.94C210.313 123.633 210.773 123.48 211.24 123.48C211.433 123.48 211.623 123.5 211.81 123.54C211.996 123.573 212.2 123.623 212.42 123.69L212.13 125.68C211.883 125.613 211.673 125.57 211.5 125.55C211.333 125.523 211.176 125.51 211.03 125.51C210.596 125.51 210.203 125.647 209.85 125.92C209.496 126.187 209.216 126.573 209.01 127.08C208.81 127.587 208.71 128.197 208.71 128.91V134H206.41ZM218.832 134.24C217.992 134.24 217.252 134.087 216.612 133.78C215.972 133.473 215.439 133.06 215.012 132.54C214.586 132.02 214.266 131.43 214.052 130.77C213.839 130.103 213.732 129.41 213.732 128.69C213.732 127.597 213.952 126.657 214.392 125.87C214.832 125.083 215.436 124.48 216.202 124.06C216.976 123.633 217.852 123.42 218.832 123.42C219.552 123.42 220.199 123.57 220.772 123.87C221.346 124.163 221.812 124.573 222.172 125.1C222.532 125.62 222.752 126.23 222.832 126.93C222.919 127.63 222.829 128.38 222.562 129.18H216.882C217.022 128.753 217.226 128.393 217.492 128.1C217.766 127.807 218.102 127.66 218.502 127.66H220.572C220.626 127.213 220.579 126.8 220.432 126.42C220.292 126.04 220.069 125.737 219.762 125.51C219.456 125.283 219.092 125.17 218.672 125.17C218.232 125.17 217.819 125.297 217.432 125.55C217.046 125.797 216.732 126.177 216.492 126.69C216.259 127.203 216.142 127.853 216.142 128.64C216.142 129.413 216.266 130.083 216.512 130.65C216.766 131.217 217.116 131.653 217.562 131.96C218.009 132.267 218.522 132.42 219.102 132.42C219.562 132.42 220.009 132.367 220.442 132.26C220.882 132.147 221.389 131.953 221.962 131.68L222.582 133.34C221.896 133.673 221.239 133.907 220.612 134.04C219.992 134.173 219.399 134.24 218.832 134.24ZM233.062 134.24C232.402 134.24 231.832 134.107 231.352 133.84C230.872 133.567 230.502 133.207 230.242 132.76C229.988 132.307 229.862 131.817 229.862 131.29C229.862 130.69 230.028 130.153 230.362 129.68C230.702 129.2 231.272 128.803 232.072 128.49C232.872 128.177 233.968 127.957 235.362 127.83C235.322 128.083 235.252 128.333 235.152 128.58C235.052 128.827 234.905 129.04 234.712 129.22C234.525 129.393 234.278 129.507 233.972 129.56C233.538 129.627 233.198 129.737 232.952 129.89C232.705 130.043 232.528 130.223 232.422 130.43C232.322 130.637 232.272 130.853 232.272 131.08C232.272 131.453 232.402 131.77 232.662 132.03C232.928 132.29 233.265 132.42 233.672 132.42C234.085 132.42 234.498 132.297 234.912 132.05C235.332 131.797 235.722 131.447 236.082 131V127.7C236.082 126.967 235.888 126.38 235.502 125.94C235.122 125.493 234.542 125.27 233.762 125.27C233.422 125.27 233.065 125.307 232.692 125.38C232.325 125.447 231.902 125.567 231.422 125.74L230.832 124.18C231.445 123.9 232.042 123.71 232.622 123.61C233.202 123.503 233.722 123.45 234.182 123.45C235.548 123.45 236.602 123.823 237.342 124.57C238.088 125.31 238.462 126.373 238.462 127.76V131.13C238.462 131.663 238.488 132.17 238.542 132.65C238.595 133.123 238.675 133.573 238.782 134H236.992C236.812 133.893 236.665 133.75 236.552 133.57C236.438 133.39 236.342 133.197 236.262 132.99L236.222 132.61L235.982 132.96C235.422 133.487 234.918 133.833 234.472 134C234.032 134.16 233.562 134.24 233.062 134.24ZM245.034 134.24C244.081 134.24 243.268 134.003 242.594 133.53C241.921 133.05 241.408 132.397 241.054 131.57C240.701 130.743 240.524 129.81 240.524 128.77C240.524 128.023 240.648 127.333 240.894 126.7C241.141 126.06 241.474 125.503 241.894 125.03C242.321 124.55 242.801 124.177 243.334 123.91C243.874 123.637 244.434 123.5 245.014 123.5C245.341 123.5 245.668 123.523 245.994 123.57C246.328 123.617 246.724 123.713 247.184 123.86C247.004 124.267 246.781 124.6 246.514 124.86C246.254 125.113 245.928 125.247 245.534 125.26C245.021 125.28 244.584 125.43 244.224 125.71C243.864 125.983 243.588 126.38 243.394 126.9C243.201 127.413 243.104 128.037 243.104 128.77C243.104 129.45 243.194 130.067 243.374 130.62C243.561 131.167 243.828 131.603 244.174 131.93C244.528 132.257 244.954 132.42 245.454 132.42C245.868 132.42 246.271 132.303 246.664 132.07C247.064 131.837 247.474 131.477 247.894 130.99V118.84H250.314V131.13C250.314 131.663 250.341 132.17 250.394 132.65C250.448 133.123 250.521 133.573 250.614 134H248.784C248.618 133.887 248.481 133.747 248.374 133.58C248.268 133.413 248.171 133.223 248.084 133.01L248.004 132.6L247.734 133C247.261 133.467 246.791 133.79 246.324 133.97C245.864 134.15 245.434 134.24 245.034 134.24ZM257.261 134.24C256.308 134.24 255.494 134.003 254.821 133.53C254.148 133.05 253.634 132.397 253.281 131.57C252.928 130.743 252.751 129.81 252.751 128.77C252.751 128.023 252.874 127.333 253.121 126.7C253.368 126.06 253.701 125.503 254.121 125.03C254.548 124.55 255.028 124.177 255.561 123.91C256.101 123.637 256.661 123.5 257.241 123.5C257.568 123.5 257.894 123.523 258.221 123.57C258.554 123.617 258.951 123.713 259.411 123.86C259.231 124.267 259.008 124.6 258.741 124.86C258.481 125.113 258.154 125.247 257.761 125.26C257.248 125.28 256.811 125.43 256.451 125.71C256.091 125.983 255.814 126.38 255.621 126.9C255.428 127.413 255.331 128.037 255.331 128.77C255.331 129.45 255.421 130.067 255.601 130.62C255.788 131.167 256.054 131.603 256.401 131.93C256.754 132.257 257.181 132.42 257.681 132.42C258.094 132.42 258.498 132.303 258.891 132.07C259.291 131.837 259.701 131.477 260.121 130.99V118.84H262.541V131.13C262.541 131.663 262.568 132.17 262.621 132.65C262.674 133.123 262.748 133.573 262.841 134H261.011C260.844 133.887 260.708 133.747 260.601 133.58C260.494 133.413 260.398 133.223 260.311 133.01L260.231 132.6L259.961 133C259.488 133.467 259.018 133.79 258.551 133.97C258.091 134.15 257.661 134.24 257.261 134.24ZM270.278 134.24C269.438 134.24 268.698 134.087 268.058 133.78C267.418 133.473 266.884 133.06 266.458 132.54C266.031 132.02 265.711 131.43 265.498 130.77C265.284 130.103 265.178 129.41 265.178 128.69C265.178 127.597 265.398 126.657 265.838 125.87C266.278 125.083 266.881 124.48 267.648 124.06C268.421 123.633 269.298 123.42 270.278 123.42C270.998 123.42 271.644 123.57 272.218 123.87C272.791 124.163 273.258 124.573 273.618 125.1C273.978 125.62 274.198 126.23 274.278 126.93C274.364 127.63 274.274 128.38 274.008 129.18H268.328C268.468 128.753 268.671 128.393 268.938 128.1C269.211 127.807 269.548 127.66 269.948 127.66H272.018C272.071 127.213 272.024 126.8 271.878 126.42C271.738 126.04 271.514 125.737 271.208 125.51C270.901 125.283 270.538 125.17 270.118 125.17C269.678 125.17 269.264 125.297 268.878 125.55C268.491 125.797 268.178 126.177 267.938 126.69C267.704 127.203 267.588 127.853 267.588 128.64C267.588 129.413 267.711 130.083 267.958 130.65C268.211 131.217 268.561 131.653 269.008 131.96C269.454 132.267 269.968 132.42 270.548 132.42C271.008 132.42 271.454 132.367 271.888 132.26C272.328 132.147 272.834 131.953 273.408 131.68L274.028 133.34C273.341 133.673 272.684 133.907 272.058 134.04C271.438 134.173 270.844 134.24 270.278 134.24ZM280.62 134.24C279.667 134.24 278.854 134.003 278.18 133.53C277.507 133.05 276.994 132.397 276.64 131.57C276.287 130.743 276.11 129.81 276.11 128.77C276.11 128.023 276.234 127.333 276.48 126.7C276.727 126.06 277.06 125.503 277.48 125.03C277.907 124.55 278.387 124.177 278.92 123.91C279.46 123.637 280.02 123.5 280.6 123.5C280.927 123.5 281.254 123.523 281.58 123.57C281.914 123.617 282.31 123.713 282.77 123.86C282.59 124.267 282.367 124.6 282.1 124.86C281.84 125.113 281.514 125.247 281.12 125.26C280.607 125.28 280.17 125.43 279.81 125.71C279.45 125.983 279.174 126.38 278.98 126.9C278.787 127.413 278.69 128.037 278.69 128.77C278.69 129.45 278.78 130.067 278.96 130.62C279.147 131.167 279.414 131.603 279.76 131.93C280.114 132.257 280.54 132.42 281.04 132.42C281.454 132.42 281.857 132.303 282.25 132.07C282.65 131.837 283.06 131.477 283.48 130.99V118.84H285.9V131.13C285.9 131.663 285.927 132.17 285.98 132.65C286.034 133.123 286.107 133.573 286.2 134H284.37C284.204 133.887 284.067 133.747 283.96 133.58C283.854 133.413 283.757 133.223 283.67 133.01L283.59 132.6L283.32 133C282.847 133.467 282.377 133.79 281.91 133.97C281.45 134.15 281.02 134.24 280.62 134.24Z" fill="#252733"/>
<path d="M101.199 162V152.13H105.217C106.253 152.13 107.051 152.382 107.611 152.886C108.171 153.381 108.451 154.071 108.451 154.958C108.451 155.826 108.171 156.517 107.611 157.03C107.051 157.534 106.253 157.786 105.217 157.786H102.361V162H101.199ZM102.361 156.82H105.105C105.823 156.82 106.365 156.657 106.729 156.33C107.102 156.003 107.289 155.546 107.289 154.958C107.289 154.361 107.102 153.899 106.729 153.572C106.365 153.245 105.823 153.082 105.105 153.082H102.361V156.82ZM110.492 162V151.696H111.626V162H110.492ZM117.25 162.126C116.148 162.126 115.28 161.809 114.646 161.174C114.011 160.53 113.694 159.639 113.694 158.5C113.694 157.763 113.834 157.123 114.114 156.582C114.394 156.031 114.786 155.607 115.29 155.308C115.794 155 116.372 154.846 117.026 154.846C117.67 154.846 118.211 154.981 118.65 155.252C119.088 155.523 119.424 155.91 119.658 156.414C119.891 156.909 120.008 157.497 120.008 158.178V158.598H114.562V157.884H119.266L119.028 158.066C119.028 157.319 118.86 156.736 118.524 156.316C118.188 155.896 117.688 155.686 117.026 155.686C116.326 155.686 115.78 155.933 115.388 156.428C114.996 156.913 114.8 157.571 114.8 158.402V158.528C114.8 159.405 115.014 160.073 115.444 160.53C115.882 160.978 116.494 161.202 117.278 161.202C117.698 161.202 118.09 161.141 118.454 161.02C118.827 160.889 119.182 160.679 119.518 160.39L119.91 161.188C119.602 161.487 119.21 161.72 118.734 161.888C118.267 162.047 117.772 162.126 117.25 162.126ZM124.717 162.126C124.092 162.126 123.546 161.981 123.079 161.692C122.612 161.393 122.248 160.973 121.987 160.432C121.735 159.891 121.609 159.242 121.609 158.486C121.609 157.721 121.735 157.067 121.987 156.526C122.248 155.985 122.612 155.569 123.079 155.28C123.546 154.991 124.092 154.846 124.717 154.846C125.352 154.846 125.898 155.009 126.355 155.336C126.822 155.653 127.13 156.087 127.279 156.638H127.111L127.265 154.972H128.357C128.329 155.243 128.301 155.518 128.273 155.798C128.254 156.069 128.245 156.335 128.245 156.596V162H127.111V160.348H127.265C127.116 160.899 126.808 161.333 126.341 161.65C125.874 161.967 125.333 162.126 124.717 162.126ZM124.941 161.202C125.613 161.202 126.145 160.973 126.537 160.516C126.929 160.049 127.125 159.373 127.125 158.486C127.125 157.59 126.929 156.913 126.537 156.456C126.145 155.989 125.613 155.756 124.941 155.756C124.278 155.756 123.746 155.989 123.345 156.456C122.953 156.913 122.757 157.59 122.757 158.486C122.757 159.373 122.953 160.049 123.345 160.516C123.746 160.973 124.278 161.202 124.941 161.202ZM133.075 162.126C132.515 162.126 131.993 162.051 131.507 161.902C131.022 161.743 130.621 161.524 130.303 161.244L130.695 160.446C131.041 160.717 131.414 160.917 131.815 161.048C132.226 161.179 132.651 161.244 133.089 161.244C133.649 161.244 134.069 161.146 134.349 160.95C134.639 160.745 134.783 160.465 134.783 160.11C134.783 159.839 134.69 159.625 134.503 159.466C134.326 159.298 134.032 159.167 133.621 159.074L132.319 158.808C131.722 158.677 131.274 158.458 130.975 158.15C130.677 157.833 130.527 157.431 130.527 156.946C130.527 156.535 130.635 156.176 130.849 155.868C131.064 155.551 131.377 155.303 131.787 155.126C132.198 154.939 132.679 154.846 133.229 154.846C133.743 154.846 134.214 154.925 134.643 155.084C135.082 155.233 135.446 155.453 135.735 155.742L135.329 156.526C135.049 156.255 134.727 156.055 134.363 155.924C134.009 155.784 133.64 155.714 133.257 155.714C132.707 155.714 132.291 155.826 132.011 156.05C131.741 156.265 131.605 156.549 131.605 156.904C131.605 157.175 131.689 157.399 131.857 157.576C132.035 157.744 132.305 157.87 132.669 157.954L133.971 158.22C134.606 158.36 135.077 158.579 135.385 158.878C135.703 159.167 135.861 159.559 135.861 160.054C135.861 160.474 135.745 160.843 135.511 161.16C135.278 161.468 134.951 161.706 134.531 161.874C134.121 162.042 133.635 162.126 133.075 162.126ZM141.105 162.126C140.003 162.126 139.135 161.809 138.501 161.174C137.866 160.53 137.549 159.639 137.549 158.5C137.549 157.763 137.689 157.123 137.969 156.582C138.249 156.031 138.641 155.607 139.145 155.308C139.649 155 140.227 154.846 140.881 154.846C141.525 154.846 142.066 154.981 142.505 155.252C142.943 155.523 143.279 155.91 143.513 156.414C143.746 156.909 143.863 157.497 143.863 158.178V158.598H138.417V157.884H143.121L142.883 158.066C142.883 157.319 142.715 156.736 142.379 156.316C142.043 155.896 141.543 155.686 140.881 155.686C140.181 155.686 139.635 155.933 139.243 156.428C138.851 156.913 138.655 157.571 138.655 158.402V158.528C138.655 159.405 138.869 160.073 139.299 160.53C139.737 160.978 140.349 161.202 141.133 161.202C141.553 161.202 141.945 161.141 142.309 161.02C142.682 160.889 143.037 160.679 143.373 160.39L143.765 161.188C143.457 161.487 143.065 161.72 142.589 161.888C142.122 162.047 141.627 162.126 141.105 162.126ZM152.522 162.126C151.897 162.126 151.351 161.981 150.884 161.692C150.418 161.393 150.054 160.973 149.792 160.432C149.54 159.891 149.414 159.242 149.414 158.486C149.414 157.721 149.54 157.067 149.792 156.526C150.054 155.985 150.418 155.569 150.884 155.28C151.351 154.991 151.897 154.846 152.522 154.846C153.157 154.846 153.703 155.009 154.16 155.336C154.627 155.653 154.935 156.087 155.084 156.638H154.916L155.07 154.972H156.162C156.134 155.243 156.106 155.518 156.078 155.798C156.06 156.069 156.05 156.335 156.05 156.596V162H154.916V160.348H155.07C154.921 160.899 154.613 161.333 154.146 161.65C153.68 161.967 153.138 162.126 152.522 162.126ZM152.746 161.202C153.418 161.202 153.95 160.973 154.342 160.516C154.734 160.049 154.93 159.373 154.93 158.486C154.93 157.59 154.734 156.913 154.342 156.456C153.95 155.989 153.418 155.756 152.746 155.756C152.084 155.756 151.552 155.989 151.15 156.456C150.758 156.913 150.562 157.59 150.562 158.486C150.562 159.373 150.758 160.049 151.15 160.516C151.552 160.973 152.084 161.202 152.746 161.202ZM161.203 162.126C160.587 162.126 160.046 161.981 159.579 161.692C159.112 161.393 158.748 160.973 158.487 160.432C158.235 159.891 158.109 159.242 158.109 158.486C158.109 157.721 158.235 157.067 158.487 156.526C158.748 155.985 159.112 155.569 159.579 155.28C160.046 154.991 160.587 154.846 161.203 154.846C161.838 154.846 162.384 155.005 162.841 155.322C163.308 155.639 163.62 156.069 163.779 156.61H163.611V151.696H164.745V162H163.625V160.32H163.779C163.63 160.88 163.322 161.323 162.855 161.65C162.388 161.967 161.838 162.126 161.203 162.126ZM161.441 161.202C162.104 161.202 162.636 160.973 163.037 160.516C163.438 160.049 163.639 159.373 163.639 158.486C163.639 157.59 163.438 156.913 163.037 156.456C162.636 155.989 162.104 155.756 161.441 155.756C160.778 155.756 160.246 155.989 159.845 156.456C159.453 156.913 159.257 157.59 159.257 158.486C159.257 159.373 159.453 160.049 159.845 160.516C160.246 160.973 160.778 161.202 161.441 161.202ZM169.897 162.126C169.281 162.126 168.74 161.981 168.273 161.692C167.807 161.393 167.443 160.973 167.181 160.432C166.929 159.891 166.803 159.242 166.803 158.486C166.803 157.721 166.929 157.067 167.181 156.526C167.443 155.985 167.807 155.569 168.273 155.28C168.74 154.991 169.281 154.846 169.897 154.846C170.532 154.846 171.078 155.005 171.535 155.322C172.002 155.639 172.315 156.069 172.473 156.61H172.305V151.696H173.439V162H172.319V160.32H172.473C172.324 160.88 172.016 161.323 171.549 161.65C171.083 161.967 170.532 162.126 169.897 162.126ZM170.135 161.202C170.798 161.202 171.33 160.973 171.731 160.516C172.133 160.049 172.333 159.373 172.333 158.486C172.333 157.59 172.133 156.913 171.731 156.456C171.33 155.989 170.798 155.756 170.135 155.756C169.473 155.756 168.941 155.989 168.539 156.456C168.147 156.913 167.951 157.59 167.951 158.486C167.951 159.373 168.147 160.049 168.539 160.516C168.941 160.973 169.473 161.202 170.135 161.202ZM182.542 162.126C181.926 162.126 181.385 161.981 180.918 161.692C180.452 161.393 180.088 160.973 179.826 160.432C179.574 159.891 179.448 159.242 179.448 158.486C179.448 157.721 179.574 157.067 179.826 156.526C180.088 155.985 180.452 155.569 180.918 155.28C181.385 154.991 181.926 154.846 182.542 154.846C183.177 154.846 183.723 155.005 184.18 155.322C184.647 155.639 184.96 156.069 185.118 156.61H184.95V151.696H186.084V162H184.964V160.32H185.118C184.969 160.88 184.661 161.323 184.194 161.65C183.728 161.967 183.177 162.126 182.542 162.126ZM182.78 161.202C183.443 161.202 183.975 160.973 184.376 160.516C184.778 160.049 184.978 159.373 184.978 158.486C184.978 157.59 184.778 156.913 184.376 156.456C183.975 155.989 183.443 155.756 182.78 155.756C182.118 155.756 181.586 155.989 181.184 156.456C180.792 156.913 180.596 157.59 180.596 158.486C180.596 159.373 180.792 160.049 181.184 160.516C181.586 160.973 182.118 161.202 182.78 161.202ZM191.461 162.126C190.789 162.126 190.201 161.981 189.697 161.692C189.202 161.393 188.82 160.973 188.549 160.432C188.278 159.881 188.143 159.233 188.143 158.486C188.143 157.73 188.278 157.081 188.549 156.54C188.82 155.999 189.202 155.583 189.697 155.294C190.201 154.995 190.789 154.846 191.461 154.846C192.142 154.846 192.73 154.995 193.225 155.294C193.729 155.583 194.116 155.999 194.387 156.54C194.667 157.081 194.807 157.73 194.807 158.486C194.807 159.233 194.667 159.881 194.387 160.432C194.116 160.973 193.729 161.393 193.225 161.692C192.73 161.981 192.142 162.126 191.461 162.126ZM191.461 161.202C192.133 161.202 192.665 160.973 193.057 160.516C193.449 160.049 193.645 159.373 193.645 158.486C193.645 157.59 193.444 156.913 193.043 156.456C192.651 155.989 192.124 155.756 191.461 155.756C190.798 155.756 190.271 155.989 189.879 156.456C189.487 156.913 189.291 157.59 189.291 158.486C189.291 159.373 189.487 160.049 189.879 160.516C190.271 160.973 190.798 161.202 191.461 161.202ZM196.875 162V156.596C196.875 156.335 196.861 156.069 196.833 155.798C196.814 155.518 196.791 155.243 196.763 154.972H197.855L197.995 156.512H197.827C198.014 155.98 198.308 155.569 198.709 155.28C199.12 154.991 199.614 154.846 200.193 154.846C200.781 154.846 201.257 154.986 201.621 155.266C201.994 155.546 202.246 155.98 202.377 156.568H202.167C202.344 156.036 202.657 155.616 203.105 155.308C203.553 155 204.076 154.846 204.673 154.846C205.448 154.846 206.031 155.07 206.423 155.518C206.815 155.957 207.011 156.652 207.011 157.604V162H205.877V157.674C205.877 157.011 205.76 156.531 205.527 156.232C205.294 155.924 204.92 155.77 204.407 155.77C203.819 155.77 203.352 155.975 203.007 156.386C202.671 156.787 202.503 157.329 202.503 158.01V162H201.369V157.674C201.369 157.011 201.252 156.531 201.019 156.232C200.786 155.924 200.412 155.77 199.899 155.77C199.311 155.77 198.849 155.975 198.513 156.386C198.177 156.787 198.009 157.329 198.009 158.01V162H196.875ZM212.14 162.126C211.515 162.126 210.969 161.981 210.502 161.692C210.035 161.393 209.671 160.973 209.41 160.432C209.158 159.891 209.032 159.242 209.032 158.486C209.032 157.721 209.158 157.067 209.41 156.526C209.671 155.985 210.035 155.569 210.502 155.28C210.969 154.991 211.515 154.846 212.14 154.846C212.775 154.846 213.321 155.009 213.778 155.336C214.245 155.653 214.553 156.087 214.702 156.638H214.534L214.688 154.972H215.78C215.752 155.243 215.724 155.518 215.696 155.798C215.677 156.069 215.668 156.335 215.668 156.596V162H214.534V160.348H214.688C214.539 160.899 214.231 161.333 213.764 161.65C213.297 161.967 212.756 162.126 212.14 162.126ZM212.364 161.202C213.036 161.202 213.568 160.973 213.96 160.516C214.352 160.049 214.548 159.373 214.548 158.486C214.548 157.59 214.352 156.913 213.96 156.456C213.568 155.989 213.036 155.756 212.364 155.756C211.701 155.756 211.169 155.989 210.768 156.456C210.376 156.913 210.18 157.59 210.18 158.486C210.18 159.373 210.376 160.049 210.768 160.516C211.169 160.973 211.701 161.202 212.364 161.202ZM218.16 162V154.972H219.294V162H218.16ZM218.02 153.376V152.102H219.42V153.376H218.02ZM221.796 162V156.596C221.796 156.335 221.782 156.069 221.754 155.798C221.736 155.518 221.712 155.243 221.684 154.972H222.776L222.916 156.512H222.748C222.954 155.971 223.28 155.56 223.728 155.28C224.186 154.991 224.713 154.846 225.31 154.846C226.141 154.846 226.766 155.07 227.186 155.518C227.616 155.957 227.83 156.652 227.83 157.604V162H226.696V157.674C226.696 157.011 226.561 156.531 226.29 156.232C226.029 155.924 225.618 155.77 225.058 155.77C224.405 155.77 223.887 155.971 223.504 156.372C223.122 156.773 222.93 157.31 222.93 157.982V162H221.796ZM234.25 162V156.596C234.25 156.335 234.236 156.069 234.208 155.798C234.189 155.518 234.166 155.243 234.138 154.972H235.23L235.37 156.512H235.202C235.407 155.971 235.734 155.56 236.182 155.28C236.639 154.991 237.167 154.846 237.764 154.846C238.595 154.846 239.22 155.07 239.64 155.518C240.069 155.957 240.284 156.652 240.284 157.604V162H239.15V157.674C239.15 157.011 239.015 156.531 238.744 156.232C238.483 155.924 238.072 155.77 237.512 155.77C236.859 155.77 236.341 155.971 235.958 156.372C235.575 156.773 235.384 157.31 235.384 157.982V162H234.25ZM245.427 162.126C244.802 162.126 244.256 161.981 243.789 161.692C243.322 161.393 242.958 160.973 242.697 160.432C242.445 159.891 242.319 159.242 242.319 158.486C242.319 157.721 242.445 157.067 242.697 156.526C242.958 155.985 243.322 155.569 243.789 155.28C244.256 154.991 244.802 154.846 245.427 154.846C246.062 154.846 246.608 155.009 247.065 155.336C247.532 155.653 247.84 156.087 247.989 156.638H247.821L247.975 154.972H249.067C249.039 155.243 249.011 155.518 248.983 155.798C248.964 156.069 248.955 156.335 248.955 156.596V162H247.821V160.348H247.975C247.826 160.899 247.518 161.333 247.051 161.65C246.584 161.967 246.043 162.126 245.427 162.126ZM245.651 161.202C246.323 161.202 246.855 160.973 247.247 160.516C247.639 160.049 247.835 159.373 247.835 158.486C247.835 157.59 247.639 156.913 247.247 156.456C246.855 155.989 246.323 155.756 245.651 155.756C244.988 155.756 244.456 155.989 244.055 156.456C243.663 156.913 243.467 157.59 243.467 158.486C243.467 159.373 243.663 160.049 244.055 160.516C244.456 160.973 244.988 161.202 245.651 161.202ZM251.448 162V156.596C251.448 156.335 251.434 156.069 251.406 155.798C251.387 155.518 251.364 155.243 251.336 154.972H252.428L252.568 156.512H252.4C252.586 155.98 252.88 155.569 253.282 155.28C253.692 154.991 254.187 154.846 254.766 154.846C255.354 154.846 255.83 154.986 256.194 155.266C256.567 155.546 256.819 155.98 256.95 156.568H256.74C256.917 156.036 257.23 155.616 257.678 155.308C258.126 155 258.648 154.846 259.246 154.846C260.02 154.846 260.604 155.07 260.996 155.518C261.388 155.957 261.584 156.652 261.584 157.604V162H260.45V157.674C260.45 157.011 260.333 156.531 260.1 156.232C259.866 155.924 259.493 155.77 258.98 155.77C258.392 155.77 257.925 155.975 257.58 156.386C257.244 156.787 257.076 157.329 257.076 158.01V162H255.942V157.674C255.942 157.011 255.825 156.531 255.592 156.232C255.358 155.924 254.985 155.77 254.472 155.77C253.884 155.77 253.422 155.975 253.086 156.386C252.75 156.787 252.582 157.329 252.582 158.01V162H251.448ZM267.161 162.126C266.059 162.126 265.191 161.809 264.557 161.174C263.922 160.53 263.605 159.639 263.605 158.5C263.605 157.763 263.745 157.123 264.025 156.582C264.305 156.031 264.697 155.607 265.201 155.308C265.705 155 266.283 154.846 266.937 154.846C267.581 154.846 268.122 154.981 268.561 155.252C268.999 155.523 269.335 155.91 269.569 156.414C269.802 156.909 269.919 157.497 269.919 158.178V158.598H264.473V157.884H269.177L268.939 158.066C268.939 157.319 268.771 156.736 268.435 156.316C268.099 155.896 267.599 155.686 266.937 155.686C266.237 155.686 265.691 155.933 265.299 156.428C264.907 156.913 264.711 157.571 264.711 158.402V158.528C264.711 159.405 264.925 160.073 265.355 160.53C265.793 160.978 266.405 161.202 267.189 161.202C267.609 161.202 268.001 161.141 268.365 161.02C268.738 160.889 269.093 160.679 269.429 160.39L269.821 161.188C269.513 161.487 269.121 161.72 268.645 161.888C268.178 162.047 267.683 162.126 267.161 162.126ZM271.73 162V160.572H273.158V162H271.73Z" fill="#989EBB"/>
</svg>
