<svg width="22" height="22" viewBox="0 0 22 22" fill="none" xmlns="http://www.w3.org/2000/svg">
<g clip-path="url(#clip0_116_3173)">
<g clip-path="url(#clip1_116_3173)">
<g clip-path="url(#clip2_116_3173)">
<path d="M4.78428 11.6393L14.3556 11.6393L10.174 15.8208C9.83985 16.155 9.83985 16.7034 10.174 17.0376C10.5082 17.3718 11.048 17.3718 11.3822 17.0376L17.029 11.3908C17.3632 11.0566 17.3632 10.5168 17.029 10.1826L11.3822 4.53576C11.048 4.20158 10.5082 4.20158 10.174 4.53576C9.83985 4.86995 9.83985 5.40978 10.174 5.74396L14.3556 9.92551L4.78428 9.92551C4.313 9.92551 3.92741 10.3111 3.92741 10.7824C3.92741 11.2537 4.313 11.6393 4.78428 11.6393Z" fill="#575E8D"/>
</g>
</g>
</g>
<defs>
<clipPath id="clip0_116_3173">
<rect width="20.565" height="20.565" fill="white" transform="translate(0.5 0.5)"/>
</clipPath>
<clipPath id="clip1_116_3173">
<rect width="20.565" height="20.565" fill="white" transform="translate(0.5 0.5)"/>
</clipPath>
<clipPath id="clip2_116_3173">
<rect width="20.565" height="20.565" fill="white" transform="translate(21.0649 21.0649) rotate(180)"/>
</clipPath>
</defs>
</svg>
