<svg width="222" height="141" viewBox="0 0 222 141" fill="none" xmlns="http://www.w3.org/2000/svg">
<path d="M97.5389 32.7177V40.4915C96.2553 40.4915 94.9085 40.5684 93.5751 40.4788C87.4097 40.0631 82.3053 37.6124 78.3435 33.1705C75.1681 29.6107 73.4804 25.4551 73.3882 20.8029C73.2597 14.2521 75.9296 8.82871 81.2247 4.60006C84.6073 1.90007 88.6001 0.489225 93.0177 0.0812571C96.3081 -0.222528 99.4835 0.372385 102.637 1.08803C108.036 2.31194 113.107 4.33425 117.98 6.81613C118.081 6.86774 118.174 6.93395 118.332 7.03034C107.886 6.54156 98.8992 9.43628 91.6129 16.6726C92.4469 13.2823 94.1843 10.4148 96.7028 7.9417C96.6894 7.89204 96.6759 7.84141 96.6624 7.79175C95.7456 7.78299 94.8225 7.7051 93.9118 7.77715C84.3763 8.53077 78.7248 18.0484 83.1755 26.0013C85.5314 30.2095 89.374 32.4655 94.4723 32.7099C95.4513 32.7567 96.4345 32.7167 97.5389 32.7167V32.7177Z" fill="#0756A4"/>
<path d="M124.463 20.7942C131.715 20.3589 138.107 22.3403 143.115 27.5758C146.94 31.5746 148.751 36.3242 148.609 41.7018C148.372 50.6469 141.612 58.5297 132.394 60.6835C128.836 61.515 125.298 61.3972 121.728 60.7205C115.513 59.5423 109.712 57.3545 104.145 54.5601C104.025 54.4997 103.911 54.4267 103.795 54.3575C103.785 54.3517 103.787 54.3303 103.776 54.2787C114.131 54.7655 123.097 51.8591 130.374 44.6462C129.529 48.0277 127.793 50.8932 125.276 53.3644C125.292 53.4131 125.308 53.4608 125.324 53.5095C126.208 53.5251 127.097 53.6117 127.973 53.5445C135.142 52.9905 140.418 47.5457 140.339 40.8157C140.264 34.2688 134.497 28.7559 127.535 28.5806C126.672 28.5592 125.809 28.5387 124.947 28.5514C124.555 28.5572 124.45 28.4297 124.454 28.0723C124.471 26.4337 124.462 24.795 124.462 23.1563V20.7942H124.463Z" fill="#0756A4"/>
<path d="M105.817 30.7206C105.817 33.591 105.831 36.4604 105.812 39.3308C105.797 41.431 104.136 42.983 102.003 42.9382C100.004 42.8963 98.372 41.3355 98.371 39.4544C98.3679 33.6659 98.3679 27.8765 98.371 22.088C98.371 20.1154 100.032 18.5176 102.077 18.5108C104.083 18.503 105.773 20.0346 105.796 21.9654C105.83 24.8834 105.805 27.8025 105.805 30.7206C105.81 30.7206 105.814 30.7206 105.818 30.7206H105.817Z" fill="#0756A4"/>
<path d="M116.185 30.6486C116.185 27.7305 116.161 24.8115 116.193 21.8934C116.214 20.0249 117.961 18.4836 119.937 18.5109C121.925 18.5391 123.611 20.1028 123.616 21.9674C123.626 27.8211 123.625 33.6748 123.612 39.5275C123.608 41.3541 121.966 42.8847 120.011 42.9383C118.042 42.9918 116.334 41.5713 116.195 39.7437C116.157 39.2598 116.172 38.771 116.172 38.2851C116.17 35.739 116.172 33.1938 116.172 30.6477C116.177 30.6477 116.181 30.6477 116.186 30.6477L116.185 30.6486Z" fill="#0756A4"/>
<path d="M107.25 30.7285C107.25 27.8572 107.25 24.9848 107.25 22.1135C107.25 20.1272 108.785 18.6053 110.875 18.5177C112.819 18.4369 114.519 19.9305 114.67 21.8555C114.685 22.0492 114.691 22.244 114.691 22.4387C114.692 28.0042 114.693 33.5687 114.691 39.1342C114.691 41.1896 113.437 42.6336 111.431 42.9004C109.275 43.1876 107.266 41.5869 107.255 39.5383C107.238 36.6017 107.251 33.6651 107.25 30.7285Z" fill="#0756A4"/>
<path d="M91.7695 20.7825H97.5257C97.5257 23.2021 97.5112 25.5964 97.5381 27.9906C97.5433 28.4609 97.3786 28.5592 96.9206 28.5524C95.4018 28.5291 93.883 28.5427 92.3642 28.5427C92.1777 28.5427 91.9923 28.5427 91.7695 28.5427V20.7825Z" fill="#0756A4"/>
<path d="M130.229 40.5294H124.455V32.7849H130.229V40.5294Z" fill="#0756A4"/>
<path d="M15.3727 126.976C13.7946 126.976 11.9473 126.753 9.83072 126.308C7.71419 125.881 5.38415 125.083 2.84061 123.913L4.95713 118.733C6.96227 119.68 8.84672 120.339 10.6105 120.71C12.3743 121.063 13.9617 121.239 15.3727 121.239C17.3593 121.239 18.9931 120.72 20.2741 119.68C21.5737 118.64 22.2236 117.396 22.2236 115.948C22.2236 114.593 21.7687 113.432 20.859 112.467C19.9492 111.483 18.7796 110.592 17.35 109.793C15.9204 108.976 14.398 108.15 12.7827 107.315C11.1675 106.479 9.64506 105.542 8.21548 104.502C6.78589 103.462 5.61623 102.228 4.70649 100.798C3.79676 99.3686 3.34189 97.6419 3.34189 95.6182C3.34189 93.1861 3.89887 91.1902 5.01283 89.6307C6.14536 88.0711 7.63993 86.92 9.49653 86.1774C11.3531 85.4162 13.3861 85.0356 15.5955 85.0356C17.3036 85.0356 18.9652 85.1563 20.5805 85.3976C22.1957 85.6204 24.173 86.1124 26.5123 86.8736L24.4515 91.9421C22.8177 91.4594 21.3231 91.116 19.9678 90.9117C18.6125 90.7075 17.3221 90.6054 16.0968 90.6054C14.4258 90.6054 13.0891 91.0138 12.0865 91.8307C11.0839 92.6477 10.5826 93.6874 10.5826 94.9498C10.5826 96.2123 11.0375 97.317 11.9473 98.2639C12.8756 99.1922 14.0545 100.056 15.4841 100.854C16.9322 101.652 18.4639 102.488 20.0792 103.36C21.6944 104.233 23.2168 105.217 24.6464 106.312C26.0946 107.408 27.2735 108.726 28.1833 110.267C29.1116 111.789 29.5757 113.627 29.5757 115.781C29.5757 118.176 28.9816 120.209 27.7934 121.88C26.6051 123.532 24.9435 124.795 22.8084 125.667C20.6733 126.54 18.1947 126.976 15.3727 126.976ZM52.3375 126.252V105.811C52.3375 104.883 52.1426 104.121 51.7527 103.527C51.3814 102.933 50.7223 102.636 49.7754 102.636C49.4227 102.636 49.0792 102.683 48.745 102.775C48.4108 102.868 47.9745 102.933 47.4361 102.97C46.5449 103.026 45.793 102.655 45.1803 101.856C44.5862 101.04 44.02 100.185 43.4815 99.2943C45.3196 98.3103 46.9348 97.6419 48.3273 97.2892C49.7197 96.9178 51.0565 96.7322 52.3375 96.7322C53.6186 96.7322 54.8532 97.0571 56.0415 97.7069C57.2297 98.3567 58.1951 99.35 58.9378 100.687C59.699 102.005 60.0796 103.676 60.0796 105.7V126.252H52.3375ZM34.347 126.252V104.474C34.347 103.435 34.2728 102.33 34.1243 101.16C33.9943 99.9905 33.7715 98.7559 33.4559 97.4563H39.9169C40.808 98.4588 41.4021 99.4521 41.6992 100.436C41.9963 101.42 42.1448 102.469 42.1448 103.583V126.252H34.347ZM73.7056 126.976C71.9233 126.976 70.3823 126.586 69.0827 125.807C67.8016 125.008 66.8083 123.969 66.1028 122.688C65.4159 121.406 65.0724 120.033 65.0724 118.566C65.0724 117.025 65.5273 115.567 66.437 114.194C67.3467 112.82 68.9063 111.659 71.1157 110.712C73.3436 109.747 76.4163 109.116 80.3337 108.819C80.2037 109.691 79.9902 110.499 79.6932 111.242C79.3961 111.966 78.9877 112.569 78.4678 113.052C77.9665 113.534 77.326 113.85 76.5462 113.999C75.6179 114.147 74.8567 114.407 74.2626 114.778C73.6685 115.15 73.2322 115.605 72.9537 116.143C72.6752 116.663 72.536 117.229 72.536 117.842C72.536 118.807 72.8794 119.615 73.5664 120.265C74.2533 120.914 75.0795 121.239 76.0449 121.239C77.1032 121.239 78.1708 120.877 79.2476 120.153C80.343 119.411 81.3734 118.473 82.3388 117.34V108.93C82.3388 106.999 81.8004 105.458 80.7236 104.307C79.6653 103.156 78.1615 102.58 76.212 102.58C75.3023 102.58 74.3183 102.673 73.26 102.859C72.2018 103.045 71.0135 103.379 69.6953 103.862L67.8016 98.9601C69.454 98.1989 71.1528 97.6605 72.898 97.3449C74.6618 97.0107 76.1935 96.8436 77.4931 96.8436C81.4477 96.8436 84.4925 97.8833 86.6276 99.9627C88.7812 102.042 89.8581 105.031 89.8581 108.93V119.234C89.8581 120.255 89.9231 121.351 90.053 122.52C90.183 123.69 90.4151 124.934 90.7492 126.252H85.0123C84.5111 125.974 84.0933 125.584 83.7591 125.083C83.4435 124.563 83.1743 124.024 82.9515 123.467L82.7844 122.353L82.116 123.3C80.4451 124.823 78.9784 125.816 77.7159 126.28C76.472 126.744 75.1352 126.976 73.7056 126.976ZM106.986 140.177C105.538 140.177 103.876 140.019 102.001 139.703C100.144 139.406 98.1297 138.784 95.9575 137.837L97.9069 132.657C99.7821 133.4 101.397 133.911 102.753 134.189C104.108 134.468 105.37 134.607 106.54 134.607C107.914 134.607 109.176 134.319 110.328 133.744C111.497 133.168 112.426 132.305 113.112 131.154C113.818 130.003 114.171 128.573 114.171 126.865V102.97C113.447 102.803 112.769 102.692 112.138 102.636C111.507 102.562 110.996 102.525 110.606 102.525C108.081 102.525 106.16 103.49 104.841 105.421C103.523 107.333 102.864 109.821 102.864 112.885C102.864 114.073 102.994 115.298 103.254 116.561C103.532 117.823 104.015 118.881 104.702 119.736C105.408 120.59 106.392 120.998 107.654 120.961C108.768 120.924 109.641 121.295 110.272 122.075C110.922 122.836 111.553 123.746 112.166 124.804C111.144 125.361 110.077 125.825 108.963 126.196C107.849 126.568 106.819 126.753 105.872 126.753C104.089 126.753 102.493 126.354 101.082 125.556C99.6892 124.739 98.5103 123.662 97.5449 122.325C96.5794 120.97 95.8368 119.476 95.3169 117.842C94.8157 116.189 94.565 114.537 94.565 112.885C94.565 109.933 95.187 107.241 96.4309 104.808C97.6748 102.358 99.4664 100.408 101.806 98.9601C104.145 97.512 106.967 96.7879 110.272 96.7879C111.33 96.7879 112.388 96.8343 113.447 96.9271C114.505 97.0014 115.693 97.1592 117.011 97.4006C118.33 97.6419 119.908 97.9947 121.746 98.4588V126.252C121.746 129.65 121.077 132.36 119.741 134.384C118.422 136.426 116.64 137.902 114.394 138.812C112.166 139.722 109.696 140.177 106.986 140.177ZM139.142 140.177C137.694 140.177 136.032 140.019 134.157 139.703C132.301 139.406 130.286 138.784 128.114 137.837L130.063 132.657C131.939 133.4 133.554 133.911 134.909 134.189C136.264 134.468 137.527 134.607 138.697 134.607C140.071 134.607 141.333 134.319 142.484 133.744C143.654 133.168 144.582 132.305 145.269 131.154C145.975 130.003 146.327 128.573 146.327 126.865V102.97C145.603 102.803 144.926 102.692 144.294 102.636C143.663 102.562 143.153 102.525 142.763 102.525C140.238 102.525 138.316 103.49 136.998 105.421C135.68 107.333 135.021 109.821 135.021 112.885C135.021 114.073 135.151 115.298 135.41 116.561C135.689 117.823 136.172 118.881 136.859 119.736C137.564 120.59 138.548 120.998 139.811 120.961C140.925 120.924 141.797 121.295 142.428 122.075C143.078 122.836 143.709 123.746 144.322 124.804C143.301 125.361 142.233 125.825 141.12 126.196C140.006 126.568 138.975 126.753 138.028 126.753C136.246 126.753 134.649 126.354 133.238 125.556C131.846 124.739 130.667 123.662 129.701 122.325C128.736 120.97 127.993 119.476 127.473 117.842C126.972 116.189 126.722 114.537 126.722 112.885C126.722 109.933 127.344 107.241 128.587 104.808C129.831 102.358 131.623 100.408 133.962 98.9601C136.302 97.512 139.124 96.7879 142.428 96.7879C143.487 96.7879 144.545 96.8343 145.603 96.9271C146.661 97.0014 147.85 97.1592 149.168 97.4006C150.486 97.6419 152.064 97.9947 153.902 98.4588V126.252C153.902 129.65 153.234 132.36 151.897 134.384C150.579 136.426 148.797 137.902 146.55 138.812C144.322 139.722 141.853 140.177 139.142 140.177ZM173.805 126.976C171.262 126.976 169.062 126.531 167.205 125.64C165.348 124.73 163.817 123.523 162.61 122.019C161.422 120.497 160.54 118.816 159.964 116.978C159.389 115.122 159.101 113.256 159.101 111.381C159.101 108.317 159.751 105.69 161.05 103.5C162.369 101.309 164.132 99.6378 166.342 98.4867C168.551 97.317 171.002 96.7322 173.694 96.7322C175.755 96.7322 177.621 97.1406 179.291 97.9575C180.981 98.7559 182.355 99.8884 183.413 101.355C184.49 102.822 185.14 104.558 185.363 106.563C185.604 108.568 185.316 110.768 184.499 113.163H168.904C169.294 111.882 169.878 110.805 170.658 109.933C171.438 109.041 172.301 108.596 173.248 108.596H178.205C178.354 107.463 178.252 106.405 177.899 105.421C177.546 104.437 176.971 103.648 176.172 103.054C175.393 102.441 174.436 102.135 173.304 102.135C172.283 102.135 171.271 102.441 170.268 103.054C169.266 103.667 168.43 104.632 167.762 105.95C167.112 107.268 166.787 108.986 166.787 111.102C166.787 113.237 167.112 115.066 167.762 116.589C168.43 118.092 169.349 119.244 170.519 120.042C171.707 120.84 173.081 121.239 174.641 121.239C175.922 121.239 177.193 121.082 178.456 120.766C179.718 120.432 181.157 119.903 182.773 119.179L184.722 124.358C182.717 125.305 180.823 125.974 179.041 126.364C177.277 126.772 175.532 126.976 173.805 126.976ZM201.82 126.976C199.128 126.976 196.825 126.317 194.913 124.999C193.019 123.662 191.571 121.843 190.569 119.541C189.566 117.22 189.065 114.593 189.065 111.659C189.065 109.691 189.399 107.825 190.067 106.062C190.736 104.298 191.645 102.738 192.797 101.383C193.948 100.009 195.257 98.9323 196.723 98.1525C198.19 97.3541 199.722 96.955 201.318 96.955C202.265 96.955 203.194 97.02 204.103 97.1499C205.032 97.2613 206.22 97.5305 207.668 97.9575C207.167 99.2386 206.573 100.278 205.886 101.077C205.217 101.875 204.419 102.321 203.491 102.413C201.968 102.506 200.752 102.961 199.842 103.778C198.951 104.576 198.301 105.653 197.893 107.008C197.503 108.364 197.308 109.914 197.308 111.659C197.308 113.386 197.54 114.973 198.004 116.421C198.468 117.87 199.137 119.039 200.009 119.93C200.901 120.803 201.968 121.239 203.212 121.239C204.27 121.239 205.319 120.924 206.359 120.292C207.399 119.661 208.503 118.677 209.673 117.34V84.033H217.415V119.234C217.415 120.255 217.48 121.351 217.61 122.52C217.74 123.69 217.954 124.934 218.251 126.252H212.291C211.827 125.992 211.437 125.621 211.121 125.138C210.806 124.656 210.546 124.154 210.341 123.634L210.063 122.353L209.116 123.579C207.668 124.878 206.359 125.769 205.189 126.252C204.038 126.735 202.915 126.976 201.82 126.976Z" fill="white"/>
</svg>
