<svg width="17" height="17" viewBox="0 0 17 17" fill="none" xmlns="http://www.w3.org/2000/svg">
<rect x="0.0932617" y="0.414917" width="16" height="16" rx="3" fill="#FFC43C"/>
<path d="M8.12096 13.5342C7.51869 13.5342 6.98176 13.4234 6.51017 13.2018C6.04142 12.9803 5.66926 12.6749 5.39369 12.2857C5.11812 11.8965 4.97465 11.4504 4.96329 10.9476H6.75306C6.77295 11.2857 6.91499 11.5598 7.1792 11.77C7.4434 11.9803 7.75732 12.0854 8.12096 12.0854C8.41073 12.0854 8.66642 12.0215 8.88801 11.8936C9.11244 11.7629 9.28715 11.5825 9.41215 11.3524C9.53999 11.1195 9.60392 10.8524 9.60392 10.5513C9.60392 10.2445 9.53857 9.97458 9.40789 9.74162C9.28005 9.50867 9.10249 9.32685 8.87522 9.19617C8.64795 9.06549 8.38801 8.99872 8.09539 8.99588C7.83971 8.99588 7.59113 9.04844 7.34965 9.15355C7.11102 9.25867 6.92494 9.40213 6.79142 9.58395L5.15079 9.28992L5.56414 4.68764H10.8994V6.19617H7.08545L6.8596 8.38225H6.91073C7.06414 8.16634 7.29568 7.98736 7.60534 7.84531C7.91499 7.70327 8.26159 7.63225 8.64511 7.63225C9.17068 7.63225 9.63943 7.75583 10.0514 8.00298C10.4633 8.25014 10.7886 8.58963 11.0272 9.02145C11.2658 9.45043 11.3837 9.94475 11.3809 10.5044C11.3837 11.0925 11.2474 11.6152 10.9718 12.0726C10.6991 12.5271 10.317 12.8851 9.82551 13.1465C9.33687 13.405 8.76869 13.5342 8.12096 13.5342Z" fill="black"/>
</svg>
