<svg width="17" height="17" viewBox="0 0 17 17" fill="none" xmlns="http://www.w3.org/2000/svg">
<rect x="0.0932617" y="0.0106201" width="16" height="16" rx="3" fill="#FFC43C"/>
<path d="M8.07142 13.1299C7.43506 13.1299 6.8683 13.0206 6.37114 12.8018C5.87682 12.5802 5.48619 12.2762 5.19926 11.8899C4.91517 11.5007 4.76887 11.0518 4.76034 10.5433H6.6183C6.62966 10.7564 6.69926 10.9439 6.8271 11.1058C6.95779 11.2649 7.13108 11.3885 7.34699 11.4765C7.5629 11.5646 7.8058 11.6086 8.07568 11.6086C8.35693 11.6086 8.60551 11.5589 8.82142 11.4595C9.03733 11.3601 9.20637 11.2223 9.32852 11.0461C9.45068 10.87 9.51176 10.6669 9.51176 10.4368C9.51176 10.2038 9.44642 9.99784 9.31574 9.81886C9.1879 9.63704 9.00324 9.49499 8.76176 9.39272C8.52313 9.29045 8.23904 9.23931 7.90949 9.23931H7.09557V7.8842H7.90949C8.1879 7.8842 8.43364 7.8359 8.64671 7.73931C8.86262 7.64272 9.03023 7.5092 9.14955 7.33875C9.26887 7.16545 9.32852 6.96375 9.32852 6.73363C9.32852 6.51488 9.27597 6.32312 9.17085 6.15835C9.06858 5.99073 8.9237 5.86005 8.7362 5.7663C8.55154 5.67255 8.33563 5.62568 8.08847 5.62568C7.83847 5.62568 7.60977 5.67113 7.40239 5.76204C7.195 5.85011 7.02881 5.97653 6.90381 6.1413C6.77881 6.30607 6.71205 6.49926 6.70352 6.72085H4.93506C4.94358 6.21801 5.08705 5.77482 5.36546 5.3913C5.64387 5.00778 6.01887 4.70806 6.49046 4.49215C6.96489 4.2734 7.5004 4.16403 8.09699 4.16403C8.69926 4.16403 9.22625 4.2734 9.67796 4.49215C10.1297 4.7109 10.4805 5.00636 10.7305 5.37852C10.9834 5.74784 11.1084 6.16261 11.1055 6.62284C11.1084 7.11147 10.9564 7.51914 10.6495 7.84585C10.3456 8.17255 9.94926 8.37994 9.46063 8.46801V8.53619C10.1027 8.61857 10.5913 8.84159 10.9265 9.20522C11.2646 9.56602 11.4322 10.0177 11.4294 10.5603C11.4322 11.0575 11.2888 11.4993 10.999 11.8856C10.712 12.272 10.3157 12.576 9.81006 12.7976C9.30438 13.0191 8.72483 13.1299 8.07142 13.1299Z" fill="black"/>
</svg>
