<svg width="17" height="17" viewBox="0 0 17 17" fill="none" xmlns="http://www.w3.org/2000/svg">
<rect x="0.0932617" y="0.308472" width="16" height="16" rx="3" fill="#FFC43C"/>
<path d="M5.02135 13.3085V11.9789L8.12789 9.10251C8.39209 8.84682 8.61368 8.61671 8.79266 8.41216C8.97448 8.20762 9.11226 8.00734 9.20601 7.81131C9.29976 7.61245 9.34664 7.39796 9.34664 7.16785C9.34664 6.91216 9.2884 6.69199 9.17192 6.50734C9.05544 6.31984 8.89635 6.17637 8.69465 6.07694C8.49294 5.97466 8.26425 5.92353 8.00857 5.92353C7.74152 5.92353 7.50857 5.97751 7.3097 6.08546C7.11084 6.19341 6.95743 6.34824 6.84948 6.54995C6.74152 6.75165 6.68754 6.99171 6.68754 7.27012H4.93612C4.93612 6.6991 5.06539 6.20336 5.32391 5.7829C5.58243 5.36245 5.94465 5.03716 6.41056 4.80705C6.87646 4.57694 7.4134 4.46188 8.02135 4.46188C8.64635 4.46188 9.19039 4.57268 9.65345 4.79427C10.1194 5.01302 10.4816 5.31699 10.7401 5.7062C10.9986 6.0954 11.1279 6.54143 11.1279 7.04427C11.1279 7.37381 11.0625 7.6991 10.9319 8.02012C10.804 8.34114 10.5753 8.69768 10.2458 9.08972C9.91624 9.47893 9.45175 9.94626 8.85232 10.4917L7.57817 11.7403V11.7999H11.2429V13.3085H5.02135Z" fill="black"/>
</svg>
