<svg width="66" height="66" viewBox="0 0 66 66" fill="none" xmlns="http://www.w3.org/2000/svg">
<path d="M57.9425 14.3825C53.5149 13.9425 49.0874 13.6125 44.6324 13.365V13.3375L44.0274 9.7625C43.6149 7.2325 43.0099 3.4375 36.5749 3.4375H29.3699C22.9624 3.4375 22.3574 7.0675 21.9174 9.735L21.3399 13.255C18.7824 13.42 16.2249 13.585 13.6674 13.8325L8.05745 14.3825C6.90245 14.4925 6.07744 15.51 6.18744 16.6375C6.29744 17.765 7.28744 18.59 8.44245 18.48L14.0524 17.93C28.4624 16.5 42.9825 17.05 57.5575 18.5075C57.64 18.5075 57.695 18.5075 57.7775 18.5075C58.8225 18.5075 59.73 17.71 59.84 16.6375C59.9225 15.51 59.0975 14.4925 57.9425 14.3825Z" fill="#FF5A4F"/>
<path d="M52.8825 22.385C52.2225 21.6975 51.315 21.3125 50.38 21.3125H15.62C14.685 21.3125 13.75 21.6975 13.1175 22.385C12.485 23.0725 12.1275 24.0075 12.1825 24.97L13.8875 53.185C14.19 57.365 14.575 62.59 24.1725 62.59H41.8275C51.425 62.59 51.81 57.3925 52.1125 53.185L53.8175 24.9975C53.8725 24.0075 53.515 23.0725 52.8825 22.385ZM37.565 48.8125H28.4075C27.28 48.8125 26.345 47.8775 26.345 46.75C26.345 45.6225 27.28 44.6875 28.4075 44.6875H37.565C38.6925 44.6875 39.6275 45.6225 39.6275 46.75C39.6275 47.8775 38.6925 48.8125 37.565 48.8125ZM39.875 37.8125H26.125C24.9975 37.8125 24.0625 36.8775 24.0625 35.75C24.0625 34.6225 24.9975 33.6875 26.125 33.6875H39.875C41.0025 33.6875 41.9375 34.6225 41.9375 35.75C41.9375 36.8775 41.0025 37.8125 39.875 37.8125Z" fill="#FF5A4F"/>
</svg>
